<svg width="40" height="41" viewBox="0 0 40 41" fill="none" xmlns="http://www.w3.org/2000/svg">
<mask id="mask0_408_2633" style="mask-type:alpha" maskUnits="userSpaceOnUse" x="0" y="0" width="40" height="41">
<rect y="0.400024" width="40" height="40" fill="#D9D9D9"/>
</mask>
<g mask="url(#mask0_408_2633)">
<path d="M35.0158 21.3454H31.1858C30.9172 21.3454 30.6924 21.2543 30.5116 21.0721C30.3308 20.8899 30.2404 20.6634 30.2404 20.3925C30.2404 20.122 30.3308 19.898 30.5116 19.7204C30.6924 19.5432 30.9172 19.4546 31.1858 19.4546H35.0158C35.2847 19.4546 35.5095 19.5457 35.6904 19.7279C35.8712 19.9102 35.9616 20.1367 35.9616 20.4075C35.9616 20.6781 35.8712 20.9021 35.6904 21.0796C35.5095 21.2568 35.2847 21.3454 35.0158 21.3454ZM28.1762 28.6788C28.3451 28.4757 28.5537 28.3518 28.802 28.3071C29.0504 28.2621 29.2862 28.3241 29.5095 28.493L32.5833 30.7909C32.7969 30.9598 32.9262 31.1684 32.9712 31.4167C33.0159 31.665 32.954 31.8956 32.7854 32.1084C32.6165 32.322 32.4052 32.4513 32.1516 32.4963C31.8977 32.541 31.6645 32.4789 31.452 32.31L28.362 30.0121C28.159 29.8432 28.0351 29.6346 27.9904 29.3863C27.9454 29.138 28.0073 28.9021 28.1762 28.6788ZM32.5191 9.94503L29.5383 12.2175C29.3149 12.3861 29.0791 12.4481 28.8308 12.4034C28.5824 12.3584 28.3738 12.2291 28.2049 12.0155C28.0363 11.8124 27.9744 11.5843 28.0191 11.3313C28.0641 11.0779 28.188 10.867 28.3908 10.6984L31.3879 8.42587C31.6004 8.25698 31.8335 8.19503 32.0874 8.24003C32.341 8.28475 32.5523 8.41392 32.7212 8.62753C32.8898 8.83059 32.9517 9.05878 32.907 9.31212C32.862 9.56517 32.7327 9.77614 32.5191 9.94503ZM9.05452 24.695H6.44244C5.78688 24.695 5.2223 24.4582 4.74869 23.9846C4.27507 23.511 4.03827 22.9464 4.03827 22.2909V18.5092C4.03827 17.8536 4.27507 17.2891 4.74869 16.8154C5.2223 16.3418 5.78688 16.105 6.44244 16.105H13.4937L19.1666 12.7271C19.5619 12.4877 19.9598 12.4841 20.3604 12.7163C20.7612 12.9485 20.9616 13.2971 20.9616 13.7621V27.038C20.9616 27.503 20.7612 27.8516 20.3604 28.0838C19.9598 28.316 19.5619 28.3124 19.1666 28.0729L13.4937 24.695H10.9454V30.2559C10.9454 30.5245 10.8542 30.7492 10.672 30.93C10.4898 31.1109 10.2633 31.2013 9.99244 31.2013C9.72188 31.2013 9.49785 31.1109 9.32035 30.93C9.14313 30.7492 9.05452 30.5245 9.05452 30.2559V24.695ZM19.0704 25.8071V14.9929L13.9999 17.9963H6.44244C6.3141 17.9963 6.19646 18.0496 6.08952 18.1563C5.98285 18.2632 5.92952 18.3809 5.92952 18.5092V22.2909C5.92952 22.4192 5.98285 22.5368 6.08952 22.6438C6.19646 22.7504 6.3141 22.8038 6.44244 22.8038H13.9999L19.0704 25.8071ZM23.2691 25.5988V15.2013C23.923 15.7932 24.4497 16.5389 24.8491 17.4384C25.2488 18.3381 25.4487 19.3253 25.4487 20.4C25.4487 21.4748 25.2488 22.462 24.8491 23.3617C24.4497 24.2611 23.923 25.0068 23.2691 25.5988Z" fill="#96D200"/>
</g>
</svg>
