<svg width="40" height="40" viewBox="0 0 40 40" fill="none" xmlns="http://www.w3.org/2000/svg">
<mask id="mask0_408_2645" style="mask-type:alpha" maskUnits="userSpaceOnUse" x="0" y="0" width="40" height="40">
<rect width="40" height="40" fill="#D9D9D9"/>
</mask>
<g mask="url(#mask0_408_2645)">
<path d="M2.07248 29.6475C1.72831 29.6475 1.43581 29.5269 1.19498 29.2858C0.953869 29.045 0.833313 28.7523 0.833313 28.4079V27.8183C0.833313 26.77 1.39456 25.9082 2.51706 25.2329C3.63956 24.5576 5.10276 24.22 6.90665 24.22C7.19887 24.22 7.49748 24.2297 7.80248 24.2491C8.1072 24.2683 8.41415 24.3025 8.72331 24.3516C8.48831 24.8244 8.31109 25.3047 8.19165 25.7925C8.07248 26.2803 8.0129 26.78 8.0129 27.2916V29.6475H2.07248ZM12.1433 29.6475C11.7669 29.6475 11.4544 29.5226 11.2058 29.2729C10.9575 29.0232 10.8333 28.7136 10.8333 28.3442V27.3558C10.8333 26.5755 11.0523 25.8623 11.4904 25.2162C11.9285 24.5698 12.5598 24.0064 13.3846 23.5258C14.2093 23.045 15.1837 22.6844 16.3079 22.4441C17.4318 22.2036 18.6604 22.0833 19.9937 22.0833C21.3526 22.0833 22.594 22.2036 23.7179 22.4441C24.8418 22.6844 25.8161 23.045 26.6408 23.5258C27.4658 24.0064 28.093 24.5698 28.5225 25.2162C28.9519 25.8623 29.1666 26.5755 29.1666 27.3558V28.3442C29.1666 28.7136 29.0418 29.0232 28.7921 29.2729C28.5423 29.5226 28.2328 29.6475 27.8633 29.6475H12.1433ZM31.9871 29.6475V27.2937C31.9871 26.7515 31.9335 26.2379 31.8262 25.7529C31.719 25.2682 31.549 24.8018 31.3162 24.3537C31.6432 24.3032 31.9544 24.2683 32.25 24.2491C32.5455 24.2297 32.8354 24.22 33.1196 24.22C34.926 24.22 36.3854 24.5521 37.4979 25.2162C38.6104 25.8804 39.1666 26.7478 39.1666 27.8183V28.4079C39.1666 28.7523 39.0461 29.045 38.805 29.2858C38.5641 29.5269 38.2716 29.6475 37.9275 29.6475H31.9871ZM12.9596 27.5533H27.0491V27.2533C27.0136 26.3508 26.3398 25.6125 25.0279 25.0383C23.716 24.4644 22.04 24.1775 20 24.1775C17.9672 24.1775 16.293 24.4644 14.9775 25.0383C13.6619 25.6125 12.9893 26.3565 12.9596 27.2704V27.5533ZM6.87998 22.8046C6.15526 22.8046 5.53526 22.5453 5.01998 22.0266C4.50442 21.5083 4.24665 20.8844 4.24665 20.155C4.24665 19.4241 4.50595 18.8025 5.02456 18.29C5.5429 17.7778 6.16679 17.5216 6.89623 17.5216C7.62706 17.5216 8.25137 17.7778 8.76915 18.29C9.28692 18.8025 9.54581 19.4297 9.54581 20.1716C9.54581 20.8855 9.28984 21.5029 8.7779 22.0237C8.26595 22.5443 7.63331 22.8046 6.87998 22.8046ZM33.1075 22.8046C32.3905 22.8046 31.7718 22.5436 31.2512 22.0216C30.7304 21.5 30.47 20.8793 30.47 20.1596C30.47 19.4257 30.731 18.8025 31.2529 18.29C31.7746 17.7778 32.3979 17.5216 33.1229 17.5216C33.8621 17.5216 34.4879 17.7778 35.0004 18.29C35.5129 18.8025 35.7691 19.4282 35.7691 20.1671C35.7691 20.8907 35.5136 21.5112 35.0025 22.0287C34.4914 22.546 33.8597 22.8046 33.1075 22.8046ZM20.0058 20.8333C18.8053 20.8333 17.783 20.4126 16.9391 19.5712C16.0953 18.7301 15.6733 17.7086 15.6733 16.5066C15.6733 15.2805 16.0939 14.2529 16.935 13.4237C17.7764 12.5943 18.798 12.1796 20 12.1796C21.2258 12.1796 22.2535 12.5937 23.0829 13.4221C23.9121 14.2501 24.3266 15.2764 24.3266 16.5008C24.3266 17.7011 23.9126 18.7233 23.0846 19.5675C22.2562 20.4114 21.23 20.8333 20.0058 20.8333ZM20.0179 18.7396C20.6448 18.7396 21.1708 18.5229 21.5958 18.0896C22.0205 17.6565 22.2329 17.1229 22.2329 16.4887C22.2329 15.8618 22.0197 15.3358 21.5933 14.9108C21.1672 14.4861 20.6393 14.2737 20.0096 14.2737C19.3862 14.2737 18.8566 14.4868 18.4208 14.9129C17.985 15.3393 17.7671 15.8672 17.7671 16.4966C17.7671 17.12 17.9836 17.6496 18.4166 18.0854C18.85 18.5215 19.3837 18.7396 20.0179 18.7396Z" fill="#96D200"/>
</g>
</svg>
