<svg width="40" height="41" viewBox="0 0 40 41" fill="none" xmlns="http://www.w3.org/2000/svg">
<mask id="mask0_408_2651" style="mask-type:alpha" maskUnits="userSpaceOnUse" x="0" y="0" width="40" height="41">
<rect y="0.800049" width="40" height="40" fill="#D9D9D9"/>
</mask>
<g mask="url(#mask0_408_2651)">
<path d="M19.6474 34.6942C19.8397 34.6942 20.0448 34.6515 20.2629 34.5659C20.4806 34.4806 20.6558 34.3663 20.7883 34.223L34.3974 20.5884C34.7905 20.1953 35.0934 19.7697 35.3062 19.3113C35.5187 18.853 35.6249 18.3663 35.6249 17.8513C35.6249 17.3363 35.5187 16.8294 35.3062 16.3305C35.0934 15.8316 34.7905 15.3855 34.3974 14.9922L27.4262 8.02132C27.0331 7.62799 26.6031 7.33313 26.1362 7.13674C25.6692 6.94007 25.1783 6.84174 24.6633 6.84174C24.1483 6.84174 23.659 6.94007 23.1954 7.13674C22.7317 7.33313 22.3087 7.62799 21.9262 8.02132L20.7595 9.18799L24.0545 12.5084C24.3834 12.8545 24.6681 13.2631 24.9087 13.7342C25.149 14.2056 25.2691 14.7094 25.2691 15.2455C25.2691 16.1835 24.9181 16.9966 24.2162 17.6847C23.5142 18.3727 22.6997 18.7167 21.7724 18.7167C21.1741 18.7167 20.6645 18.6285 20.2437 18.4522C19.8226 18.276 19.4337 18.0149 19.077 17.6688L16.3558 14.9313C16.2597 14.8352 16.1367 14.7872 15.987 14.7872C15.8376 14.7872 15.7148 14.8352 15.6187 14.9313L8.55785 21.9922C8.39757 22.1524 8.27896 22.3331 8.20202 22.5342C8.12508 22.7351 8.0866 22.9348 8.0866 23.1334C8.0866 23.5478 8.21799 23.8838 8.48077 24.1413C8.74355 24.3988 9.07688 24.5276 9.48077 24.5276C9.69021 24.5276 9.89535 24.4778 10.0962 24.3784C10.297 24.2792 10.4637 24.1634 10.5962 24.0309L15.4712 19.1559C15.657 18.9701 15.8766 18.8744 16.1299 18.8688C16.383 18.8635 16.6079 18.9592 16.8045 19.1559C17.0009 19.3526 17.0991 19.5748 17.0991 19.8226C17.0991 20.0703 17.0009 20.2926 16.8045 20.4892L11.9549 25.3226C11.7947 25.4934 11.676 25.6809 11.5991 25.8851C11.5224 26.089 11.4841 26.2956 11.4841 26.5051C11.4841 26.8812 11.6224 27.2076 11.8991 27.4842C12.1758 27.7609 12.5022 27.8992 12.8783 27.8992C13.0877 27.8992 13.2929 27.8566 13.4937 27.7713C13.6945 27.6858 13.8612 27.5715 13.9937 27.4284L19.0608 22.3609C19.2466 22.1751 19.4662 22.0795 19.7195 22.0742C19.9729 22.0687 20.1977 22.1642 20.3941 22.3609C20.5908 22.5576 20.6891 22.7798 20.6891 23.0276C20.6891 23.2753 20.5908 23.4976 20.3941 23.6942L15.3524 28.7201C15.2199 28.8631 15.1083 29.0437 15.0174 29.2617C14.9266 29.4795 14.8812 29.6931 14.8812 29.9026C14.8812 30.2787 15.0197 30.6051 15.2966 30.8817C15.5733 31.1584 15.8997 31.2967 16.2758 31.2967C16.4849 31.2967 16.683 31.2583 16.8699 31.1813C17.0572 31.1044 17.2309 30.9858 17.3912 30.8255L22.4583 25.7584C22.6441 25.5726 22.8637 25.4769 23.117 25.4713C23.3701 25.466 23.5949 25.5617 23.7916 25.7584C23.9883 25.9551 24.0866 26.1773 24.0866 26.4251C24.0866 26.6728 23.9883 26.8951 23.7916 27.0917L18.7241 32.1588C18.5638 32.3191 18.4454 32.5066 18.3687 32.7213C18.2917 32.9363 18.2533 33.1345 18.2533 33.3159C18.2533 33.737 18.383 34.072 18.6424 34.3209C18.9022 34.5698 19.2372 34.6942 19.6474 34.6942ZM19.6474 36.5851C18.7841 36.5851 18.0287 36.2609 17.3812 35.6126C16.734 34.964 16.3942 34.1558 16.362 33.188C15.4176 33.1344 14.6287 32.8042 13.9954 32.1976C13.3617 31.5906 13.0181 30.7883 12.9645 29.7905C11.9776 29.7263 11.1795 29.3838 10.5704 28.763C9.96146 28.1424 9.63563 27.3524 9.59285 26.393C8.62924 26.3397 7.82216 26.0138 7.1716 25.4155C6.52077 24.8172 6.19535 24.0478 6.19535 23.1076C6.19535 22.6676 6.28035 22.2274 6.45035 21.7872C6.62008 21.3472 6.86952 20.9626 7.19869 20.6334L14.3174 13.5309C14.7683 13.0692 15.3248 12.8384 15.987 12.8384C16.6495 12.8384 17.2115 13.0692 17.6729 13.5309L20.2337 16.0917C20.4454 16.3034 20.6884 16.4744 20.9629 16.6047C21.2376 16.7349 21.5159 16.8001 21.7979 16.8001C22.1912 16.8001 22.5529 16.6377 22.8829 16.313C23.2131 15.9883 23.3783 15.624 23.3783 15.2201C23.3783 14.9998 23.3216 14.7749 23.2083 14.5455C23.0949 14.3158 22.9326 14.0898 22.7212 13.8676L16.8749 8.02132C16.4819 7.62799 16.0492 7.33313 15.577 7.13674C15.1048 6.94007 14.6112 6.84174 14.0962 6.84174C13.5812 6.84174 13.0972 6.94007 12.6441 7.13674C12.191 7.33313 11.768 7.62799 11.3749 8.02132L5.57035 13.8255C4.95091 14.4347 4.57591 15.1751 4.44535 16.0467C4.31507 16.9187 4.42938 17.7478 4.78827 18.5342C4.90577 18.7648 4.91646 19.0051 4.82035 19.2551C4.72424 19.5051 4.56619 19.6888 4.34619 19.8063C4.11535 19.9238 3.86799 19.9345 3.6041 19.8384C3.34021 19.7423 3.14952 19.5788 3.03202 19.348C2.54924 18.1408 2.3916 16.9272 2.5591 15.7072C2.72688 14.4872 3.28619 13.4017 4.23702 12.4509L9.99994 6.68799C10.5791 6.10882 11.2229 5.67882 11.9312 5.39798C12.6395 5.11687 13.3751 4.97632 14.1379 4.97632C14.9006 4.97632 15.6292 5.11687 16.3237 5.39798C17.0181 5.67882 17.6548 6.10882 18.2337 6.68799L19.4008 7.85465L20.5674 6.68799C21.1463 6.10882 21.7873 5.67882 22.4904 5.39798C23.1934 5.11687 23.9263 4.97632 24.6891 4.97632C25.4519 4.97632 26.1831 5.11687 26.8829 5.39798C27.5826 5.67882 28.222 6.10882 28.8012 6.68799L35.7308 13.6176C36.3097 14.1965 36.7519 14.8562 37.0574 15.5967C37.363 16.337 37.5158 17.0885 37.5158 17.8513C37.5158 18.6141 37.363 19.3427 37.0574 20.0372C36.7519 20.7316 36.3097 21.3684 35.7308 21.9476L22.1216 35.5563C21.7819 35.9069 21.4016 36.166 20.9808 36.3338C20.5597 36.5013 20.1152 36.5851 19.6474 36.5851Z" fill="#96D200"/>
</g>
</svg>
