<svg width="40" height="41" viewBox="0 0 40 41" fill="none" xmlns="http://www.w3.org/2000/svg">
<mask id="mask0_408_2657" style="mask-type:alpha" maskUnits="userSpaceOnUse" x="0" y="0" width="40" height="41">
<rect y="0.599854" width="40" height="40" fill="#D9D9D9"/>
</mask>
<g mask="url(#mask0_408_2657)">
<path d="M20 36.5616C19.1411 36.5616 18.4039 36.2699 17.7883 35.6866C17.173 35.1032 16.844 34.382 16.8012 33.5228H23.1987C23.156 34.382 22.8269 35.1032 22.2116 35.6866C21.5961 36.2699 20.8589 36.5616 20 36.5616ZM14.6283 30.5391C14.3597 30.5391 14.135 30.4478 13.9541 30.2653C13.7733 30.0828 13.6829 29.8563 13.6829 29.5857C13.6829 29.3152 13.7733 29.0913 13.9541 28.9141C14.135 28.7366 14.3597 28.6478 14.6283 28.6478H25.3716C25.6403 28.6478 25.865 28.7391 26.0458 28.9216C26.2266 29.1041 26.3171 29.3306 26.3171 29.6012C26.3171 29.8717 26.2266 30.0956 26.0458 30.2728C25.865 30.4503 25.6403 30.5391 25.3716 30.5391H14.6283ZM13.795 25.7057C12.1111 24.5755 10.7798 23.1812 9.80123 21.5228C8.82262 19.8648 8.33331 17.9963 8.33331 15.9174C8.33331 12.7313 9.48123 9.99032 11.7771 7.69448C14.0732 5.39865 16.8141 4.25073 20 4.25073C23.1858 4.25073 25.9268 5.39865 28.2229 7.69448C30.5187 9.99032 31.6666 12.7313 31.6666 15.9174C31.6666 17.9963 31.1816 19.8648 30.2116 21.5228C29.2414 23.1812 27.9058 24.5755 26.205 25.7057H13.795ZM14.4712 23.8145H25.545C26.8633 22.9256 27.898 21.7863 28.6491 20.3966C29.4 19.0071 29.7754 17.5141 29.7754 15.9174C29.7754 13.2207 28.8204 10.9173 26.9104 9.00698C25.0001 7.09671 22.6966 6.14157 20 6.14157C17.3033 6.14157 14.9998 7.09671 13.0896 9.00698C11.1796 10.9173 10.2246 13.2205 10.2246 15.9166C10.2246 17.5168 10.6 19.011 11.3508 20.3991C12.1019 21.7871 13.1421 22.9256 14.4712 23.8145Z" fill="#96D200"/>
</g>
</svg>
