<svg width="40" height="41" viewBox="0 0 40 41" fill="none" xmlns="http://www.w3.org/2000/svg">
<mask id="mask0_408_2639" style="mask-type:alpha" maskUnits="userSpaceOnUse" x="0" y="0" width="40" height="41">
<rect y="0.200073" width="40" height="40" fill="#D9D9D9"/>
</mask>
<g mask="url(#mask0_408_2639)">
<path d="M7.10248 23.8763C6.04498 23.8763 5.15234 23.5097 4.42456 22.7763C3.69706 22.043 3.33331 21.1533 3.33331 20.1072C3.33331 19.061 3.69998 18.1713 4.43331 17.438C5.16665 16.7047 6.05637 16.338 7.10248 16.338V11.3734C7.10248 10.7331 7.34317 10.1724 7.82456 9.69132C8.30567 9.20993 8.86637 8.96924 9.50665 8.96924H16.2308C16.2308 7.91174 16.5975 7.0191 17.3308 6.29132C18.0641 5.56382 18.9539 5.20007 20 5.20007C21.0461 5.20007 21.9358 5.56674 22.6691 6.30007C23.4025 7.03341 23.7691 7.92313 23.7691 8.96924H30.4933C31.1336 8.96924 31.6943 9.20993 32.1754 9.69132C32.6568 10.1724 32.8975 10.7331 32.8975 11.3734V16.338C33.955 16.338 34.8476 16.7047 35.5754 17.438C36.3029 18.1713 36.6666 19.061 36.6666 20.1072C36.6666 21.1533 36.3 22.043 35.5666 22.7763C34.8333 23.5097 33.9436 23.8763 32.8975 23.8763V31.963C32.8975 32.603 32.6568 33.1637 32.1754 33.6451C31.6943 34.1262 31.1336 34.3667 30.4933 34.3667H9.50665C8.86637 34.3667 8.30567 34.1262 7.82456 33.6451C7.34317 33.1637 7.10248 32.603 7.10248 31.963V23.8763ZM14.4937 20.3509C14.906 20.3509 15.2532 20.2066 15.5354 19.918C15.8173 19.6294 15.9583 19.279 15.9583 18.8667C15.9583 18.4542 15.814 18.107 15.5254 17.8251C15.2368 17.5431 14.8864 17.4022 14.4741 17.4022C14.0619 17.4022 13.7148 17.5465 13.4329 17.8351C13.1507 18.1234 13.0096 18.4738 13.0096 18.8863C13.0096 19.2985 13.1539 19.6456 13.4425 19.9276C13.7311 20.2098 14.0815 20.3509 14.4937 20.3509ZM25.5258 20.3509C25.938 20.3509 26.2851 20.2066 26.5671 19.918C26.8493 19.6294 26.9904 19.279 26.9904 18.8667C26.9904 18.4542 26.8461 18.107 26.5575 17.8251C26.2689 17.5431 25.9185 17.4022 25.5062 17.4022C25.094 17.4022 24.7468 17.5465 24.4646 17.8351C24.1826 18.1234 24.0416 18.4738 24.0416 18.8863C24.0416 19.2985 24.186 19.6456 24.4746 19.9276C24.7632 20.2098 25.1136 20.3509 25.5258 20.3509ZM14.4583 27.9563H25.5416C25.8094 27.9563 26.034 27.8651 26.2154 27.6826C26.3965 27.4998 26.4871 27.2733 26.4871 27.003C26.4871 26.7433 26.3965 26.5222 26.2154 26.3397C26.034 26.1569 25.8094 26.0655 25.5416 26.0655H14.4583C14.1905 26.0655 13.966 26.1595 13.7846 26.3476C13.6035 26.5354 13.5129 26.7617 13.5129 27.0267C13.5129 27.2917 13.6035 27.513 13.7846 27.6905C13.966 27.8677 14.1905 27.9563 14.4583 27.9563ZM9.50665 32.4755H30.4933C30.6322 32.4755 30.7525 32.4274 30.8541 32.3313C30.9555 32.2352 31.0062 32.1124 31.0062 31.963V11.3734C31.0062 11.2345 30.9555 11.1142 30.8541 11.0126C30.7525 10.9112 30.6322 10.8605 30.4933 10.8605H9.50665C9.36776 10.8605 9.24748 10.9112 9.14581 11.0126C9.04442 11.1142 8.99373 11.2345 8.99373 11.3734V31.963C8.99373 32.1124 9.04442 32.2352 9.14581 32.3313C9.24748 32.4274 9.36776 32.4755 9.50665 32.4755Z" fill="#96D200"/>
</g>
</svg>
