<svg width="32" height="32" viewBox="0 0 32 32" fill="none" xmlns="http://www.w3.org/2000/svg">
<path fill-rule="evenodd" clip-rule="evenodd" d="M12 5.3335C8.31814 5.3335 5.33337 8.31827 5.33337 12.0002V20.0002C5.33337 23.6821 8.31815 26.6668 12 26.6668H20C23.6819 26.6668 26.6667 23.6821 26.6667 20.0002V12.0002C26.6667 8.31827 23.6819 5.3335 20 5.3335H12ZM22 11.3335C22.7364 11.3335 23.3334 10.7365 23.3334 10.0002C23.3334 9.26378 22.7364 8.66683 22 8.66683C21.2637 8.66683 20.6667 9.26378 20.6667 10.0002C20.6667 10.7365 21.2637 11.3335 22 11.3335ZM16 20.6668C18.5774 20.6668 20.6667 18.5775 20.6667 16.0002C20.6667 13.4228 18.5774 11.3335 16 11.3335C13.4227 11.3335 11.3334 13.4228 11.3334 16.0002C11.3334 18.5775 13.4227 20.6668 16 20.6668Z" fill="#333F5B"/>
</svg>
