<svg width="903" height="8" viewBox="0 0 903 8" fill="none" xmlns="http://www.w3.org/2000/svg">
<g clip-path="url(#clip0_408_2573)">
<path d="M-11.0105 1.16707C1.48646 1.21936 4.06953 0.748894 18.2083 0.884844C18.5952 0.94759 15.8766 0.937048 16.8597 0.989336C21.7219 1.03115 19.8819 0.875079 24.2845 0.875079H44.1849C35.6122 1.01099 48.3516 0.989439 48.7444 1.06258L50.6897 0.948321C54.3708 1.01107 48.3577 0.990067 50.4388 1.05281L55.553 0.989336L56.2112 1.17781C62.3499 1.14644 68.4679 1.13603 72.6614 1.00008C91.9244 1.04191 117.117 0.895709 136.558 0.864336C143.721 0.83297 143.292 1.05259 148.343 0.937579C148.166 0.958494 148.448 0.989921 148.396 1.01082C154.974 1.02128 163.309 1.01057 168.684 1.07332C171.015 1.03149 167.251 0.979001 167.325 0.958086C169.447 0.97901 170.901 1.0839 174.865 1.04207C172.313 0.947952 180.668 0.916379 183.973 0.926836C181.651 0.979122 176.716 0.95802 177.573 1.06258C182.383 1.13578 183.659 1.05208 186.576 0.989336L184.704 1.08406C193.761 0.989944 192.643 1.24052 202.358 1.10457C203.046 1.04188 198.499 1.09475 199.231 1.02156C208.872 0.916995 217.207 1.14664 227.957 1.04207C227.372 1.04208 226.212 1.0736 226.702 1.08406H231.994C230.206 1.09452 233.04 1.15747 231.994 1.1993C232.382 1.27245 234.714 1.21981 236.909 1.21981C240.517 1.09432 231.315 1.01107 239.231 0.948321C236.576 1.12605 247.396 1.00005 246.039 1.10457C259.195 1.1464 267.885 0.989461 280.654 0.958086C280.988 1.05221 283.645 1.09444 283.98 1.18856L286.897 1.12606L286.814 1.15731C291.112 1.22004 294.155 1.10482 290.965 1.04207C288.759 1.04207 287.995 1.13659 286.05 1.02156C289.166 1.10521 295.106 0.926656 298.097 1.06258C297.512 1.07303 298.044 1.09442 297.972 1.11531H301.862L301.579 0.989336C316.44 1.02071 333.088 0.989744 344.759 0.968829C350.741 1.02112 360.132 1.0212 361.565 1.11531C369.22 1.14669 378.809 1.07316 383.85 1.03133C386.976 1.11498 398.437 0.947657 397.999 1.13582L402.653 1.03133L402.548 1.08406C406.543 1.03177 404.672 1.11503 408.562 1.10457L408.813 1.00008C412.578 1.05236 420.536 0.957967 427.103 0.989336L427.03 1.01082C429.811 1.01082 430.533 0.93774 433.19 0.979571L433.524 1.07332C451.27 0.822337 468.285 1.11511 487.339 1.00008C497.849 1.23014 505.399 0.843194 515.679 1.17781C519.36 1.21964 521.462 1.03133 516.934 1.03133C549.551 0.97904 585.547 1.13607 618.75 1.07332C643.378 1.1779 675.022 1.12589 690.019 1.33504C690.636 1.29321 688.514 1.26123 687.457 1.24031C692.528 1.1985 690.021 1.33516 690.448 1.37703C693.334 1.3352 697.204 1.32426 699.588 1.25106L697.517 1.1993C714.96 1.30387 733.554 1.15702 748.99 1.39754L749.189 1.3243C760.284 1.30338 765.565 1.649 778.575 1.52352C776.765 1.58625 772.416 1.55441 774.946 1.64852C792.776 1.53348 803.36 1.95145 822.706 2.06648C820.353 2.06648 819.642 2.13989 819.025 2.18172L826.293 2.15047C829.409 2.23412 822.916 2.17133 823.835 2.25496C830.842 2.32817 826.492 2.07755 834.011 2.16121C833.708 2.29716 841.017 2.24467 841.969 2.29695C843.098 2.29695 844.448 2.19193 846.529 2.24422H846.884C846.455 2.25468 844.532 2.28649 845.294 2.29695H856.39C855.67 2.34923 860.604 2.37065 856.076 2.42293C858.963 2.61116 864.62 2.30754 865.802 2.51668L872.076 2.4327C874.115 2.50586 870.961 2.43291 870.801 2.50594H875.789C875.664 2.55823 874.89 2.64237 877.661 2.63191C882.137 2.611 874.618 2.52661 880.6 2.56844C883.36 2.55799 878.09 2.70442 874.89 2.64168L879.104 2.72566H878.006C879.052 2.75704 877.107 2.87215 882.106 2.87215H880.411C886.571 2.97672 888.213 2.74643 890.775 2.68367C891.747 2.73596 893.254 2.77799 895.993 2.79891L896.862 2.65242C896.862 2.72563 901.358 2.61116 900.72 2.67391L897.342 2.69441C902.592 2.80945 895.534 2.98713 900.929 3.04988H900.908C900.145 3.13354 898.325 2.97652 894.362 3.00789C896.223 3.11247 891.705 3.16475 889.656 3.25887C889.554 3.2589 889.452 3.26815 889.35 3.26863C889.348 3.26863 889.345 3.26863 889.343 3.26863L889.342 3.26961C834.145 4.273 608.087 3.82381 607.843 3.82332C607.843 3.82332 600.221 3.64586 598.735 3.76082C599.033 3.67725 595.145 3.63553 591.162 3.62508C587.408 3.72964 583.571 3.66695 579.555 3.69832C579.816 3.68786 579.963 3.67753 579.994 3.66707C576.313 3.59387 572.109 3.72973 568.146 3.77156L563.993 3.65633C560.103 3.65633 555.115 3.65694 552.72 3.75106C535.664 3.70922 514.215 3.66715 500.61 3.81356C497.723 3.62534 485.949 3.69803 480.458 3.68758L480.103 3.59383L475.961 3.70906C476.672 3.64632 471.746 3.62463 469.665 3.57234L468.945 3.64559C469.324 3.55181 462.576 3.76089 463.621 3.55184C454.23 3.67733 449.148 3.71887 439.778 3.79207C440.363 3.77116 440.667 3.75048 441.21 3.72957C432.823 3.87597 435.73 3.45751 426.737 3.68758H426.81V3.69832H426.235C426.406 3.68822 426.539 3.68759 426.708 3.68758C412.672 3.78138 397.489 3.68818 386.109 3.60457C383.913 3.60457 382.146 3.63541 379.887 3.65633L387.427 3.75106L377.063 3.69832L378.213 3.66707C367.777 3.64616 356.514 3.72973 347.562 3.77156C327.525 3.60424 303.389 3.74048 285.119 3.53133L282.976 3.72957C282.024 3.67728 282.766 3.58333 279.598 3.52059C276.22 3.5415 275.404 3.66654 275.268 3.71883L271.127 3.60457C270.081 3.80327 259.236 3.4783 256.465 3.71883C255.565 3.63518 248.487 3.58344 246.113 3.66707C244.471 3.64616 247.576 3.50972 242.525 3.54109C243.246 3.69796 240.664 3.6254 237.16 3.70906C233.249 3.70906 231.429 3.55171 227.487 3.58309L229.223 3.55184C227.686 3.51001 221.526 3.54183 218.609 3.60457C217.385 3.6464 221.725 3.68774 219.404 3.72957C217.919 3.66683 214.729 3.60453 218.2 3.53133C215.544 3.4895 210.431 3.55147 210.755 3.64559L213.421 3.68758L196.366 3.64559C199.742 3.62467 195.392 3.59367 194.932 3.55184C193.007 3.66685 186.827 3.6982 185.677 3.72957L183.199 3.60457L182.383 3.65633H182.363C182.289 3.63541 181.818 3.62479 181.515 3.61434L176.84 3.71883C175.334 3.64563 171.11 3.56195 168.151 3.64559L170.754 3.71883C168.704 3.71883 165.452 3.62512 163.026 3.69832C163.13 3.67741 162.796 3.65645 163.236 3.62508C152.946 3.57327 142.984 3.6135 133.545 3.66512C128.187 3.62969 123.098 3.74125 119.732 3.78231C109.222 3.78231 92.1857 3.75061 79.0091 3.69832L76.5726 3.80281L76.2171 3.70906C63.9922 3.75089 51.2547 3.52087 40.1487 3.53133L40.5042 3.62508C35.746 3.5205 35.3167 3.70911 34.0618 3.53133C26.2292 3.57316 20.0697 3.60461 12.1849 3.67781C12.4147 3.57324 7.37398 3.60441 4.70732 3.56258C-0.019721 3.78171 -1.67514 3.54201 -7.27217 3.6241C-8.7655 3.61617 -9.94912 3.6259 -11.0105 3.63582V1.16707ZM439.778 3.79207C439.244 3.81298 438.481 3.81356 437.017 3.81356C437.989 3.8031 438.868 3.79207 439.778 3.79207ZM598.723 3.76082C598.702 3.77123 598.639 3.78166 598.493 3.79207C598.493 3.79207 598.598 3.77126 598.723 3.76082ZM182.363 3.65633C182.414 3.66681 182.34 3.68758 181.902 3.68758L182.363 3.65633ZM133.849 3.66707H133.284C133.371 3.66659 133.458 3.66559 133.545 3.66512C133.646 3.66579 133.748 3.6663 133.849 3.66707ZM-7.02608 3.62508H-7.3083C-7.29624 3.6249 -7.2842 3.62428 -7.27217 3.6241C-7.19107 3.62453 -7.10904 3.62454 -7.02608 3.62508ZM895.188 3.17586C896.244 3.15494 897.332 3.12313 898.534 3.12313L895.188 3.17586ZM891.609 2.65828C891.316 2.66439 891.03 2.6739 890.754 2.67391C890.576 2.66345 890.377 2.65214 890.231 2.64168L891.609 2.65828ZM891.978 2.66316L891.609 2.65828C891.727 2.65581 891.847 2.65242 891.967 2.65242L891.978 2.66316Z" fill="#EF2F7E"/>
<path d="M-8.91891 4.30437C3.56746 4.35665 6.15055 3.8862 20.2891 4.02214C20.676 4.08489 17.9574 4.07434 18.9405 4.12663C23.8031 4.16846 21.9626 4.01237 26.3653 4.01237H46.2666C37.6913 4.14832 50.4393 4.12667 50.8262 4.19987L52.7705 4.08562C56.4515 4.14836 50.4394 4.12737 52.5196 4.19011L57.6338 4.12663L58.292 4.31511C64.4306 4.28374 70.5487 4.27332 74.7422 4.13737C94.0052 4.17921 119.198 4.03301 138.639 4.00163C145.802 3.97026 145.374 4.18991 150.425 4.07487C150.247 4.09579 150.529 4.1272 150.477 4.14812C157.054 4.15857 165.389 4.14787 170.765 4.21062C173.097 4.16879 169.332 4.1163 169.405 4.09538C171.528 4.1163 172.982 4.2212 176.945 4.17937C174.394 4.08525 182.749 4.05368 186.054 4.06413C183.732 4.11641 178.798 4.09535 179.653 4.19987C184.464 4.27308 185.741 4.18938 188.658 4.12663L186.786 4.22136C195.842 4.12725 194.723 4.37782 204.439 4.24187C205.128 4.17914 200.58 4.23205 201.312 4.15886C210.954 4.05428 219.289 4.28394 230.039 4.17937C229.453 4.17937 228.293 4.2109 228.784 4.22136H234.075C232.287 4.23182 235.121 4.29476 234.075 4.33659C234.462 4.40979 236.794 4.35711 238.99 4.3571C242.598 4.23161 233.396 4.14836 241.313 4.08562C238.656 4.26339 249.479 4.13731 248.12 4.24187C261.276 4.2837 269.967 4.12676 282.735 4.09538C283.071 4.18944 285.726 4.23176 286.061 4.32585L288.979 4.26335L288.895 4.2946C293.193 4.35734 296.236 4.24211 293.046 4.17937C290.84 4.17937 290.076 4.27389 288.131 4.15886C291.247 4.24252 297.188 4.06393 300.179 4.19987C299.593 4.21033 300.126 4.23169 300.053 4.25261H303.943L303.661 4.12663C318.521 4.158 335.17 4.12704 346.841 4.10612C352.822 4.15841 362.212 4.15852 363.646 4.25261C371.3 4.28398 380.89 4.21046 385.931 4.16862C389.058 4.25229 400.519 4.08488 400.08 4.27312L404.734 4.16862L404.63 4.22136C408.624 4.16908 406.753 4.25232 410.643 4.24187L410.894 4.13737C414.658 4.18966 422.616 4.09527 429.184 4.12663L429.111 4.14812C431.893 4.14811 432.614 4.07504 435.271 4.11687L435.605 4.21062C453.352 3.95964 470.366 4.2524 489.42 4.13737C499.93 4.36744 507.481 3.98046 517.761 4.31511C521.442 4.35693 523.543 4.16863 519.016 4.16862C551.633 4.11634 587.628 4.27336 620.831 4.21062C645.459 4.31519 677.104 4.26318 692.101 4.47234C692.717 4.43052 690.594 4.39852 689.538 4.37761C694.61 4.33578 692.101 4.4725 692.529 4.51433C695.416 4.4725 699.285 4.46155 701.669 4.38835L699.599 4.33659C717.042 4.44117 735.636 4.29431 751.071 4.53484L751.27 4.46159C762.365 4.44068 767.647 4.7863 780.656 4.66081C778.847 4.72356 774.497 4.69169 777.027 4.78581C794.857 4.67079 805.441 5.08875 824.787 5.20378C822.435 5.20378 821.723 5.27718 821.106 5.31902L828.374 5.28777C831.49 5.37143 824.997 5.3086 825.917 5.39226C832.923 5.46544 828.573 5.21485 836.092 5.29851C835.791 5.43437 843.097 5.382 844.05 5.43425C845.179 5.43425 846.528 5.32924 848.609 5.38152H848.965C848.535 5.39198 846.613 5.4238 847.376 5.43425H858.472C857.75 5.48654 862.685 5.50794 858.157 5.56023C861.043 5.74845 866.7 5.44492 867.883 5.65398L874.158 5.56999C876.197 5.64317 873.039 5.57004 872.882 5.64323H877.87C877.745 5.69552 876.971 5.77967 879.742 5.76921C884.218 5.7483 876.699 5.66391 882.681 5.70573C885.441 5.69528 880.171 5.84172 876.971 5.77898L881.186 5.86296H880.087C881.133 5.89433 879.188 6.00944 884.187 6.00945H882.492C888.652 6.11402 890.294 5.88371 892.856 5.82097C893.829 5.87325 895.335 5.91529 898.074 5.9362L898.942 5.78972C898.942 5.86291 903.437 5.74855 902.802 5.8112L899.424 5.83171C904.673 5.94675 897.615 6.12443 903.011 6.18718H903C902.237 6.27084 900.417 6.11381 896.453 6.14519C898.315 6.24976 893.797 6.30204 891.747 6.39616C891.645 6.39619 891.543 6.40545 891.441 6.40593C891.439 6.40593 891.437 6.40593 891.435 6.40593L891.434 6.40691C836.236 7.41029 610.181 6.96111 609.935 6.96062C609.935 6.96062 602.312 6.78316 600.826 6.89812C601.125 6.81454 597.236 6.77283 593.254 6.76237C589.5 6.86693 585.662 6.80425 581.647 6.83562C581.908 6.82516 582.055 6.81482 582.086 6.80437C578.405 6.73116 574.201 6.86703 570.237 6.90886L566.085 6.79362C562.195 6.79362 557.206 6.79424 554.812 6.88835C537.755 6.84652 516.306 6.80445 502.701 6.95085C499.814 6.76264 488.04 6.83533 482.55 6.82487L482.194 6.73112L478.053 6.84636C478.764 6.78361 473.838 6.76193 471.757 6.70964L471.035 6.78288C471.422 6.68876 464.667 6.89829 465.713 6.68913C456.322 6.81462 451.239 6.85616 441.869 6.92937C442.455 6.90845 442.758 6.88778 443.302 6.86687C434.915 7.01327 437.822 6.59481 428.828 6.82487H428.901V6.83562H428.326C428.498 6.82552 428.631 6.82489 428.8 6.82487C414.763 6.91867 399.581 6.82547 388.2 6.74187C386.004 6.74187 384.237 6.77271 381.979 6.79362L389.519 6.88835L379.154 6.83562L380.305 6.80437C369.868 6.78345 358.605 6.86703 349.653 6.90886C329.617 6.74154 305.48 6.87777 287.211 6.66862L285.067 6.86687C284.116 6.81458 284.858 6.72063 281.689 6.65788C278.312 6.6788 277.495 6.80384 277.359 6.85612L273.219 6.74187C272.173 6.94056 261.328 6.6156 258.557 6.85612C257.657 6.77248 250.578 6.72073 248.204 6.80437C246.562 6.78345 249.667 6.64702 244.616 6.67839C245.338 6.83525 242.755 6.7627 239.252 6.84636C235.341 6.84636 233.521 6.68901 229.578 6.72038L231.314 6.68913C229.777 6.64731 223.618 6.67912 220.7 6.74187C219.477 6.7837 223.816 6.82504 221.495 6.86687C220.01 6.80412 216.82 6.74183 220.292 6.66862C217.636 6.6268 212.523 6.68877 212.847 6.78288L215.513 6.82487L198.457 6.78288C201.834 6.76197 197.484 6.73096 197.023 6.68913C195.099 6.80415 188.919 6.8355 187.769 6.86687L185.29 6.74187L184.475 6.79362H184.454C184.381 6.77271 183.91 6.76209 183.606 6.75163L178.932 6.85612C177.425 6.78293 173.201 6.69925 170.242 6.78288L172.846 6.85612C170.796 6.85612 167.543 6.76241 165.117 6.83562C165.222 6.8147 164.888 6.79375 165.327 6.76237C155.038 6.71056 145.076 6.7508 135.637 6.80241C130.279 6.76699 125.19 6.87854 121.823 6.9196C111.313 6.9196 94.2773 6.88791 81.1006 6.83562L78.6641 6.94011L78.3086 6.84636C66.0837 6.88819 53.3462 6.65817 42.2403 6.66862L42.5957 6.76237C37.8375 6.6578 37.4083 6.84641 36.1534 6.66862C28.3208 6.71045 22.1613 6.74191 14.2764 6.81511C14.5062 6.71054 9.4655 6.7417 6.79886 6.69987C2.07181 6.919 0.416399 6.67931 -5.18063 6.7614C-6.67396 6.75347 -7.85759 6.7632 -8.91891 6.77312V4.30437ZM441.869 6.92937C441.336 6.95028 440.572 6.95085 439.108 6.95085C440.081 6.94039 440.959 6.92937 441.869 6.92937ZM600.814 6.89812C600.793 6.90853 600.731 6.91896 600.585 6.92937C600.585 6.92937 600.689 6.90856 600.814 6.89812ZM184.454 6.79362C184.506 6.8041 184.432 6.82487 183.993 6.82487L184.454 6.79362ZM135.94 6.80437H135.376C135.463 6.80389 135.55 6.80289 135.637 6.80241C135.738 6.80308 135.839 6.80359 135.94 6.80437ZM-4.93454 6.76237H-5.21677C-5.2047 6.7622 -5.19266 6.76157 -5.18063 6.7614C-5.09953 6.76183 -5.0175 6.76184 -4.93454 6.76237ZM897.279 6.31316C898.336 6.29224 899.423 6.26042 900.626 6.26042L897.279 6.31316ZM893.7 5.79558C893.407 5.80168 893.121 5.8112 892.846 5.8112C892.668 5.80075 892.469 5.78943 892.322 5.77898L893.7 5.79558ZM894.069 5.80046L893.7 5.79558C893.819 5.79311 893.938 5.78972 894.059 5.78972L894.069 5.80046Z" fill="#324CAD"/>
</g>
<defs>
<clipPath id="clip0_408_2573">
<rect width="914" height="6.2014" fill="white" transform="translate(-11 0.864319)"/>
</clipPath>
</defs>
</svg>
