<svg width="220" height="37" viewBox="0 0 220 37" fill="none" xmlns="http://www.w3.org/2000/svg">
<g clip-path="url(#clip0_408_4034)">
<path d="M89.755 30.1014H82.7977L88.1253 5.07938H95.0826L89.755 30.1014ZM81.9202 12.4167H74.9629C75.2136 11.476 75.0256 10.7235 74.5242 10.2218C74.0228 9.72006 73.2079 9.4065 72.0171 9.4065C70.4501 9.4065 68.8205 10.4726 68.5698 11.6641C68.1937 13.4828 70.2621 14.1099 72.0171 14.5489C75.9658 15.615 81.9829 16.054 80.5413 22.8268C79.4131 28.0946 73.7094 30.6031 67.8803 30.6031C63.6182 30.6031 59.8575 29.6624 58.7293 26.4641C58.3532 25.3353 58.2279 23.8929 58.604 22.0743H58.7293H65.5612C65.0598 24.4573 66.5014 25.7116 69.0085 25.7116C70.6381 25.7116 72.8319 24.8963 73.1453 23.2031C73.8974 19.8167 68.5698 20.5065 63.6809 18.1235C61.3618 16.9946 60.6096 14.737 61.1738 12.0404C62.7407 6.08277 68.2564 4.51498 73.4586 4.51498C78.6609 4.51498 83.6125 6.39633 81.9202 12.4167ZM56.0342 15.0506L55.0313 19.8794H43.8746L42.7464 25.2099H54.8433L53.8404 30.0387H34.7863L40.1139 5.01667H58.792H59.1681L58.792 6.64718L58.1025 9.84549H46.0057L44.8775 15.0506H56.0342ZM33.7834 12.4167H26.8889C27.1396 11.476 26.9515 10.7235 26.4501 10.2218C25.9487 9.72006 25.1339 9.4065 23.943 9.4065C22.376 9.4065 20.7464 10.4726 20.4957 11.6641C20.1196 13.4828 22.188 14.1099 23.943 14.5489C27.8917 15.6777 33.8461 16.054 32.4672 22.8268C31.339 28.0946 25.6353 30.6031 19.8062 30.6031C13.9772 30.6031 9.21364 28.9099 10.5299 22.0743H17.4871C16.9857 24.4573 18.4273 25.7116 20.9344 25.7116C22.5641 25.7116 24.7578 24.8963 25.0712 23.2031C25.8233 19.8167 20.4957 20.5065 15.6068 18.1235C13.2877 16.9946 12.5356 14.737 13.0997 12.0404C14.604 6.08277 20.1823 4.51498 25.3846 4.51498C30.5869 4.51498 35.4757 6.39633 33.7834 12.4167ZM97.6524 6.02006V5.07938H104.735V-0.0629883H0.313354V5.07938H7.39598V6.02006H0.313354V11.037H7.39598V11.915H0.313354V17.0574H7.39598V17.998H0.313354V23.2031H7.39598V24.1438H0.313354V29.1607H7.39598V30.1014H0.313354V35.1811H104.798V30.1014H97.7151V29.1607H104.798V24.1438H97.7151V23.2031H104.798V17.998H97.7151V17.0574H104.798V11.915H97.7151V10.9743H104.798V5.95735H97.6524V6.02006Z" fill="white"/>
<path d="M117.772 1.63037V3.51173H113.385V5.33037H117.459V7.21173H113.385V9.03037H117.772V10.7863H110.815V1.63037H117.772Z" fill="white"/>
<path d="M121.533 7.83863V7.96406C121.533 8.02677 121.533 8.02677 121.533 8.08948V8.15219V8.2149V8.27762V8.34033C121.533 8.46575 121.595 8.52846 121.658 8.65389C121.721 8.7166 121.783 8.84202 121.909 8.90474C122.034 8.96745 122.159 9.03016 122.285 9.09287C122.473 9.15558 122.661 9.15558 122.849 9.15558C123.1 9.15558 123.288 9.15558 123.476 9.09287C123.664 9.03016 123.789 8.96745 123.914 8.90474C124.04 8.84202 124.103 8.7166 124.165 8.59118C124.228 8.46575 124.291 8.40304 124.291 8.27762C124.228 8.2149 124.228 8.08948 124.103 8.02677C124.04 7.96406 123.914 7.83863 123.789 7.77592C123.664 7.71321 123.538 7.58779 123.35 7.52507C123.162 7.46236 122.974 7.39965 122.786 7.33694C122.097 7.21151 121.533 7.02338 121.094 6.83524C120.655 6.64711 120.279 6.45897 120.028 6.27084C119.778 6.0827 119.59 5.83185 119.464 5.51829C119.339 5.20473 119.276 4.89118 119.214 4.5149V4.45219C119.214 4.01321 119.276 3.63694 119.464 3.26067C119.652 2.94711 119.966 2.63355 120.342 2.3827C120.718 2.13185 121.157 2.00643 121.595 1.88101C122.034 1.75558 122.536 1.69287 123.1 1.69287C123.852 1.69287 124.479 1.81829 124.98 1.94372C125.481 2.06914 125.858 2.31999 126.046 2.57084C126.296 2.82168 126.484 3.13524 126.61 3.4488C126.735 3.76236 126.798 4.13863 126.798 4.57762H124.228C124.228 4.45219 124.228 4.32677 124.165 4.20135C124.103 4.07592 124.04 3.9505 123.914 3.88779C123.789 3.76236 123.664 3.69965 123.538 3.69965C123.413 3.63694 123.225 3.63694 123.037 3.63694C122.849 3.63694 122.724 3.63694 122.598 3.69965C122.473 3.76236 122.348 3.82507 122.285 3.88779C122.222 3.9505 122.159 4.07592 122.097 4.13863C122.034 4.20135 122.034 4.32677 122.034 4.45219C122.034 4.5149 122.097 4.64033 122.159 4.70304C122.222 4.76575 122.285 4.89118 122.348 4.95389C122.41 5.0166 122.536 5.07931 122.661 5.14202C122.786 5.20474 122.912 5.20473 123.1 5.26745C123.162 5.26745 123.288 5.33016 123.413 5.33016C123.538 5.33016 123.601 5.39287 123.726 5.39287C123.852 5.39287 123.914 5.45558 124.04 5.45558C124.165 5.45558 124.228 5.51829 124.353 5.51829C124.729 5.58101 125.043 5.70643 125.356 5.83185C125.669 5.95728 125.983 6.14541 126.296 6.33355C126.61 6.52168 126.798 6.77253 126.986 7.08609C127.111 7.39965 127.236 7.77592 127.236 8.15219C127.236 8.7166 127.111 9.15558 126.923 9.59456C126.735 9.97084 126.422 10.2844 126.046 10.5352C125.669 10.7861 125.231 10.9742 124.792 11.0369C124.353 11.1624 123.789 11.2251 123.288 11.2251C122.598 11.2251 122.034 11.1624 121.533 11.0369C121.031 10.9115 120.593 10.7234 120.279 10.4725C119.966 10.2217 119.715 9.84541 119.527 9.46914C119.339 9.09287 119.276 8.59118 119.214 8.08948H121.533V7.83863Z" fill="white"/>
<path d="M134.256 4.07579C134.194 3.95037 134.068 3.76223 133.943 3.63681C133.818 3.51139 133.63 3.38596 133.442 3.32325C133.253 3.26054 133.003 3.19783 132.752 3.19783C132.376 3.19783 132.063 3.26054 131.812 3.38596C131.561 3.51139 131.373 3.76223 131.31 4.01308C131.185 4.32664 131.122 4.57749 131.06 4.89105C130.997 5.20461 130.997 5.51817 130.934 5.89444V5.95715V6.01986V6.08257V6.27071V6.33342V6.39613V6.45884C130.934 6.89783 130.997 7.2741 131.06 7.58766C131.122 7.90122 131.248 8.21478 131.373 8.46562C131.499 8.71647 131.687 8.90461 131.875 9.03003C132.125 9.15546 132.376 9.21817 132.689 9.21817C132.94 9.21817 133.191 9.15545 133.379 9.09274C133.567 9.03003 133.755 8.90461 133.88 8.77918C134.006 8.65376 134.131 8.46562 134.194 8.3402C134.256 8.15206 134.319 8.02664 134.319 7.83851H137.014C137.014 7.90122 137.014 7.96393 137.014 8.02664C137.014 8.08935 137.014 8.15206 137.014 8.21478C137.014 8.27749 137.014 8.3402 136.952 8.40291C136.952 8.46562 136.889 8.52834 136.889 8.59105C136.826 8.90461 136.638 9.15545 136.45 9.46901C136.262 9.71986 136.011 10.0334 135.698 10.2216C135.385 10.4724 135.008 10.6605 134.507 10.786C134.068 10.9114 133.504 10.9741 132.877 10.9741C132.063 10.9741 131.31 10.8487 130.684 10.6605C130.057 10.4724 129.618 10.1588 129.242 9.71986C128.866 9.34359 128.615 8.8419 128.427 8.27749C128.239 7.71308 128.114 7.14867 128.114 6.45884V6.39613V6.33342V6.27071C128.114 5.39274 128.177 4.6402 128.427 4.01308C128.615 3.38596 128.929 2.88427 129.367 2.508C129.806 2.13173 130.245 1.88088 130.809 1.69274C131.373 1.50461 132 1.44189 132.689 1.44189C133.442 1.44189 134.131 1.50461 134.695 1.63003C135.259 1.75545 135.698 2.0063 136.011 2.25715C136.325 2.57071 136.575 2.88427 136.763 3.26054C136.951 3.63681 137.014 4.01308 137.014 4.51478H134.319C134.382 4.38935 134.382 4.20122 134.256 4.07579Z" fill="white"/>
<path d="M140.838 7.33721C140.9 7.65077 141.088 8.02704 141.214 8.3406C141.402 8.65416 141.59 8.905 141.903 9.03043C142.154 9.21856 142.53 9.28127 142.906 9.28127C143.219 9.28127 143.533 9.21856 143.783 9.09314C144.034 8.96772 144.222 8.77958 144.41 8.52873C144.598 8.27788 144.724 7.96433 144.786 7.58805C144.849 7.21178 144.912 6.7728 144.912 6.27111C144.912 5.89483 144.849 5.51856 144.786 5.14229C144.724 4.76602 144.598 4.45246 144.41 4.20162C144.222 3.88806 144.034 3.69992 143.783 3.51178C143.533 3.38636 143.219 3.26094 142.843 3.26094C142.467 3.26094 142.154 3.32365 141.903 3.51178C141.652 3.69992 141.464 3.88806 141.276 4.20162C141.151 4.51517 141.026 4.82873 140.9 5.205C140.838 5.51856 140.775 5.89483 140.712 6.27111C140.712 6.64738 140.712 6.96094 140.838 7.33721ZM138.268 4.57789C138.769 3.38636 139.333 2.25755 140.65 1.81856C141.84 1.37958 143.282 1.37958 144.473 1.69314C145.288 1.88128 146.102 2.32026 146.604 2.94738C147.356 3.82534 147.544 5.01687 147.544 6.14568C147.544 7.71348 147.043 9.34399 145.789 10.2847C144.849 10.9745 143.595 11.0999 142.467 11.0372C141.527 10.9745 140.587 10.8491 139.835 10.3474C139.02 9.84568 138.456 8.96772 138.205 8.08975C137.892 6.89823 137.954 5.64399 138.268 4.57789Z" fill="white"/>
<path d="M151.43 1.63037V8.90495H155.567V10.7863H148.86V1.63037H151.43Z" fill="white"/>
<path d="M160.895 3.51173L159.704 7.21173H162.023L160.895 3.51173ZM162.587 1.63037L166.16 10.7863H163.276L162.65 9.09308H159.077L158.513 10.7863H155.818L159.516 1.63037H162.587Z" fill="white"/>
<path d="M114.764 22.0741C115.202 22.0741 115.578 22.0114 115.829 21.886C116.142 21.7605 116.393 21.5724 116.581 21.3216C116.769 21.0707 116.957 20.8199 117.083 20.5063C117.208 20.2555 117.271 19.9419 117.271 19.6283C117.271 19.6283 117.271 19.6283 117.271 19.5656V19.5029V19.4402V19.3775V19.3148V19.2521V19.1894C117.271 19.1266 117.271 19.1266 117.271 19.0639C117.271 19.0012 117.271 19.0012 117.271 18.9385C117.208 18.625 117.145 18.3741 117.02 18.0605C116.895 17.8097 116.707 17.5588 116.519 17.308C116.268 17.0572 116.08 16.869 115.766 16.7436C115.516 16.6182 115.202 16.5555 114.826 16.5555H113.447V22.0114H114.764V22.0741ZM114.764 14.7368C115.829 14.7368 116.707 14.8622 117.396 15.1131C118.085 15.3639 118.65 15.6775 118.963 16.1792C119.339 16.6182 119.59 17.1199 119.778 17.6843C119.966 18.2487 120.029 18.8131 120.091 19.3775V19.4402V19.5029V19.5656V19.6283V19.6911V19.7538C120.091 20.5063 119.966 21.1334 119.715 21.6351C119.464 22.1368 119.151 22.5758 118.712 22.9521C118.274 23.2656 117.835 23.5165 117.333 23.7046C116.832 23.8927 116.331 23.9555 115.829 23.9555H110.94V14.7368H114.764Z" fill="white"/>
<path d="M128.302 14.7368V16.6182H123.977V18.4368H128.051V20.3182H123.977V22.0741H128.302V23.8927H121.345V14.7368H128.302Z" fill="white"/>
<path d="M136.513 18.625H137.516H137.578H137.641H137.704H137.766C137.892 18.625 138.08 18.5622 138.205 18.5622C138.33 18.4995 138.456 18.4995 138.644 18.4368C138.769 18.3741 138.895 18.2487 138.957 18.1233C139.02 17.9978 139.083 17.8097 139.083 17.6216C139.083 17.4334 139.02 17.308 138.957 17.1826C138.895 17.0572 138.769 16.9317 138.644 16.869C138.519 16.8063 138.33 16.7436 138.205 16.6809C138.017 16.6182 137.829 16.6182 137.641 16.6182H136.575V18.625H136.513ZM138.017 14.7368H138.142H138.205H138.268C138.707 14.7368 139.083 14.7995 139.521 14.8622C139.897 14.925 140.273 15.0504 140.65 15.2385C141.026 15.4266 141.276 15.6148 141.464 15.9283C141.652 16.2419 141.715 16.6182 141.715 17.1199C141.715 17.4961 141.652 17.8097 141.527 18.0605C141.402 18.3114 141.276 18.5622 141.026 18.7504C140.838 18.9385 140.587 19.0639 140.336 19.1894C140.085 19.3148 139.772 19.3775 139.521 19.4402C139.96 19.4402 140.336 19.5656 140.587 19.6911C140.838 19.8165 141.088 20.0673 141.151 20.3809C141.276 20.6944 141.339 20.9453 141.402 21.2589C141.464 21.5724 141.527 21.886 141.59 22.2622C141.59 22.3877 141.652 22.5131 141.652 22.7012C141.652 22.8266 141.652 22.9521 141.715 23.1402C141.715 23.2656 141.778 23.3911 141.778 23.5165C141.84 23.6419 141.84 23.7673 141.903 23.8927H139.145C139.083 23.83 139.083 23.7673 139.083 23.6419C139.083 23.5792 139.02 23.4538 139.02 23.3283C139.02 23.2029 139.02 23.0775 139.02 23.0148C139.02 22.8894 139.02 22.7639 139.02 22.6385V22.5758V22.5131V22.4504C139.02 22.1995 138.957 21.9487 138.957 21.7605C138.895 21.5097 138.832 21.3216 138.769 21.1334C138.707 20.9453 138.581 20.7572 138.456 20.6944C138.268 20.569 138.08 20.569 137.829 20.569H136.638V24.0809H134.068V14.7368H138.017Z" fill="white"/>
<path d="M150.114 14.7368V16.6182H145.789V18.4368H149.863V20.3182H145.789V22.0741H150.114V23.8927H143.157V14.7368H150.114Z" fill="white"/>
<path d="M158.137 14.7368V16.6182H154.251V18.7504H157.823V20.5063H154.251V23.8927H151.618V14.7368H158.137Z" fill="white"/>
<path d="M166.348 14.7368V16.6182H162.023V18.4368H166.097V20.3182H162.023V22.0741H166.348V23.8927H159.39V14.7368H166.348Z" fill="white"/>
<path d="M170.359 18.625H171.362H171.425H171.487H171.55H171.613C171.738 18.625 171.926 18.5622 172.051 18.5622C172.177 18.4995 172.302 18.4995 172.49 18.4368C172.615 18.3741 172.741 18.2487 172.803 18.1233C172.866 17.9978 172.929 17.8097 172.929 17.6216C172.929 17.4334 172.866 17.308 172.803 17.1826C172.741 17.0572 172.615 16.9317 172.49 16.869C172.365 16.8063 172.177 16.7436 172.051 16.6809C171.863 16.6182 171.675 16.6182 171.487 16.6182H170.422V18.625H170.359ZM171.863 14.7368H171.989H172.051H172.114C172.553 14.7368 172.929 14.7995 173.368 14.8622C173.744 14.925 174.12 15.0504 174.496 15.2385C174.872 15.4266 175.123 15.6148 175.311 15.9283C175.499 16.2419 175.561 16.6182 175.561 17.1199C175.561 17.4961 175.499 17.8097 175.373 18.0605C175.248 18.3114 175.123 18.5622 174.872 18.7504C174.684 18.9385 174.433 19.0639 174.182 19.1894C173.932 19.3148 173.618 19.3775 173.368 19.4402C173.806 19.4402 174.182 19.5656 174.433 19.6911C174.684 19.8165 174.935 20.0673 174.997 20.3809C175.123 20.6944 175.185 20.9453 175.248 21.2589C175.311 21.5724 175.373 21.886 175.436 22.2622C175.436 22.3877 175.499 22.5131 175.499 22.7012C175.499 22.8266 175.499 22.9521 175.561 23.1402C175.561 23.2656 175.624 23.3911 175.624 23.5165C175.687 23.6419 175.687 23.7673 175.749 23.8927H172.991C172.929 23.83 172.929 23.7673 172.929 23.6419C172.929 23.5792 172.866 23.4538 172.866 23.3283C172.866 23.2029 172.866 23.0775 172.866 23.0148C172.866 22.8894 172.866 22.7639 172.866 22.6385V22.5758V22.5131V22.4504C172.866 22.1995 172.803 21.9487 172.803 21.7605C172.741 21.5097 172.678 21.3216 172.615 21.1334C172.553 20.9453 172.427 20.7572 172.302 20.6944C172.114 20.569 171.926 20.569 171.675 20.569H170.484V24.0809H167.915V14.7368H171.863Z" fill="white"/>
<path d="M181.39 12.0405L182.894 13.9219H181.202L180.325 12.9185L179.447 13.9219H177.755L179.259 12.0405H181.39ZM184.023 14.7371V16.6185H179.635V18.4371H183.709V20.3185H179.635V22.0744H184.023V23.8931H177.065V14.7371H184.023Z" fill="white"/>
<path d="M189.1 14.7368L192.171 21.5097V14.7368H194.49V23.8927H190.855L187.784 16.9944V23.8927H185.527V14.7368H189.1Z" fill="white"/>
<path d="M201.949 17.1827C201.886 17.0573 201.761 16.8692 201.635 16.7437C201.51 16.6183 201.322 16.4929 201.134 16.4302C200.946 16.3675 200.695 16.3048 200.444 16.3048C200.068 16.3048 199.755 16.3675 199.504 16.4929C199.254 16.6183 199.066 16.8692 199.003 17.12C198.878 17.4336 198.815 17.6844 198.752 17.998C198.689 18.3115 198.689 18.6251 198.627 19.0014V19.0641V19.1268V19.1895V19.2522V19.3149V19.4404V19.5031V19.5658C198.627 20.0048 198.689 20.381 198.752 20.6946C198.815 21.0081 198.94 21.3217 199.066 21.5726C199.191 21.8234 199.379 22.0115 199.567 22.137C199.818 22.2624 200.068 22.3251 200.382 22.3251C200.632 22.3251 200.883 22.2624 201.071 22.1997C201.259 22.137 201.447 22.0115 201.573 21.8861C201.698 21.7607 201.823 21.5726 201.886 21.4471C201.949 21.259 202.011 21.1336 202.011 20.9454H204.707C204.707 21.0082 204.707 21.0709 204.707 21.1336C204.707 21.1963 204.707 21.259 204.707 21.3217C204.707 21.3844 204.707 21.4471 204.644 21.5098C204.644 21.5726 204.581 21.6353 204.581 21.698C204.519 22.0115 204.331 22.2624 204.142 22.5759C203.954 22.8268 203.704 23.1404 203.39 23.3285C203.077 23.5793 202.701 23.7675 202.199 23.8929C201.761 24.0183 201.197 24.081 200.57 24.081C199.755 24.081 199.003 23.9556 198.376 23.7675C197.749 23.5793 197.311 23.2658 196.934 22.8268C196.558 22.4505 196.308 21.9488 196.12 21.3844C195.932 20.82 195.806 20.2556 195.806 19.5658V19.5031V19.4404V19.3776C195.806 18.4997 195.869 17.7471 196.12 17.12C196.308 16.4929 196.621 15.9912 197.06 15.6149C197.499 15.2387 197.937 14.9878 198.501 14.7997C199.066 14.6115 199.692 14.5488 200.382 14.5488C201.134 14.5488 201.823 14.6115 202.387 14.737C202.952 14.8624 203.39 15.1132 203.704 15.3641C204.017 15.6776 204.268 15.9912 204.456 16.3675C204.644 16.7437 204.707 17.12 204.707 17.6217H202.011C202.011 17.4336 202.011 17.3082 201.949 17.1827Z" fill="white"/>
<path d="M208.53 14.7368H205.96V23.8927H208.53V14.7368Z" fill="white"/>
<path d="M214.422 16.6182L213.231 20.3182H215.55L214.422 16.6182ZM216.114 14.7368L219.687 23.8927H216.803L216.177 22.1995H212.604L211.977 23.8927H209.282L212.98 14.7368H216.114Z" fill="white"/>
<path d="M112.507 27.9067H111.128V32.861H112.507V27.9067Z" fill="white"/>
<path d="M113.447 27.9067H115.328L117.02 31.6067L116.957 27.9067H118.211V32.861H116.33L114.638 29.0356V32.861H113.447V27.9067Z" fill="white"/>
<path d="M120.279 28.9101H118.775V27.9067H123.162V28.9101H121.658V32.861H120.279V28.9101Z" fill="white"/>
<path d="M123.726 27.9692H127.424V28.9099H125.043V29.9133H127.299V30.854H125.043V31.9201H127.487V32.8608H123.726V27.9692Z" fill="white"/>
<path d="M128.239 27.9067H130.496C131.373 27.9067 131.749 27.9694 132 28.283C132.125 28.4084 132.313 28.722 132.313 29.2237C132.313 29.7881 132.125 29.9762 131.875 30.1644C131.561 30.3525 131.248 30.4152 131.123 30.4152C132.063 30.4152 132.125 30.8542 132.251 31.6067C132.313 31.9203 132.376 32.4847 132.501 32.7983H130.997C130.934 32.4847 130.872 32.1084 130.809 31.6695C130.746 31.105 130.746 30.8542 130.12 30.8542H129.556V32.7983H128.177V27.9067H128.239ZM129.618 30.0389H130.12C130.433 30.0389 130.558 30.0389 130.684 29.9762C130.997 29.8508 131.06 29.6 131.06 29.4118C131.06 28.7847 130.496 28.7847 130.12 28.7847H129.618V30.0389Z" fill="white"/>
<path d="M133.191 27.9067H135.071L136.763 31.6067L136.701 27.9067H137.892V32.861H136.074L134.382 29.0356V32.861H133.191V27.9067Z" fill="white"/>
<path d="M140.399 27.9067H142.091L144.034 32.861H142.467L142.154 31.8576H140.211L139.897 32.861H138.518L140.399 27.9067ZM141.84 30.9796L141.214 28.9101L140.524 30.9796H141.84Z" fill="white"/>
<path d="M147.419 29.4743C147.356 28.9726 146.98 28.7844 146.604 28.7844C145.789 28.7844 145.538 29.537 145.538 30.4149C145.538 30.7285 145.538 31.9827 146.604 31.9827C147.356 31.9827 147.419 31.481 147.419 31.2929H148.86C148.86 32.8607 147.293 32.9861 146.667 32.9861C146.165 32.9861 145.35 32.9234 144.786 32.359C144.222 31.7946 144.16 30.9793 144.16 30.4776C144.16 29.7878 144.348 29.098 144.786 28.5963C145.288 28.0319 145.915 27.8438 146.667 27.8438C147.481 27.8438 148.046 28.0319 148.484 28.4709C148.86 28.9099 148.86 29.3488 148.923 29.537H147.419V29.4743Z" fill="white"/>
<path d="M150.929 27.9067H149.55V32.861H150.929V27.9067Z" fill="white"/>
<path d="M152.37 28.4711C152.997 27.844 153.937 27.7812 154.313 27.7812C156.256 27.7812 156.82 29.2236 156.82 30.4151C156.82 32.3592 155.442 32.9863 154.251 32.9863C152.934 32.9863 151.744 32.2338 151.744 30.4151C151.681 30.1016 151.744 29.0982 152.37 28.4711ZM154.251 31.9829C155.253 31.9829 155.379 31.105 155.379 30.4151C155.379 29.7253 155.191 29.4118 155.065 29.1609C154.877 28.9101 154.564 28.7846 154.251 28.7846C153.373 28.7846 153.122 29.5372 153.122 30.4151C153.122 31.1677 153.373 31.9829 154.251 31.9829Z" fill="white"/>
<path d="M157.573 27.9067H159.453L161.145 31.6067V27.9067H162.336V32.861H160.456L158.764 29.0356V32.861H157.573V27.9067Z" fill="white"/>
<path d="M164.843 27.9067H166.536L168.479 32.861H166.912L166.598 31.8576H164.655L164.342 32.861H162.963L164.843 27.9067ZM166.222 30.9796L165.595 28.9101L164.906 30.9796H166.222Z" fill="white"/>
<path d="M168.98 27.9067H170.359V31.9203H172.553V32.861H168.98V27.9067Z" fill="white"/>
</g>
<defs>
<clipPath id="clip0_408_4034">
<rect width="220" height="37" fill="white"/>
</clipPath>
</defs>
</svg>
