<svg width="108" height="79" viewBox="0 0 108 79" fill="none" xmlns="http://www.w3.org/2000/svg">
<g clip-path="url(#clip0_408_3909)">
<path d="M30.5948 14.6223L23.684 20.7212C21.2592 17.3482 18.794 15.6577 16.2803 15.6577C15.0517 15.6577 14.0575 15.9893 13.2816 16.6445C12.4976 17.2997 12.1096 18.0358 12.1096 18.8608C12.1096 19.6859 12.3925 20.4624 12.9421 21.1984C13.7019 22.1772 15.9812 24.2722 19.7882 27.4995C23.3446 30.4762 25.5027 32.3447 26.2544 33.1293C28.1457 35.0382 29.4874 36.8663 30.2876 38.6134C31.0636 40.3525 31.4677 42.2534 31.4677 44.3241C31.4677 48.3441 30.0775 51.6686 27.297 54.2893C24.5166 56.9101 20.8955 58.2205 16.4338 58.2205C12.9421 58.2205 9.91109 57.3631 7.31654 55.6563C4.73007 53.9415 2.5154 51.2561 0.664459 47.6L8.49662 42.86C10.8568 47.1956 13.5726 49.3633 16.6359 49.3633C18.2363 49.3633 19.578 48.8942 20.6692 47.964C21.7604 47.0257 22.3019 45.958 22.3019 44.7285C22.3019 43.6123 21.8897 42.5122 21.0652 41.396C20.2489 40.2797 18.4222 38.5892 15.6337 36.3001C10.291 31.9483 6.84774 28.5834 5.28778 26.2215C3.72781 23.8515 2.95187 21.4896 2.95187 19.1358C2.95187 15.7305 4.25319 12.8185 6.83966 10.3838C9.42613 7.94915 12.6269 6.73584 16.4258 6.73584C18.8748 6.73584 21.1946 7.30205 23.4173 8.42638C25.6239 9.56689 28.0245 11.6295 30.6029 14.6304L30.5948 14.6223Z" fill="white"/>
<path d="M70.7888 41.4847H41.5779C41.9982 44.065 43.1217 46.1115 44.9645 47.6402C46.7993 49.1528 49.1271 49.9212 51.9723 49.9212C55.367 49.9212 58.2849 48.7322 60.7339 46.3622L68.3963 49.9536C66.4807 52.6714 64.1933 54.6774 61.5341 55.9716C58.8587 57.2658 55.6984 57.9129 52.0288 57.9129C46.3548 57.9129 41.7234 56.1253 38.1427 52.5258C34.5702 48.9344 32.7839 44.4452 32.7839 39.0419C32.7839 33.6387 34.554 28.923 38.1266 25.2588C41.691 21.6027 46.1527 19.7827 51.5358 19.7827C57.2422 19.7827 61.8736 21.6108 65.4542 25.2588C69.0268 28.9149 70.8131 33.7438 70.8131 39.7456L70.7808 41.4766L70.7888 41.4847ZM61.6958 34.3181C61.1057 32.2959 59.9095 30.6539 58.1394 29.384C56.3773 28.1222 54.3243 27.4913 51.9884 27.4913C49.4504 27.4913 47.2196 28.2031 45.3121 29.6186C44.1159 30.5083 43.0085 32.0775 41.982 34.3181H61.6958Z" fill="white"/>
<path d="M95.1824 25.7845L89.5569 31.4143C87.2695 29.1494 85.1841 28.017 83.3251 28.017C82.3067 28.017 81.5065 28.2354 80.9326 28.6641C80.3507 29.1009 80.0597 29.6428 80.0597 30.2819C80.0597 30.7672 80.2456 31.2201 80.6174 31.6327C80.9811 32.0452 81.8864 32.6033 83.3332 33.3151L86.6633 34.9814C90.1712 36.7124 92.5798 38.4757 93.8892 40.2795C95.1986 42.0752 95.8533 44.1863 95.8533 46.613C95.8533 49.8323 94.6732 52.5177 92.2969 54.6774C89.9368 56.8371 86.7683 57.9129 82.7916 57.9129C77.5136 57.9129 73.2944 55.8503 70.1422 51.7088L75.7354 45.618C76.8023 46.8637 78.0552 47.8667 79.4858 48.6351C80.9084 49.3955 82.1854 49.7756 83.3008 49.7756C84.4971 49.7756 85.467 49.4925 86.2025 48.9182C86.93 48.3358 87.3018 47.6726 87.3018 46.9122C87.3018 45.5129 85.9762 44.1459 83.3332 42.8113L80.2698 41.2825C74.4018 38.3301 71.4758 34.6255 71.4758 30.1848C71.4758 27.3133 72.5751 24.8705 74.7817 22.8322C76.9963 20.8019 79.8253 19.7827 83.2523 19.7827C85.6125 19.7827 87.8272 20.3004 89.9044 21.3277C91.9817 22.363 93.7437 23.8513 95.1824 25.7764V25.7845Z" fill="white"/>
<path d="M102.347 4.93994C103.721 4.93994 104.901 5.44144 105.879 6.43635C106.865 7.43126 107.358 8.63648 107.358 10.052C107.358 11.4675 106.881 12.5352 105.903 13.514C104.933 14.5008 103.769 14.9942 102.411 14.9942C101.053 14.9942 99.8329 14.4927 98.863 13.4816C97.8769 12.4786 97.3758 11.3705 97.3758 9.93067C97.3758 8.49088 97.8688 7.38273 98.8307 6.404C99.8087 5.42526 100.981 4.93994 102.347 4.93994Z" fill="white"/>
<path d="M106.912 20.7129H97.8273V56.9746H106.912V20.7129Z" fill="white"/>
<path d="M45.1048 7.39091L43.2942 8.38582C42.9547 8.02992 42.6153 7.77917 42.2839 7.64166C41.9525 7.50416 41.5645 7.43136 41.12 7.43136C40.3036 7.43136 39.6489 7.67402 39.1478 8.15934C38.6467 8.64466 38.3961 9.26749 38.3961 10.0278C38.3961 10.7882 38.6386 11.3706 39.1235 11.8316C39.6085 12.3008 40.239 12.5353 41.0311 12.5353C42.001 12.5353 42.7608 12.2037 43.3023 11.5404L45.0158 12.7133C44.0863 13.9185 42.7769 14.5252 41.0876 14.5252C39.5681 14.5252 38.3718 14.0722 37.507 13.1743C36.6421 12.2765 36.2138 11.2169 36.2138 10.0036C36.2138 9.16234 36.4239 8.39391 36.8442 7.68211C37.2645 6.9703 37.8465 6.42027 38.5982 6.01583C39.3499 5.6114 40.1905 5.40918 41.12 5.40918C41.9767 5.40918 42.7527 5.57904 43.4397 5.92686C44.1267 6.27467 44.6845 6.75999 45.1209 7.39091H45.1048Z" fill="white"/>
<path d="M50.7231 5.40918C51.5394 5.40918 52.3073 5.6114 53.0266 6.02392C53.746 6.43645 54.3037 6.98648 54.7078 7.6902C55.112 8.39391 55.314 9.14616 55.314 9.96312C55.314 10.7801 55.112 11.5485 54.7078 12.2603C54.3037 12.9721 53.746 13.5302 53.0509 13.9266C52.3558 14.3229 51.5798 14.5252 50.7311 14.5252C49.4864 14.5252 48.4276 14.0803 47.5546 13.1986C46.6817 12.3169 46.2372 11.2411 46.2372 9.9793C46.2372 8.62849 46.7302 7.49607 47.7244 6.59822C48.5973 5.81362 49.5915 5.41727 50.7231 5.41727V5.40918ZM50.7554 7.45562C50.0764 7.45562 49.5187 7.6902 49.0661 8.15934C48.6135 8.62849 48.3952 9.22705 48.3952 9.96312C48.3952 10.6992 48.6135 11.3301 49.058 11.7912C49.5026 12.2603 50.0603 12.4949 50.7473 12.4949C51.4343 12.4949 51.9921 12.2603 52.4447 11.7831C52.8973 11.3058 53.1236 10.6992 53.1236 9.96312C53.1236 9.22705 52.9054 8.61231 52.4608 8.15125C52.0163 7.6902 51.4505 7.45562 50.7554 7.45562Z" fill="white"/>
<path d="M56.4429 2.29492H58.6171V14.3067H56.4429V2.29492Z" fill="white"/>
<path d="M68.861 10.5941H61.8776C61.9746 11.2088 62.2494 11.7023 62.6858 12.0662C63.1223 12.4302 63.68 12.6082 64.359 12.6082C65.1672 12.6082 65.8704 12.3251 66.4524 11.7589L68.2791 12.6163C67.8264 13.2634 67.2768 13.7406 66.6383 14.0561C65.9998 14.3715 65.2481 14.5252 64.367 14.5252C63.0091 14.5252 61.9018 14.0965 61.045 13.2391C60.1883 12.3817 59.7599 11.3059 59.7599 10.0198C59.7599 8.7337 60.1883 7.60128 61.037 6.7277C61.8856 5.85412 62.9526 5.41733 64.2377 5.41733C65.6037 5.41733 66.711 5.85412 67.5678 6.7277C68.4246 7.60128 68.8529 8.75796 68.8529 10.1897V10.6022L68.861 10.5941ZM66.6787 8.87929C66.5332 8.39397 66.2503 8.00571 65.83 7.69834C65.4097 7.39097 64.9167 7.24538 64.359 7.24538C63.7528 7.24538 63.2193 7.41524 62.7667 7.75496C62.4838 7.96527 62.217 8.34544 61.9665 8.87929H66.6787ZM64.6499 0.960449H67.2202L64.3105 4.08269H62.7505L64.6499 0.960449Z" fill="white"/>
<path d="M76.6116 5.63496H78.7778V13.0604C78.7778 14.5245 78.4868 15.6003 77.8967 16.2959C77.1046 17.2342 75.9165 17.6952 74.3242 17.6952C73.4755 17.6952 72.7642 17.5901 72.1822 17.3798C71.6003 17.1695 71.1153 16.854 70.7193 16.4415C70.3232 16.029 70.0242 15.5275 69.8383 14.937H72.2307C72.4409 15.1796 72.7157 15.3657 73.0471 15.487C73.3785 15.6083 73.7745 15.673 74.2353 15.673C74.8172 15.673 75.286 15.5841 75.6417 15.4061C75.9973 15.2282 76.2479 14.9936 76.3933 14.7024C76.5388 14.4112 76.6116 13.9259 76.6116 13.2222C76.2317 13.6023 75.8276 13.8774 75.4073 14.0472C74.9869 14.2171 74.5101 14.298 73.9847 14.298C72.8208 14.298 71.8428 13.8774 71.0426 13.0361C70.2424 12.1949 69.8383 11.1353 69.8383 9.84918C69.8383 8.4741 70.2666 7.36595 71.1153 6.53281C71.8832 5.78056 72.8046 5.40039 73.8715 5.40039C74.3727 5.40039 74.8415 5.48937 75.286 5.67541C75.7306 5.86145 76.1751 6.16073 76.6197 6.58134V5.62687L76.6116 5.63496ZM74.3565 7.44683C73.6695 7.44683 73.1037 7.67332 72.6591 8.13437C72.2146 8.59543 71.9883 9.16973 71.9883 9.86536C71.9883 10.561 72.2146 11.1757 72.6753 11.6449C73.136 12.114 73.7018 12.3405 74.3969 12.3405C75.092 12.3405 75.6255 12.114 76.062 11.661C76.4984 11.2081 76.7167 10.6176 76.7167 9.88153C76.7167 9.14546 76.4984 8.57116 76.0539 8.1182C75.6093 7.66523 75.0435 7.43874 74.3484 7.43874L74.3565 7.44683Z" fill="white"/>
<path d="M81.4117 2.06885C81.7916 2.06885 82.123 2.20636 82.3897 2.48137C82.6564 2.75639 82.8019 3.08802 82.8019 3.48437C82.8019 3.88072 82.6645 4.20427 82.3978 4.47928C82.131 4.7543 81.8077 4.89181 81.4279 4.89181C81.048 4.89181 80.7085 4.7543 80.4418 4.47119C80.1669 4.19618 80.0295 3.85645 80.0295 3.45202C80.0295 3.04758 80.1669 2.74021 80.4337 2.47328C80.7004 2.20636 81.0318 2.06885 81.4117 2.06885ZM80.3286 5.63597H82.5029V14.299H80.3286V5.63597Z" fill="white"/>
<path d="M88.1277 5.40918C88.9441 5.40918 89.7119 5.6114 90.4313 6.02392C91.1506 6.43645 91.7083 6.98648 92.1125 7.6902C92.5166 8.39391 92.7187 9.14616 92.7187 9.96312C92.7187 10.7801 92.5166 11.5485 92.1125 12.2603C91.7083 12.9721 91.1506 13.5302 90.4555 13.9266C89.7604 14.3229 88.9845 14.5252 88.1358 14.5252C86.891 14.5252 85.8322 14.0803 84.9593 13.1986C84.0863 12.3169 83.6418 11.2411 83.6418 9.9793C83.6418 8.62849 84.1348 7.49607 85.129 6.59822C86.0019 5.81362 86.9961 5.41727 88.1277 5.41727V5.40918ZM88.16 7.45562C87.4811 7.45562 86.9234 7.6902 86.4707 8.15934C86.0181 8.62849 85.7999 9.22705 85.7999 9.96312C85.7999 10.6992 86.0181 11.3301 86.4627 11.7912C86.9072 12.2603 87.4649 12.4949 88.1519 12.4949C88.839 12.4949 89.3967 12.2603 89.8493 11.7831C90.3019 11.3058 90.5283 10.6992 90.5283 9.96312C90.5283 9.22705 90.31 8.61231 89.8655 8.15125C89.4209 7.6902 88.8551 7.45562 88.16 7.45562Z" fill="white"/>
<path d="M12.5715 63.9561V77.7716H11.3106V76.0568C10.7772 76.7119 10.171 77.2054 9.5001 77.5289C8.82923 77.8525 8.10179 78.0223 7.30968 78.0223C5.90329 78.0223 4.69896 77.5127 3.6967 76.4855C2.69445 75.4582 2.2014 74.2206 2.2014 72.7566C2.2014 71.2925 2.70253 70.0954 3.71287 69.0762C4.72321 68.057 5.92754 67.5474 7.35009 67.5474C8.16645 67.5474 8.91006 67.7254 9.57284 68.0732C10.2356 68.421 10.8176 68.9468 11.3187 69.6424V63.9641H12.5796L12.5715 63.9561ZM7.44709 68.785C6.73581 68.785 6.07302 68.963 5.4749 69.3108C4.8687 69.6586 4.39182 70.152 4.03618 70.791C3.68054 71.43 3.50272 72.0933 3.50272 72.8051C3.50272 73.5169 3.68054 74.1802 4.04426 74.8192C4.40798 75.4582 4.88486 75.9597 5.49107 76.3156C6.09727 76.6715 6.75197 76.8495 7.439 76.8495C8.12604 76.8495 8.80498 76.6715 9.43544 76.3156C10.0659 75.9597 10.5428 75.4825 10.8822 74.8758C11.2217 74.2692 11.3915 73.5897 11.3915 72.8375C11.3915 71.6889 11.0116 70.7182 10.2518 69.9498C9.49202 69.1733 8.5625 68.785 7.44709 68.785Z" fill="white"/>
<path d="M25.3909 67.8052V77.7705H24.13V76.0557C23.5966 76.7109 22.9904 77.2043 22.3195 77.5279C21.6486 77.8514 20.9212 78.0213 20.1291 78.0213C18.7227 78.0213 17.5184 77.5117 16.5161 76.4844C15.5138 75.4571 15.0208 74.2196 15.0208 72.7555C15.0208 71.2915 15.5219 70.0943 16.5323 69.0752C17.5426 68.056 18.7469 67.5464 20.1695 67.5464C20.9858 67.5464 21.7295 67.7243 22.3922 68.0722C23.055 68.42 23.637 68.9457 24.1381 69.6414V67.8133H25.399L25.3909 67.8052ZM20.2665 68.784C19.5552 68.784 18.8924 68.9619 18.2943 69.3097C17.6881 69.6575 17.2112 70.151 16.8556 70.79C16.4999 71.4209 16.3221 72.0922 16.3221 72.804C16.3221 73.5159 16.4999 74.1791 16.8637 74.8181C17.2274 75.4571 17.7043 75.9586 18.3105 76.3145C18.9167 76.6705 19.5714 76.8484 20.2584 76.8484C20.9454 76.8484 21.6244 76.6705 22.2548 76.3145C22.8853 75.9586 23.3622 75.4814 23.7016 74.8748C24.0411 74.2681 24.2109 73.5887 24.2109 72.8364C24.2109 71.6878 23.831 70.7172 23.0712 69.9487C22.3114 69.1722 21.3819 68.784 20.2665 68.784Z" fill="white"/>
<path d="M35.4614 64.182C35.7767 64.4975 35.9302 64.8858 35.9302 65.3387C35.9302 65.7917 35.7767 66.1638 35.4614 66.4792C35.1462 66.7947 34.7744 66.9484 34.346 66.9484C33.9176 66.9484 33.5216 66.7866 33.2064 66.4711C32.8911 66.1557 32.7376 65.7593 32.7376 65.3064C32.7376 64.8534 32.8911 64.4894 33.2064 64.182C33.5216 63.8747 33.8934 63.7129 34.3299 63.7129C34.7663 63.7129 35.1462 63.8747 35.4614 64.1901V64.182ZM35.5827 67.8058V77.7711H33.077V67.8058H35.5827Z" fill="white"/>
<path d="M40.3357 67.8052V68.8244C40.9015 68.3472 41.4188 68.0155 41.8795 67.8295C42.3402 67.6435 42.809 67.5464 43.294 67.5464C44.2801 67.5464 45.1207 67.8942 45.8077 68.5817C46.3897 69.1641 46.6806 70.0377 46.6806 71.1863V77.7705H44.2073V73.4026C44.2073 72.2136 44.1507 71.4209 44.0457 71.0326C43.9406 70.6444 43.7547 70.3451 43.488 70.1429C43.2212 69.9406 42.8979 69.8355 42.5019 69.8355C41.9927 69.8355 41.5643 70.0054 41.2005 70.3451C40.8368 70.6848 40.5863 71.154 40.4489 71.7525C40.3761 72.0599 40.3357 72.7393 40.3357 73.7747V77.7786H37.8462V67.8133H40.3357V67.8052Z" fill="white"/>
<path d="M58.9421 63.9561V77.7716H56.4526V76.72C55.9677 77.1811 55.4746 77.5208 54.9816 77.723C54.4885 77.9252 53.9551 78.0304 53.3812 78.0304C52.096 78.0304 50.9806 77.5289 50.043 76.534C49.1054 75.5391 48.6366 74.2934 48.6366 72.8132C48.6366 71.333 49.0893 70.0145 50.0026 69.0277C50.916 68.0408 52.0152 67.5555 53.3165 67.5555C53.9146 67.5555 54.4724 67.6688 54.9977 67.8953C55.5231 68.1217 56.0081 68.4615 56.4526 68.9144V63.9722H58.9421V63.9561ZM51.894 70.6778C51.3848 71.2278 51.1261 71.9234 51.1261 72.7808C51.1261 73.6382 51.3848 74.35 51.9101 74.9082C52.4355 75.4663 53.074 75.7413 53.8338 75.7413C54.5936 75.7413 55.2725 75.4663 55.7898 74.9243C56.3071 74.3824 56.5658 73.6625 56.5658 72.7727C56.5658 71.883 56.3071 71.2035 55.7898 70.6697C55.2725 70.1358 54.6178 69.8608 53.8257 69.8608C53.0336 69.8608 52.4032 70.1358 51.894 70.6778Z" fill="white"/>
<path d="M63.9865 67.8059V72.6025C63.9865 73.5327 64.0512 74.1879 64.1805 74.5519C64.3098 74.9158 64.5119 75.1989 64.7948 75.4012C65.0777 75.6034 65.4253 75.7005 65.8456 75.7005C66.2659 75.7005 66.6134 75.6034 66.9044 75.4012C67.1954 75.1989 67.4055 74.9078 67.551 74.5276C67.6561 74.2445 67.7046 73.6297 67.7046 72.6834V67.7978H70.2102V72.0201C70.2102 73.7592 70.0728 74.9482 69.798 75.5953C69.4585 76.3799 68.9655 76.9785 68.3189 77.3991C67.6723 77.8197 66.8397 78.03 65.8294 78.03C64.7382 78.03 63.8572 77.7873 63.1783 77.2939C62.4993 76.8005 62.0305 76.1211 61.7557 75.2475C61.5617 74.6408 61.4647 73.5408 61.4647 71.9473V67.7978H63.9946L63.9865 67.8059ZM69.2322 62.3945L65.886 65.9859H64.0916L66.282 62.3945H69.2403H69.2322Z" fill="white"/>
<path d="M77.2653 70.7502C76.6348 70.1274 76.069 69.82 75.5517 69.82C75.2688 69.82 75.0506 69.8766 74.8889 69.998C74.7273 70.1193 74.6545 70.2649 74.6545 70.4428C74.6545 70.5804 74.703 70.7017 74.8081 70.8149C74.9132 70.9282 75.1557 71.0819 75.5517 71.276L76.4651 71.737C77.4269 72.2143 78.0897 72.6996 78.4534 73.193C78.8171 73.6864 78.995 74.2688 78.995 74.9321C78.995 75.8137 78.6717 76.5579 78.017 77.1484C77.3623 77.7389 76.4974 78.0381 75.4062 78.0381C73.9513 78.0381 72.7955 77.4719 71.9307 76.3314L73.4664 74.6571C73.7574 74.9968 74.1049 75.2718 74.4929 75.4821C74.8809 75.6924 75.2365 75.7976 75.5436 75.7976C75.875 75.7976 76.1418 75.7167 76.3438 75.563C76.5459 75.4093 76.6429 75.2233 76.6429 75.013C76.6429 74.6247 76.2792 74.2526 75.5517 73.8886L74.7111 73.468C73.1027 72.6591 72.2944 71.64 72.2944 70.4186C72.2944 69.634 72.6015 68.9545 73.2077 68.3964C73.8139 67.8383 74.5899 67.5552 75.5356 67.5552C76.1822 67.5552 76.7884 67.7008 77.3623 67.9839C77.9361 68.267 78.413 68.6714 78.8091 69.2053L77.2653 70.7502Z" fill="white"/>
<path d="M83.7578 64.1343V67.8066H85.237V69.9582H83.7578V77.7718H81.2684V69.9582H79.9832V67.8066H81.2684V64.1343H83.7578Z" fill="white"/>
<path d="M88.1369 67.8052V69.059C88.3713 68.5656 88.6784 68.1854 89.0583 67.9346C89.4382 67.6839 89.8666 67.5464 90.3192 67.5464C90.6425 67.5464 90.982 67.6354 91.3376 67.8052L90.5617 69.9568C90.2707 69.8112 90.0282 69.7384 89.8423 69.7384C89.4543 69.7384 89.131 69.973 88.8643 70.4502C88.5976 70.9275 88.4683 71.8577 88.4683 73.2489V73.7342L88.4763 77.7624H85.9949V67.7971H88.1369V67.8052Z" fill="white"/>
<path d="M94.6839 64.182C94.9991 64.4975 95.1527 64.8858 95.1527 65.3387C95.1527 65.7917 94.9991 66.1638 94.6839 66.4792C94.3687 66.7947 93.9969 66.9484 93.5685 66.9484C93.1401 66.9484 92.744 66.7866 92.4288 66.4711C92.1136 66.1557 91.96 65.7593 91.96 65.3064C91.96 64.8534 92.1136 64.4894 92.4288 64.182C92.744 63.8747 93.1159 63.7129 93.5523 63.7129C93.9888 63.7129 94.3687 63.8747 94.6839 64.1901V64.182ZM94.8051 67.8058V77.7711H92.2995V67.8058H94.8051Z" fill="white"/>
<path d="M106.923 67.8059V77.7712H104.433V76.7197C103.948 77.1807 103.455 77.5205 102.962 77.7227C102.469 77.9249 101.936 78.03 101.362 78.03C100.077 78.03 98.9614 77.5286 98.0239 76.5336C97.0863 75.5387 96.6175 74.2931 96.6175 72.8128C96.6175 71.3326 97.0701 70.0141 97.9834 69.0273C98.8887 68.0405 99.996 67.5552 101.297 67.5552C101.895 67.5552 102.453 67.6684 102.979 67.8949C103.504 68.1214 103.989 68.4611 104.433 68.9141V67.814H106.923V67.8059ZM99.8748 70.6774C99.3656 71.2274 99.1069 71.9231 99.1069 72.7805C99.1069 73.6379 99.3656 74.3497 99.891 74.9078C100.416 75.4659 101.055 75.7409 101.815 75.7409C102.574 75.7409 103.253 75.4659 103.771 74.924C104.288 74.382 104.547 73.6621 104.547 72.7724C104.547 71.8826 104.288 71.2032 103.771 70.6693C103.253 70.1355 102.599 69.8605 101.807 69.8605C101.014 69.8605 100.384 70.1355 99.8748 70.6774Z" fill="white"/>
</g>
<defs>
<clipPath id="clip0_408_3909">
<rect width="106.7" height="77.0611" fill="white" transform="translate(0.649994 0.969238)"/>
</clipPath>
</defs>
</svg>
