<svg width="230" height="37" viewBox="0 0 230 37" fill="none" xmlns="http://www.w3.org/2000/svg">
<path d="M102.708 5.84613V1.03613H1.05573V5.84613H8.37048V6.73413H1.05573V11.6181H8.37048V12.5061H1.05573V17.3901H8.37048V18.2781H1.05573V23.1621H8.37048V24.0501H1.05573V28.9341H8.37048V29.8221H1.05573V34.6321H102.708V29.8221H95.3934V28.9341H102.708V24.0501H95.3934V23.1621H102.708V18.2781H95.3934V17.3901H102.708V12.5061H95.3934V11.6181H102.708V6.73413H95.3934V5.84613H102.708ZM33.2557 12.9501H26.3934C26.5442 12.3581 26.5442 12.0621 26.5442 11.7661C26.5442 10.4341 25.6393 9.62013 23.9049 9.62013C21.718 9.62013 20.059 10.9521 20.059 12.7281C20.059 13.5421 20.3606 14.1341 22.1705 14.6521L26.4688 15.8361C28.1279 16.2801 29.3344 16.7241 30.1639 17.2421C31.8983 18.3521 32.1246 19.9061 32.1246 21.0161C32.1246 23.1621 31.1442 25.8261 28.882 27.6761C26.7705 29.3781 23.5279 30.4881 19.4557 30.4881C13.4229 30.4881 10.2557 28.4161 10.2557 24.3461C10.2557 23.6801 10.3311 23.0141 10.482 22.3481H17.2688C17.1934 22.7181 17.118 23.0881 17.118 23.3841C17.118 25.1601 18.2492 26.0481 20.5869 26.0481C23.3016 26.0481 24.8852 24.6421 24.8852 22.7181C24.8852 21.9041 24.3574 21.3121 23.2262 21.0161L17.6459 19.5361C14.0262 18.5741 12.7442 16.7981 12.7442 14.4301C12.7442 13.0241 13.1213 11.6921 13.8754 10.5081C15.6098 7.54813 19.3803 5.47613 24.8098 5.47613C30.6164 5.47613 33.4065 7.32613 33.4065 10.9521C33.482 11.3961 33.4065 12.1361 33.2557 12.9501ZM55.2 15.3921L54.1442 19.9801H43.1344L42.0787 25.1601H54.0688L53.0131 29.8221H34.3115L39.5147 5.77213H57.9902L57.0098 10.3601H45.2459L44.1901 15.3921H55.2ZM80.3115 12.9501H73.4492C73.6 12.3581 73.6 12.0621 73.6 11.7661C73.6 10.4341 72.6951 9.62013 70.9606 9.62013C68.7738 9.62013 67.1147 10.9521 67.1147 12.7281C67.1147 13.5421 67.4164 14.1341 69.2262 14.6521L73.5246 15.8361C75.1836 16.2801 76.3902 16.7241 77.2197 17.2421C78.9541 18.3521 79.1803 19.9061 79.1803 21.0161C79.1803 23.1621 78.2 25.8261 75.9377 27.6761C73.8262 29.3781 70.5836 30.4881 66.5115 30.4881C60.4787 30.4881 57.3115 28.4161 57.3115 24.3461C57.3115 23.6801 57.3869 23.0141 57.5377 22.3481H64.3246C64.2492 22.7181 64.1738 23.0881 64.1738 23.3841C64.1738 25.1601 65.3049 26.0481 67.6426 26.0481C70.3574 26.0481 71.941 24.6421 71.941 22.7181C71.941 21.9041 71.4131 21.3121 70.282 21.0161L64.7016 19.5361C61.082 18.5741 59.8 16.7981 59.8 14.4301C59.8 13.0241 60.177 11.6921 60.9311 10.5081C62.6656 7.54813 66.4361 5.47613 71.8656 5.47613C77.6721 5.47613 80.4623 7.32613 80.4623 10.9521C80.6131 11.3961 80.5377 12.1361 80.3115 12.9501ZM88.2295 29.8221H81.2164L86.4197 5.77213H93.4328L88.2295 29.8221Z" fill="white"/>
<path d="M117.187 1.33203V3.18203H112.436V5.18003H116.885V7.03003H112.436V9.10203H117.338V11.1H109.721V1.33203H117.187Z" fill="white"/>
<path d="M127.066 4.07013L124.275 4.14413V4.07013C124.275 3.18213 123.823 2.73813 122.918 2.73813C122.164 2.73813 121.636 3.18213 121.636 3.77413C121.636 4.29213 121.862 4.58813 122.692 4.81013L124.502 5.25413C125.18 5.40213 125.708 5.62413 126.161 5.84613C126.99 6.29013 127.367 7.03013 127.367 8.06613C127.367 10.1381 125.708 11.2481 122.993 11.2481C120.128 11.2481 118.62 10.1381 118.62 7.91813H121.41C121.41 8.95413 122.013 9.47213 123.069 9.47213C123.974 9.47213 124.577 9.10213 124.577 8.36213C124.577 7.84413 124.351 7.54813 123.748 7.40013L121.184 6.73413C119.977 6.43813 119.449 5.99413 119.072 5.47613C118.846 5.03213 118.695 4.58813 118.695 4.07013C118.695 2.22013 120.279 1.03613 122.918 1.03613C125.784 1.03613 127.066 1.99813 127.066 4.07013Z" fill="white"/>
<path d="M135.436 4.36635C135.285 3.40435 134.607 3.03435 133.852 3.03435C132.42 3.03435 131.666 4.14435 131.666 6.29035C131.666 8.28835 132.42 9.39835 133.852 9.39835C134.833 9.39835 135.436 8.95435 135.511 7.99235H138.377C138.377 10.1384 136.718 11.3224 133.852 11.3224C130.534 11.3224 128.8 9.47235 128.8 6.29035C128.8 3.99635 129.78 2.14635 131.741 1.40635C132.344 1.18435 133.023 1.11035 133.852 1.11035C136.718 1.11035 138.302 2.44235 138.302 4.36635H135.436Z" fill="white"/>
<path d="M149.689 6.21613C149.689 9.47213 147.577 11.3221 144.485 11.3221C141.393 11.3221 139.357 9.47213 139.357 6.21613C139.357 4.51413 139.885 3.10813 140.866 2.22013C141.77 1.40613 143.279 1.03613 144.636 1.03613C147.879 1.03613 149.689 3.03413 149.689 6.21613ZM144.561 9.32413C146.144 9.32413 146.898 8.21413 146.898 6.14213C146.898 4.21813 146.295 2.96013 144.561 2.96013C143.052 2.96013 142.223 3.99613 142.223 6.21613C142.223 8.21413 142.977 9.32413 144.561 9.32413Z" fill="white"/>
<path d="M153.911 1.2583V9.1023H158.361V11.1003H151.046V1.2583H153.911Z" fill="white"/>
<path d="M166.203 1.2583L170.125 11.0263H167.033L166.354 9.0283H162.357L161.679 11.0263H158.889L162.81 1.2583H166.203ZM164.393 3.1823L163.036 7.3263H165.751L164.393 3.1823Z" fill="white"/>
<path d="M113.944 14.9482C115.226 14.9482 116.433 15.0962 117.262 15.5402C118.846 16.3542 119.525 17.9822 119.525 19.8322C119.525 21.0902 119.298 22.2742 118.544 23.1622C117.79 24.1242 116.659 24.7902 114.02 24.7902H109.57V14.9482H113.944ZM113.718 22.8662C115.603 22.8662 116.659 21.9042 116.659 19.8322C116.659 18.7222 116.357 17.6122 115.226 17.0942C114.623 16.8722 114.17 16.8722 112.511 16.7982V22.8662H113.718Z" fill="white"/>
<path d="M128.725 15.022V16.872H123.974V18.944H128.423V20.794H123.974V22.866H128.875V24.79H121.259V15.022H128.725Z" fill="white"/>
<path d="M138.98 14.9482C140.111 14.9482 140.79 15.0222 141.243 15.1702C142.072 15.5402 142.6 16.2802 142.6 17.5382C142.6 18.0562 142.525 18.4262 142.298 18.7222C141.846 19.4622 140.941 19.7582 140.111 19.8322V19.9062C141.997 19.9802 142.148 20.7942 142.374 22.2002C142.449 22.8662 142.525 23.7542 142.826 24.7162H139.81C139.734 24.3462 139.659 23.9022 139.584 23.3842L139.433 22.2002C139.357 21.1642 139.056 20.8682 138.075 20.8682H136.944V24.7162H134.229V14.9482H138.98ZM137.02 19.1662H138.528C139.056 19.1662 139.433 19.0922 139.659 18.7222C139.81 18.5742 139.885 18.2782 139.885 17.9082C139.885 17.0942 139.433 16.7242 138.151 16.7242H136.944V19.1662H137.02Z" fill="white"/>
<path d="M151.725 15.022V16.872H146.974V18.944H151.423V20.794H146.974V22.866H151.875V24.79H144.259V15.022H151.725Z" fill="white"/>
<path d="M160.548 15.022V16.872H156.249V19.166H160.246V21.016H156.249V24.716H153.534V15.022H160.548Z" fill="white"/>
<path d="M169.446 15.022V16.872H164.695V18.944H169.144V20.794H164.695V22.866H169.597V24.79H161.98V15.022H169.446Z" fill="white"/>
<path d="M175.856 14.9482C176.987 14.9482 177.666 15.0222 178.118 15.1702C178.948 15.5402 179.475 16.2802 179.475 17.5382C179.475 18.0562 179.4 18.4262 179.174 18.7222C178.721 19.4622 177.816 19.7582 176.987 19.8322V19.9062C178.872 19.9802 179.023 20.7942 179.249 22.2002C179.325 22.8662 179.4 23.7542 179.702 24.7162H176.685C176.61 24.3462 176.534 23.9022 176.459 23.3842V22.2002C176.384 21.1642 176.082 20.8682 175.102 20.8682H173.97V24.7162H171.18V14.9482H175.856ZM173.895 19.1662H175.403C175.931 19.1662 176.308 19.0922 176.534 18.7222C176.685 18.5742 176.761 18.2782 176.761 17.9082C176.761 17.0942 176.308 16.7242 175.026 16.7242H173.82V19.1662H173.895Z" fill="white"/>
<path d="M188.6 15.0221V16.8721H183.849V18.9441H188.298V20.7941H183.849V22.8661H188.751V24.7901H181.134V15.0221H188.6ZM185.885 11.9141L187.544 13.9121H185.734L184.679 12.8761L183.623 13.9121H181.813L183.472 11.9141H185.885Z" fill="white"/>
<path d="M194.18 14.9482L197.574 22.2742V14.9482H199.987V24.7162H196.216L192.748 17.0942V24.7162H190.334V14.9482H194.18Z" fill="white"/>
<path d="M208.207 18.0563C208.056 17.0943 207.377 16.7243 206.623 16.7243C205.19 16.7243 204.436 17.8343 204.436 19.9803C204.436 21.9783 205.19 23.0883 206.623 23.0883C207.603 23.0883 208.207 22.6443 208.282 21.6823H211.148C211.148 23.8283 209.489 25.0123 206.623 25.0123C203.305 25.0123 201.57 23.1623 201.57 19.9803C201.57 17.6863 202.551 15.8363 204.511 15.0963C205.115 14.8743 205.793 14.8003 206.623 14.8003C209.489 14.8003 211.072 16.1323 211.072 18.0563H208.207Z" fill="white"/>
<path d="M215.37 14.9482V24.7162H212.505V14.9482H215.37Z" fill="white"/>
<path d="M223.741 14.9482L227.662 24.7162H224.57L223.892 22.7182H219.895L219.216 24.7162H216.426L220.348 14.9482H223.741ZM221.856 16.8722L220.498 21.0162H223.213L221.856 16.8722Z" fill="white"/>
<path d="M112.285 28.5645C113.039 28.5645 113.793 28.6385 114.321 28.9345C115.302 29.4525 115.679 30.4145 115.679 31.5245C115.679 32.3385 115.528 33.0045 115.075 33.5225C114.623 34.1145 113.944 34.4845 112.361 34.4845H109.646V28.5645H112.285ZM112.134 33.3745C113.266 33.3745 113.944 32.7825 113.944 31.5245C113.944 30.8585 113.793 30.1925 113.039 29.8965C112.662 29.7485 112.361 29.7485 111.38 29.7485V33.3745H112.134Z" fill="white"/>
<path d="M120.128 28.5645L122.541 34.4845H120.656L120.203 33.3005H117.79L117.413 34.4845H115.754L118.167 28.5645H120.128ZM118.997 29.7485L118.167 32.2645H119.826L118.997 29.7485Z" fill="white"/>
<path d="M126.764 28.5645V34.4845H125.029V28.5645H126.764Z" fill="white"/>
<path d="M129.705 28.5645L131.741 33.0045V28.5645H133.174V34.4845H130.911L128.8 29.8965V34.4845H127.292V28.5645H129.705Z" fill="white"/>
<path d="M136.492 28.5645C137.246 28.5645 138 28.6385 138.528 28.9345C139.508 29.4525 139.885 30.4145 139.885 31.5245C139.885 32.3385 139.734 33.0045 139.282 33.5225C138.829 34.1145 138.151 34.4845 136.567 34.4845H133.852V28.5645H136.492ZM136.341 33.3745C137.472 33.3745 138.151 32.7825 138.151 31.5245C138.151 30.8585 138 30.1925 137.246 29.8965C136.869 29.7485 136.567 29.7485 135.587 29.7485V33.3745H136.341Z" fill="white"/>
<path d="M142.072 28.5644V32.1164C142.072 32.4124 142.072 32.6344 142.223 32.8564C142.449 33.3004 142.902 33.4484 143.354 33.4484C144.184 33.4484 144.561 33.0044 144.561 32.0424V28.5644H146.22V31.9684C146.22 33.0044 145.993 33.6704 145.315 34.1884C144.862 34.4844 144.259 34.6324 143.354 34.6324C142.148 34.6324 141.167 34.3364 140.715 33.4484C140.564 33.0784 140.489 32.6344 140.489 32.1164V28.5644H142.072ZM145.089 26.7144L143.58 27.8984H142.449L143.354 26.7144H145.089Z" fill="white"/>
<path d="M151.649 30.2663H149.99C149.99 29.7483 149.688 29.4523 149.161 29.4523C148.708 29.4523 148.407 29.7483 148.407 30.0443C148.407 30.3403 148.557 30.5623 149.01 30.6363L150.141 30.9323C150.518 31.0063 150.895 31.1543 151.121 31.3023C151.649 31.5983 151.875 32.0423 151.875 32.6343C151.875 33.8923 150.82 34.5583 149.236 34.5583C147.502 34.5583 146.597 33.8923 146.597 32.5603H148.256C148.256 33.1523 148.633 33.4483 149.236 33.4483C149.764 33.4483 150.141 33.2263 150.141 32.7823C150.141 32.4863 149.99 32.3383 149.613 32.1903L148.105 31.8203C147.351 31.5983 147.049 31.3763 146.823 31.0063C146.672 30.7843 146.597 30.4883 146.597 30.1923C146.597 29.0823 147.502 28.3423 149.161 28.3423C150.82 28.4163 151.649 29.0083 151.649 30.2663Z" fill="white"/>
<path d="M157.079 28.5645V29.7485H155.193V34.4845H153.534V29.7485H151.725V28.5645H157.079Z" fill="white"/>
<path d="M160.095 28.5642C160.774 28.5642 161.226 28.6382 161.452 28.7122C161.98 28.9342 162.282 29.3782 162.282 30.1182C162.282 30.4142 162.207 30.6362 162.131 30.8582C161.829 31.3022 161.302 31.4502 160.849 31.5242C161.98 31.5982 162.131 32.0422 162.207 32.9302C162.282 33.3742 162.282 33.8922 162.508 34.4842H160.623C160.548 34.2622 160.548 34.0402 160.472 33.6702L160.397 32.9302C160.321 32.2642 160.17 32.1162 159.567 32.1162H158.889V34.4102H157.229V28.4902H160.095V28.5642ZM158.889 31.1542H159.793C160.095 31.1542 160.321 31.0802 160.472 30.9322C160.548 30.8582 160.623 30.6362 160.623 30.4882C160.623 29.9702 160.397 29.7482 159.567 29.7482H158.813V31.1542H158.889Z" fill="white"/>
<path d="M164.393 28.5645V34.4845H162.659V28.5645H164.393Z" fill="white"/>
<path d="M168.918 28.5645L171.331 34.4845H169.446L168.993 33.3005H166.58L166.203 34.4845H164.544L166.957 28.5645H168.918ZM167.862 29.7485L167.033 32.2645H168.692L167.862 29.7485Z" fill="white"/>
</svg>
