<svg width="108" height="89" viewBox="0 0 108 89" fill="none" xmlns="http://www.w3.org/2000/svg">
<path d="M34.0974 12.4353L28.0687 17.7632C25.9534 14.8166 23.8028 13.3398 21.6099 13.3398C20.5382 13.3398 19.6709 13.6295 18.994 14.2019C18.31 14.7742 17.9716 15.4172 17.9716 16.138C17.9716 16.8587 18.2184 17.5371 18.6978 18.1801C19.3606 19.0351 21.3491 20.8652 24.6701 23.6846C27.7726 26.2849 29.6552 27.9172 30.311 28.6026C31.9609 30.2702 33.1314 31.8671 33.8295 33.3934C34.5064 34.9126 34.8589 36.5731 34.8589 38.382C34.8589 41.8939 33.6461 44.7981 31.2206 47.0875C28.795 49.3769 25.6361 50.5216 21.7439 50.5216C18.6978 50.5216 16.0537 49.7726 13.7903 48.2817C11.5339 46.7836 9.60194 44.4377 7.98724 41.2438L14.8197 37.1031C16.8787 40.8905 19.2478 42.7842 21.9202 42.7842C23.3163 42.7842 24.4868 42.3744 25.4387 41.5618C26.3906 40.7421 26.863 39.8094 26.863 38.7354C26.863 37.7602 26.5034 36.7992 25.7842 35.8241C25.072 34.849 23.4785 33.3722 21.0459 31.3725C16.3851 27.5709 13.3813 24.6314 12.0205 22.5681C10.6596 20.4978 9.9827 18.4345 9.9827 16.3782C9.9827 13.4034 11.1179 10.8596 13.3743 8.73271C15.6306 6.60581 18.4228 5.5459 21.7369 5.5459C23.8733 5.5459 25.897 6.04053 27.836 7.02271C29.761 8.01903 31.8552 9.82089 34.1045 12.4424L34.0974 12.4353Z" fill="white"/>
<path d="M69.1698 35.9022H43.6871C44.0538 38.1563 45.0339 39.944 46.6415 41.2795C48.2421 42.6008 50.2729 43.2721 52.7548 43.2721C55.7163 43.2721 58.2617 42.2334 60.3982 40.163L67.0826 43.3004C65.4115 45.6746 63.4161 47.427 61.0963 48.5576C58.7624 49.6881 56.0054 50.2534 52.8042 50.2534C47.8543 50.2534 43.8141 48.6918 40.6904 45.5474C37.5739 42.4101 36.0156 38.4884 36.0156 33.7682C36.0156 29.0481 37.5597 24.9285 40.6763 21.7276C43.7859 18.5337 47.6781 16.9438 52.3741 16.9438C57.3521 16.9438 61.3924 18.5408 64.516 21.7276C67.6326 24.9215 69.1909 29.1399 69.1909 34.383L69.1627 35.8951L69.1698 35.9022ZM61.2373 29.6416C60.7226 27.8751 59.679 26.4407 58.1348 25.3313C56.5977 24.229 54.8067 23.6778 52.7689 23.6778C50.5549 23.6778 48.6088 24.2997 46.9447 25.5362C45.9012 26.3135 44.9352 27.6843 44.0397 29.6416H61.2373Z" fill="white"/>
<path d="M90.443 22.1869L85.5355 27.1049C83.54 25.1264 81.7208 24.1371 80.0991 24.1371C79.2106 24.1371 78.5126 24.3279 78.012 24.7024C77.5043 25.084 77.2504 25.5574 77.2504 26.1156C77.2504 26.5396 77.4126 26.9353 77.737 27.2957C78.0543 27.6561 78.844 28.1436 80.1061 28.7654L83.0112 30.221C86.0713 31.7332 88.1726 33.2736 89.3148 34.8493C90.4571 36.418 91.0283 38.2623 91.0283 40.3821C91.0283 43.1944 89.9988 45.5403 87.9258 47.427C85.8669 49.3136 83.1028 50.2534 79.6337 50.2534C75.0293 50.2534 71.3487 48.4516 68.5988 44.8337L73.4781 39.513C74.4088 40.6011 75.5018 41.4773 76.7498 42.1486C77.9908 42.8128 79.1049 43.1449 80.0779 43.1449C81.1215 43.1449 81.9676 42.8976 82.6093 42.3959C83.2439 41.8872 83.5682 41.3078 83.5682 40.6435C83.5682 39.4211 82.4118 38.2269 80.1061 37.061L77.4338 35.7255C72.3147 33.1464 69.7622 29.9101 69.7622 26.0308C69.7622 23.5224 70.7211 21.3884 72.6461 19.6078C74.5781 17.8342 77.046 16.9438 80.0356 16.9438C82.0945 16.9438 84.0265 17.3961 85.8387 18.2935C87.6508 19.1979 89.1879 20.4981 90.443 22.1798V22.1869Z" fill="white"/>
<path d="M96.6973 3.97705C97.8959 3.97705 98.9254 4.41515 99.7786 5.28428C100.639 6.15341 101.069 7.20626 101.069 8.44282C101.069 9.67939 100.653 10.6121 99.7997 11.4671C98.9536 12.3292 97.9382 12.7602 96.7537 12.7602C95.5691 12.7602 94.5044 12.3221 93.6582 11.4389C92.798 10.5627 92.3608 9.5946 92.3608 8.33683C92.3608 7.07907 92.791 6.11101 93.63 5.25601C94.4832 4.40102 95.5056 3.97705 96.6973 3.97705Z" fill="white"/>
<path d="M100.681 17.7549H92.7552V49.4322H100.681V17.7549Z" fill="white"/>
<path d="M46.7606 6.1184L45.1812 6.98753C44.8851 6.67662 44.5889 6.45757 44.2998 6.33745C44.0107 6.21733 43.6723 6.15373 43.2845 6.15373C42.5723 6.15373 42.0012 6.36571 41.564 6.78968C41.1268 7.21365 40.9082 7.75774 40.9082 8.42195C40.9082 9.08616 41.1198 9.59492 41.5428 9.99769C41.9659 10.4075 42.5159 10.6124 43.2069 10.6124C44.053 10.6124 44.7158 10.3227 45.1883 9.74331L46.6831 10.7679C45.8722 11.8207 44.7299 12.3507 43.2563 12.3507C41.9307 12.3507 40.8871 11.955 40.1326 11.1707C39.3782 10.3793 39.0045 9.46067 39.0045 8.40075C39.0045 7.66588 39.1878 6.9946 39.5544 6.37278C39.9211 5.75096 40.4288 5.27047 41.0845 4.91716C41.7403 4.56386 42.4736 4.38721 43.2845 4.38721C44.0319 4.38721 44.7088 4.5356 45.3081 4.83944C45.9075 5.14328 46.394 5.56725 46.7748 6.1184H46.7606Z" fill="white"/>
<path d="M51.6622 4.38721C52.3744 4.38721 53.0443 4.56386 53.6718 4.92423C54.2994 5.2846 54.7859 5.7651 55.1384 6.37985C55.491 6.9946 55.6673 7.65174 55.6673 8.36542C55.6673 9.0791 55.491 9.75038 55.1384 10.3722C54.7859 10.994 54.2994 11.4816 53.693 11.8278C53.0866 12.174 52.4097 12.3507 51.6693 12.3507C50.5834 12.3507 49.6597 11.9621 48.8982 11.1919C48.1367 10.4217 47.7489 9.48186 47.7489 8.37955C47.7489 7.19951 48.179 6.21026 49.0463 5.42592C49.8078 4.74051 50.6751 4.39427 51.6622 4.39427V4.38721ZM51.6905 6.17493C51.0982 6.17493 50.6116 6.37985 50.2168 6.78968C49.8219 7.19951 49.6315 7.72241 49.6315 8.36542C49.6315 9.00844 49.8219 9.55959 50.2097 9.96236C50.5975 10.3722 51.0841 10.5771 51.6834 10.5771C52.2827 10.5771 52.7693 10.3722 53.1641 9.95529C53.559 9.53839 53.7564 9.00844 53.7564 8.36542C53.7564 7.72241 53.566 7.18538 53.1782 6.78261C52.7904 6.37985 52.2968 6.17493 51.6905 6.17493Z" fill="white"/>
<path d="M56.6522 1.66504H58.5489V12.1582H56.6522V1.66504Z" fill="white"/>
<path d="M67.4827 8.91572H61.3906C61.4752 9.45275 61.7149 9.88378 62.0957 10.2018C62.4765 10.5197 62.963 10.6752 63.5553 10.6752C64.2604 10.6752 64.8738 10.4279 65.3815 9.93324L66.9751 10.6822C66.5802 11.2475 66.1007 11.6644 65.5437 11.94C64.9867 12.2156 64.3309 12.3498 63.5623 12.3498C62.3778 12.3498 61.4118 11.9753 60.6643 11.2263C59.9169 10.4773 59.5432 9.53754 59.5432 8.41403C59.5432 7.29052 59.9169 6.30127 60.6573 5.53813C61.3976 4.77499 62.3284 4.39342 63.4495 4.39342C64.6411 4.39342 65.6071 4.77499 66.3546 5.53813C67.102 6.30127 67.4757 7.31172 67.4757 8.56242V8.92279L67.4827 8.91572ZM65.5789 7.41771C65.452 6.99374 65.2052 6.65457 64.8386 6.38606C64.4719 6.11755 64.0418 5.99036 63.5553 5.99036C63.0264 5.99036 62.5611 6.13875 62.1662 6.43552C61.9194 6.61924 61.6867 6.95135 61.4682 7.41771H65.5789ZM63.8091 0.5H66.0514L63.513 3.22751H62.1521L63.8091 0.5Z" fill="white"/>
<path d="M74.2388 4.58382H76.1285V11.0705C76.1285 12.3495 75.8747 13.2893 75.3599 13.8969C74.6689 14.7166 73.6324 15.1194 72.2434 15.1194C71.503 15.1194 70.8825 15.0275 70.3748 14.8438C69.8671 14.6601 69.4441 14.3845 69.0986 14.0241C68.7531 13.6638 68.4922 13.2257 68.33 12.7098H70.4171C70.6005 12.9218 70.8402 13.0843 71.1293 13.1903C71.4184 13.2963 71.7639 13.3529 72.1658 13.3529C72.6735 13.3529 73.0824 13.2751 73.3927 13.1197C73.7029 12.9642 73.9215 12.7593 74.0484 12.5049C74.1754 12.2505 74.2388 11.8266 74.2388 11.2118C73.9074 11.5439 73.5549 11.7842 73.1882 11.9326C72.8216 12.081 72.4055 12.1516 71.9472 12.1516C70.9319 12.1516 70.0787 11.7842 69.3806 11.0493C68.6826 10.3144 68.33 9.38877 68.33 8.26526C68.33 7.06402 68.7037 6.09597 69.4441 5.36816C70.1139 4.71101 70.9178 4.37891 71.8485 4.37891C72.2857 4.37891 72.6946 4.45663 73.0824 4.61915C73.4703 4.78167 73.8581 5.04312 74.2459 5.41056V4.57676L74.2388 4.58382ZM72.2716 6.16663C71.6722 6.16663 71.1787 6.36448 70.7908 6.76725C70.403 7.17001 70.2056 7.67171 70.2056 8.27939C70.2056 8.88708 70.403 9.4241 70.8049 9.83393C71.2069 10.2438 71.7004 10.4416 72.3068 10.4416C72.9132 10.4416 73.3786 10.2438 73.7594 9.84807C74.1401 9.45236 74.3305 8.93654 74.3305 8.29352C74.3305 7.65051 74.1401 7.14882 73.7523 6.75312C73.3645 6.35741 72.8709 6.15956 72.2645 6.15956L72.2716 6.16663Z" fill="white"/>
<path d="M78.4271 1.46826C78.7585 1.46826 79.0475 1.58839 79.2802 1.82863C79.5129 2.06888 79.6398 2.35859 79.6398 2.70483C79.6398 3.05107 79.52 3.33371 79.2873 3.57396C79.0546 3.81421 78.7726 3.93433 78.4412 3.93433C78.1098 3.93433 77.8136 3.81421 77.5809 3.56689C77.3412 3.32665 77.2213 3.02987 77.2213 2.67656C77.2213 2.32326 77.3412 2.05475 77.5739 1.82157C77.8066 1.58839 78.0957 1.46826 78.4271 1.46826ZM77.4822 4.58441H79.3789V12.1522H77.4822V4.58441Z" fill="white"/>
<path d="M84.2945 4.38721C85.0066 4.38721 85.6765 4.56386 86.304 4.92423C86.9316 5.2846 87.4181 5.7651 87.7706 6.37985C88.1232 6.9946 88.2995 7.65174 88.2995 8.36542C88.2995 9.0791 88.1232 9.75038 87.7706 10.3722C87.4181 10.994 86.9316 11.4816 86.3252 11.8278C85.7188 12.174 85.0419 12.3507 84.3015 12.3507C83.2156 12.3507 82.2919 11.9621 81.5304 11.1919C80.7619 10.4217 80.3811 9.48186 80.3811 8.37955C80.3811 7.19951 80.8112 6.21026 81.6785 5.42592C82.44 4.74051 83.3073 4.39427 84.2945 4.39427V4.38721ZM84.3227 6.17493C83.7304 6.17493 83.2438 6.37985 82.849 6.78968C82.4541 7.19951 82.2637 7.72241 82.2637 8.36542C82.2637 9.00844 82.4541 9.55959 82.8419 9.96236C83.2297 10.3722 83.7163 10.5771 84.3156 10.5771C84.915 10.5771 85.4015 10.3722 85.7963 9.95529C86.1912 9.53839 86.3886 9.00844 86.3886 8.36542C86.3886 7.72241 86.1982 7.18538 85.8104 6.78261C85.4226 6.37985 84.9291 6.17493 84.3227 6.17493Z" fill="white"/>
<path d="M108.74 56.0522L103.459 88.5005L2.81931 76.481L0.301727 56.0454L108.74 56.0522ZM61.9355 64.5913C61.1247 64.5913 60.3979 64.7673 59.7422 65.1206C59.0865 65.4739 58.5785 65.962 58.2119 66.5767C57.8454 67.1912 57.6621 67.8626 57.6621 68.5972C57.6621 69.6498 58.0359 70.5756 58.79 71.3599C59.5445 72.1442 60.5816 72.5405 61.9072 72.5405C63.3808 72.5405 64.5231 72.0103 65.334 70.9575L63.8388 69.9331C63.3664 70.5124 62.7034 70.8022 61.8574 70.8022C61.1738 70.8022 60.6241 70.6043 60.2011 70.1948C59.7781 69.785 59.5664 69.2758 59.5664 68.6187C59.5664 67.9617 59.7846 67.4176 60.2216 66.9937C60.6588 66.5697 61.2373 66.3579 61.9424 66.3579C62.3301 66.3579 62.6689 66.4214 62.958 66.5415C63.2469 66.6616 63.5429 66.8734 63.8388 67.1841L65.4111 66.3149V66.3081C65.0375 65.7572 64.5442 65.3334 63.9521 65.0366C63.3599 64.7399 62.6828 64.5914 61.9355 64.5913ZM74.0703 64.5845C73.0832 64.5845 72.2085 64.9304 71.4541 65.6157C70.5868 66.4071 70.1572 67.3898 70.1572 68.5698C70.1572 69.6721 70.5381 70.6122 71.3066 71.3823C72.0751 72.1522 72.9985 72.5405 74.0771 72.5405C74.8103 72.5405 75.4874 72.3713 76.0937 72.0181C76.7071 71.6718 77.1865 71.1838 77.539 70.562C77.8914 69.9404 78.0683 69.2694 78.0683 68.563C78.0683 67.8565 77.8915 67.1921 77.539 66.5845C77.1865 65.9697 76.6998 65.4817 76.0722 65.1284C75.4449 64.7683 74.7753 64.5914 74.0634 64.5913L74.0703 64.5845ZM91.3242 64.5913C90.3372 64.5914 89.5054 64.9657 88.8144 65.7075C88.1305 66.4494 87.7851 67.4461 87.7851 68.5767C87.7852 69.7071 88.1375 70.6468 88.8496 71.4028C89.5617 72.1588 90.4078 72.5405 91.3808 72.5405C91.8109 72.5405 92.2132 72.4626 92.5869 72.3071C92.9603 72.1517 93.3338 71.8974 93.7002 71.5444V72.3423H95.5898V64.7817H93.7002V65.6157C93.3618 65.2766 92.9953 65.0148 92.6006 64.8452C92.1987 64.6757 91.7754 64.5913 91.3242 64.5913ZM51.8466 64.5903C50.8595 64.5903 50.0269 64.9656 49.3359 65.7075C48.6522 66.4494 48.3067 67.4454 48.3066 68.5757C48.3066 69.7063 48.6589 70.6468 49.3711 71.4028C50.0831 72.1587 50.9295 72.5395 51.9023 72.5396C52.3324 72.5395 52.7347 72.4625 53.1084 72.3071C53.482 72.1517 53.856 71.8967 54.2226 71.5435V72.3423H56.1123V64.7817H54.2226V65.6157C53.8842 65.2766 53.5169 65.0148 53.122 64.8452C52.7204 64.6758 52.2976 64.5904 51.8466 64.5903ZM30.0576 64.5757C28.9365 64.5757 28.0059 64.9581 27.2656 65.7212C26.5253 66.4843 26.1514 67.4667 26.1513 68.5972C26.1514 69.7275 26.5183 70.6598 27.2656 71.4087C28.013 72.1577 28.9717 72.5327 30.1562 72.5327C30.9177 72.5327 31.5738 72.3911 32.1308 72.1226C32.6877 71.854 33.1667 71.4368 33.5615 70.8716L31.9687 70.1226C31.4541 70.6171 30.8475 70.8646 30.1425 70.8647C29.5503 70.8647 29.0633 70.7091 28.6826 70.3911C28.302 70.0732 28.0621 69.6496 27.9775 69.1128H34.0556L34.0693 69.0981V68.7378C34.0692 67.4875 33.7031 66.4842 32.956 65.7212C32.2086 64.9581 31.2421 64.5757 30.0576 64.5757ZM10.1103 64.7886V72.3491H12V64.7886H10.1103ZM38.4267 64.5903C38.0744 64.5904 37.7567 64.6826 37.4677 64.8804C37.1788 65.0782 36.9467 65.3615 36.7705 65.7358V64.7817H35.1484L35.1347 64.7886V72.3491H37.0097V68.9224C37.0097 67.8696 37.109 67.1558 37.3134 66.7954C37.5179 66.4352 37.7646 66.2515 38.0537 66.2515C38.2017 66.2516 38.3781 66.3075 38.6035 66.4204L39.1953 64.7886C38.9275 64.6544 38.6734 64.5903 38.4267 64.5903ZM66.9072 64.7886V72.3491H68.7968V64.7886H66.9072ZM17.8535 64.5913C17.487 64.5913 17.1276 64.662 16.7822 64.8032C16.4297 64.9445 16.0414 65.1988 15.6113 65.5591V64.7817H13.7285V72.3423H15.6181V69.311C15.6181 68.5268 15.6467 68.011 15.7031 67.7778C15.8089 67.3257 15.9994 66.9648 16.2744 66.7104C16.5493 66.4493 16.8811 66.3218 17.2617 66.3218C17.5506 66.3219 17.8046 66.3998 18.0019 66.5552C18.2063 66.7106 18.3472 66.9372 18.4248 67.2339C18.5023 67.5307 18.5449 68.1246 18.5449 69.0288V72.3423H20.4131V67.3472C20.413 66.4783 20.1947 65.8206 19.7578 65.3755C19.236 64.8526 18.6009 64.5913 17.8535 64.5913ZM22.4716 61.9976V64.7817H21.498V66.4146H22.4716V72.3423H24.3613V66.4146H25.4824V64.7817H24.3613V61.9976H22.4716ZM44.2666 64.5913C43.9001 64.5914 43.5406 64.662 43.1953 64.8032C42.8428 64.9445 42.4545 65.1988 42.0244 65.5591V64.7817H40.1425V72.3423H42.0322V69.311C42.0322 68.5269 42.0598 68.011 42.1162 67.7778C42.222 67.3257 42.4125 66.9648 42.6875 66.7104C42.9624 66.4492 43.2941 66.3218 43.6748 66.3218C43.9637 66.3218 44.2176 66.3998 44.415 66.5552C44.6195 66.7106 44.7603 66.9371 44.8379 67.2339C44.9154 67.5307 44.958 68.1245 44.958 69.0288V72.3423H46.8261V67.3472C46.8261 66.4782 46.6079 65.8206 46.1709 65.3755C45.6491 64.8526 45.0139 64.5913 44.2666 64.5913ZM83.7451 64.5913C83.3786 64.5913 83.0192 64.662 82.6738 64.8032C82.3213 64.9445 81.933 65.1988 81.5029 65.5591V64.7817H79.6201V72.3423H81.5097V69.311C81.5097 68.5269 81.5383 68.011 81.5947 67.7778C81.7005 67.3257 81.891 66.9648 82.166 66.7104C82.4409 66.4492 82.7727 66.3218 83.1533 66.3218C83.4422 66.3218 83.6962 66.3998 83.8935 66.5552C84.098 66.7106 84.2388 66.9371 84.3164 67.2339C84.3939 67.5307 84.4365 68.1245 84.4365 69.0288V72.3423H86.3047V67.3472C86.3046 66.4782 86.0864 65.8206 85.6494 65.3755C85.1276 64.8526 84.4925 64.5913 83.7451 64.5913ZM97.2978 61.8618V72.3413H99.1875V61.8618H97.2978ZM91.7119 66.3364C92.3112 66.3364 92.8053 66.534 93.2002 66.9438C93.5879 67.3536 93.785 67.8624 93.7851 68.5405C93.7851 69.2188 93.5949 69.7565 93.2002 70.1733C92.8054 70.5901 92.2906 70.7953 91.7197 70.7954C91.1486 70.7954 90.6614 70.5904 90.2666 70.1665C89.8717 69.7426 89.6748 69.2052 89.6748 68.5552C89.6748 67.9052 89.8651 67.3754 90.2529 66.9585C90.6406 66.5417 91.1268 66.3365 91.7119 66.3364ZM52.2343 66.3364C52.8335 66.3365 53.3269 66.5341 53.7216 66.9438C54.1094 67.3536 54.3066 67.8623 54.3066 68.5405C54.3066 69.2188 54.1164 69.7565 53.7216 70.1733C53.3269 70.59 52.8121 70.7944 52.2412 70.7944C51.6701 70.7944 51.1839 70.5894 50.789 70.1655C50.3943 69.7417 50.1963 69.2051 50.1963 68.5552C50.1963 67.9051 50.3866 67.3744 50.7744 66.9575C51.1622 66.5408 51.6492 66.3364 52.2343 66.3364ZM74.0986 66.3726C74.6978 66.3726 75.1913 66.5702 75.5791 66.98C75.9668 67.3898 76.1572 67.913 76.1572 68.563C76.1571 69.2128 75.9601 69.7431 75.5654 70.1528C75.1706 70.5697 74.6762 70.7739 74.084 70.7739C73.4919 70.7738 73.0058 70.5761 72.6181 70.1665C72.2304 69.7567 72.0391 69.2128 72.039 68.5698C72.0391 67.9269 72.2301 67.4035 72.625 66.9937C73.0127 66.5841 73.5067 66.3794 74.0918 66.3794L74.0986 66.3726ZM30.1347 66.2017C30.6212 66.2017 31.0523 66.3357 31.4189 66.5972C31.7853 66.8586 32.0323 67.1978 32.1591 67.6216L32.1513 67.6284H28.0478C28.2664 67.1551 28.4923 66.8297 28.7461 66.646C29.1408 66.3495 29.6062 66.2017 30.1347 66.2017ZM11.0576 61.6724C10.7281 61.6734 10.4406 61.7868 10.209 62.0259C9.97643 62.266 9.85651 62.5344 9.85641 62.8804C9.85641 63.2266 9.96922 63.5239 10.209 63.7642C10.4487 64.0114 10.738 64.1313 11.0693 64.1313C11.4006 64.1313 11.6824 64.0111 11.915 63.771C12.1476 63.5378 12.2675 63.2549 12.2675 62.9087C12.2675 62.5626 12.1478 62.2729 11.9082 62.0327C11.6691 61.7931 11.3878 61.673 11.0576 61.6724ZM67.8545 61.6724C67.5249 61.6733 67.2375 61.7868 67.0058 62.0259C66.7732 62.266 66.6534 62.5343 66.6533 62.8804C66.6533 63.2266 66.7661 63.5239 67.0058 63.7642C67.2455 64.0113 67.5349 64.1313 67.8662 64.1313C68.1974 64.1312 68.4793 64.0111 68.7119 63.771C68.9445 63.5378 69.0644 63.2549 69.0644 62.9087C69.0643 62.5627 68.9446 62.2729 68.705 62.0327C68.466 61.7932 68.1846 61.6731 67.8545 61.6724Z" fill="white"/>
</svg>
