<svg width="32" height="32" viewBox="0 0 32 32" fill="none" xmlns="http://www.w3.org/2000/svg">
<path fill-rule="evenodd" clip-rule="evenodd" d="M25.8973 7.85121C26.9879 8.13657 27.8451 8.9743 28.137 10.0403C28.6646 11.9705 28.6667 16.0002 28.6667 16.0002C28.6667 16.0002 28.6667 20.0298 28.137 21.9601C27.8451 23.0261 26.9879 23.8638 25.8973 24.1491C23.9225 24.6668 16 24.6668 16 24.6668C16 24.6668 8.07763 24.6668 6.10277 24.1491C5.01212 23.8638 4.15502 23.0261 3.86306 21.9601C3.33337 20.0298 3.33337 16.0002 3.33337 16.0002C3.33337 16.0002 3.33337 11.9705 3.86306 10.0403C4.15502 8.9743 5.01212 8.13657 6.10277 7.85121C8.07763 7.3335 16 7.3335 16 7.3335C16 7.3335 23.9225 7.3335 25.8973 7.85121ZM20.0458 16.0005L13.4643 19.7142V12.2868L20.0458 16.0005Z" fill="#333F5B"/>
</svg>
