<svg width="53" height="12" viewBox="0 0 53 12" fill="none" xmlns="http://www.w3.org/2000/svg">
<path d="M3.84865 11.2996H0.968536V11.7602H3.84865V11.2996Z" fill="#9BA2B0"/>
<path d="M3.84865 0.239783H0.968536V0.700384H3.84865V0.239783Z" fill="#9BA2B0"/>
<path d="M3.84865 3.00474H0.968536V3.46534H3.84865V3.00474Z" fill="#9BA2B0"/>
<path d="M3.84865 5.7697H0.968536V6.2303H3.84865V5.7697Z" fill="#9BA2B0"/>
<path d="M3.84865 8.53466H0.968536V8.99526H3.84865V8.53466Z" fill="#9BA2B0"/>
<path d="M52.8105 11.2996H49.9304V11.7602H52.8105V11.2996Z" fill="#9BA2B0"/>
<path d="M52.8105 0.239783H49.9304V0.700384H52.8105V0.239783Z" fill="#9BA2B0"/>
<path d="M52.8105 3.00474H49.9304V3.46534H52.8105V3.00474Z" fill="#9BA2B0"/>
<path d="M52.8105 5.7697H49.9304V6.2303H52.8105V5.7697Z" fill="#9BA2B0"/>
<path d="M52.8105 8.53466H49.9304V8.99526H52.8105V8.53466Z" fill="#9BA2B0"/>
<path d="M6.72876 11.7602H9.91232L10.8403 7.37638H15.4802L15.9611 5.15195H11.3199L11.8807 2.46421H16.8728L17.3524 0.239783H9.17671L6.72876 11.7602Z" fill="#9BA2B0"/>
<path d="M17.7845 11.7602H21.0724L23.5122 0.239783H20.2257L17.7845 11.7602Z" fill="#9BA2B0"/>
<path d="M23.9214 11.7602H32.7215L33.2011 9.52089H27.5682L28.0803 7.05667H33.2661L33.7457 4.8485H28.5612L29.0733 2.44796H34.5775L35.0421 0.239783H26.3693L23.9214 11.7602Z" fill="#9BA2B0"/>
<path d="M43.4278 0.239783H37.8112L35.37 11.7602H38.5779L39.4558 7.6121C41.4187 7.54843 43.0146 7.72319 44.3381 7.19756C45.216 6.84669 45.8066 6.23978 46.2523 5.60172C46.7157 4.94739 47.0503 3.95846 47.0503 3.2093C47.0503 2.46015 46.9703 2.0131 46.7157 1.5972C46.0939 0.575751 45.025 0.241138 43.4291 0.241138L43.4278 0.239783ZM43.0769 4.99481C42.7261 5.282 42.1991 5.4107 41.4499 5.4107H39.934L40.5721 2.37887H42.0568C43.3966 2.37887 43.7637 2.77851 43.7637 3.48024C43.7637 3.86363 43.6039 4.56536 43.0783 4.99616L43.0769 4.99481Z" fill="#9BA2B0"/>
</svg>
