<svg width="68" height="12" viewBox="0 0 68 12" fill="none" xmlns="http://www.w3.org/2000/svg">
<path d="M3.84835 11.2983H0.968567V11.7589H3.84835V11.2983Z" fill="#9BA2B0"/>
<path d="M3.84835 0.239756H0.968567V0.700305H3.84835V0.239756Z" fill="#9BA2B0"/>
<path d="M3.84835 3.0044H0.968567V3.46495H3.84835V3.0044Z" fill="#9BA2B0"/>
<path d="M3.84835 5.76905H0.968567V6.2296H3.84835V5.76905Z" fill="#9BA2B0"/>
<path d="M3.84835 8.53369H0.968567V8.99424H3.84835V8.53369Z" fill="#9BA2B0"/>
<path d="M13.4833 0C10.9096 0 9.1609 0.999661 8.33462 2.42872C8.0014 3.00034 7.81042 3.63562 7.81042 4.30207C7.81042 5.44396 8.38339 6.28649 10.0983 6.74568L12.7207 7.45953C13.2774 7.61802 13.5158 7.88757 13.5158 8.28446C13.5158 9.1893 12.7843 9.87199 11.4975 9.87199C10.4166 9.87199 9.87612 9.44396 9.87612 8.60278C9.87612 8.46055 9.89237 8.28581 9.93978 8.09482H6.74573C6.66581 8.42804 6.63468 8.76126 6.63468 9.06333C6.63468 11.0152 8.11249 12 10.9571 12C12.8805 12 14.4057 11.4758 15.3905 10.6671C16.4552 9.79343 16.8995 8.50796 16.8995 7.49204C16.8995 6.98408 16.8047 6.23772 15.9784 5.69861C15.5815 5.44531 15.0248 5.23806 14.2459 5.01592L12.2114 4.46055C11.3688 4.2384 11.2103 3.93634 11.2103 3.55571C11.2103 2.71453 11.9892 2.06299 13.0065 2.06299C13.8328 2.06299 14.2459 2.44362 14.2459 3.0789C14.2459 3.22249 14.231 3.38097 14.166 3.65053H17.3925C17.4725 3.2699 17.5199 2.92042 17.5199 2.61835C17.5199 0.888588 16.2168 0 13.4833 0Z" fill="#9BA2B0"/>
<path d="M17.8734 11.7589H26.6726L27.1521 9.51846H21.5212L22.0332 7.05588H27.2171L27.6966 4.84795H22.5128L23.0248 2.44768H28.5283L28.9929 0.239756H20.3211L17.8734 11.7589Z" fill="#9BA2B0"/>
<path d="M39.8687 0.239756L38.082 8.80731L36.0068 0.239756H31.6045L29.1636 11.7589H31.9716L33.8382 2.80935L35.912 11.7589H40.2195L42.6604 0.239756H39.8687Z" fill="#9BA2B0"/>
<path d="M48.5012 0.239756L41.5131 11.7589H44.7044L45.9804 9.44531H50.5913L50.8947 11.7589H54.5006L52.3942 0.239756H48.5012ZM47.1778 7.32408L49.7948 2.48967H49.8436L50.3055 7.32408H47.1778Z" fill="#9BA2B0"/>
<path d="M55.7183 11.7589H59.0045L61.4454 0.239756H58.1592L55.7183 11.7589Z" fill="#9BA2B0"/>
<path d="M67.2049 11.2983H64.3251V11.7589H67.2049V11.2983Z" fill="#9BA2B0"/>
<path d="M67.2049 0.239756H64.3251V0.700305H67.2049V0.239756Z" fill="#9BA2B0"/>
<path d="M67.2049 3.0044H64.3251V3.46495H67.2049V3.0044Z" fill="#9BA2B0"/>
<path d="M67.2049 5.76905H64.3251V6.2296H67.2049V5.76905Z" fill="#9BA2B0"/>
<path d="M67.2049 8.53369H64.3251V8.99424H67.2049V8.53369Z" fill="#9BA2B0"/>
</svg>
