<svg width="38" height="12" viewBox="0 0 38 12" fill="none" xmlns="http://www.w3.org/2000/svg">
<path d="M37.9373 11.2996H35.0572V11.7602H37.9373V11.2996Z" fill="#9BA2B0"/>
<path d="M37.9373 0.239783H35.0572V0.700384H37.9373V0.239783Z" fill="#9BA2B0"/>
<path d="M37.9373 3.00474H35.0572V3.46534H37.9373V3.00474Z" fill="#9BA2B0"/>
<path d="M37.9373 5.7697H35.0572V6.2303H37.9373V5.7697Z" fill="#9BA2B0"/>
<path d="M37.9373 8.53466H35.0572V8.99526H37.9373V8.53466Z" fill="#9BA2B0"/>
<path d="M3.37599 11.2996H0.495911V11.7602H3.37599V11.2996Z" fill="#9BA2B0"/>
<path d="M3.37599 0.239783H0.495911V0.700384H3.37599V0.239783Z" fill="#9BA2B0"/>
<path d="M3.37599 3.00474H0.495911V3.46534H3.37599V3.00474Z" fill="#9BA2B0"/>
<path d="M3.37599 5.7697H0.495911V6.2303H3.37599V5.7697Z" fill="#9BA2B0"/>
<path d="M3.37599 8.53466H0.495911V8.99526H3.37599V8.53466Z" fill="#9BA2B0"/>
<path d="M6.2561 11.7602H9.54262L11.9838 0.239783H8.69728L6.2561 11.7602Z" fill="#9BA2B0"/>
<path d="M22.873 2.44796L23.3376 0.239783H14.6648L12.2168 11.7602H21.017L21.4966 9.52089H15.8651L16.3771 7.05667H21.5616L22.0412 4.8485H16.8567L17.3688 2.44796H22.873Z" fill="#9BA2B0"/>
<path d="M28.9705 0.239783H25.7314L23.2902 11.7602H31.6989L32.1771 9.49515H27.0075L28.9705 0.239783Z" fill="#9BA2B0"/>
</svg>
