<svg width="53" height="12" viewBox="0 0 53 12" fill="none" xmlns="http://www.w3.org/2000/svg">
<path d="M52.8533 11.2983H49.9736V11.7589H52.8533V11.2983Z" fill="#9BA2B0"/>
<path d="M52.8533 0.239756H49.9736V0.700305H52.8533V0.239756Z" fill="#9BA2B0"/>
<path d="M52.8533 3.0044H49.9736V3.46495H52.8533V3.0044Z" fill="#9BA2B0"/>
<path d="M52.8533 5.76905H49.9736V6.2296H52.8533V5.76905Z" fill="#9BA2B0"/>
<path d="M52.8533 8.53369H49.9736V8.99424H52.8533V8.53369Z" fill="#9BA2B0"/>
<path d="M3.84826 11.2983H0.968475V11.7589H3.84826V11.2983Z" fill="#9BA2B0"/>
<path d="M3.84826 0.239756H0.968475V0.700305H3.84826V0.239756Z" fill="#9BA2B0"/>
<path d="M3.84826 3.0044H0.968475V3.46495H3.84826V3.0044Z" fill="#9BA2B0"/>
<path d="M3.84826 5.76905H0.968475V6.2296H3.84826V5.76905Z" fill="#9BA2B0"/>
<path d="M3.84826 8.53369H0.968475V8.99424H3.84826V8.53369Z" fill="#9BA2B0"/>
<path d="M13.5293 0C10.9556 0 9.20687 0.999661 8.38059 2.42872C8.04737 3.00034 7.85638 3.63562 7.85638 4.30207C7.85638 5.44396 8.42936 6.28513 10.1442 6.74568L12.7666 7.45953C13.3234 7.61802 13.5618 7.88757 13.5618 8.28446C13.5618 9.1893 12.8303 9.87199 11.5435 9.87199C10.4625 9.87199 9.92208 9.44396 9.92208 8.60278C9.92208 8.46055 9.93833 8.28581 9.98574 8.09482H6.7917C6.71179 8.42804 6.68064 8.76126 6.68064 9.06333C6.68064 11.0152 8.15845 12 11.003 12C12.9265 12 14.4517 11.4758 15.4365 10.6671C16.5012 9.79343 16.9454 8.50796 16.9454 7.49204C16.9454 6.98408 16.8506 6.23772 16.0244 5.69861C15.6275 5.44531 15.0707 5.23806 14.2919 5.01592L12.2573 4.46055C11.4148 4.2384 11.2563 3.93634 11.2563 3.55571C11.2563 2.71453 12.0352 2.06299 13.0525 2.06299C13.8787 2.06299 14.2919 2.44362 14.2919 3.0789C14.2919 3.22249 14.277 3.38097 14.212 3.65053H17.4385C17.5184 3.2699 17.5658 2.92042 17.5658 2.61835C17.5658 0.888588 16.2627 0 13.5293 0Z" fill="#9BA2B0"/>
<path d="M18.2837 11.7589H27.0843L27.5638 9.51846H21.9316L22.4436 7.05588H27.6275L28.1083 4.84795H22.9244L23.4365 2.44768H28.94L29.4033 0.239756H20.7314L18.2837 11.7589Z" fill="#9BA2B0"/>
<path d="M36.4998 0C33.9262 0 32.1774 0.999661 31.3511 2.42872C31.0179 3.00034 30.8269 3.63562 30.8269 4.30207C30.8269 5.44396 31.3999 6.28513 33.1148 6.74568L35.7372 7.45953C36.2939 7.61802 36.5323 7.88757 36.5323 8.28446C36.5323 9.1893 35.8009 9.87199 34.514 9.87199C33.4331 9.87199 32.8926 9.44396 32.8926 8.60278C32.8926 8.46055 32.9089 8.28581 32.9563 8.09482H29.7622C29.6823 8.42804 29.6512 8.76126 29.6512 9.06333C29.6512 11.0152 31.129 12 33.9736 12C35.897 12 37.4223 11.4758 38.407 10.6671C39.4717 9.79343 39.916 8.50796 39.916 7.49204C39.916 6.98408 39.8212 6.23772 38.9949 5.69861C38.598 5.44531 38.0413 5.23806 37.2624 5.01592L35.2279 4.46055C34.3853 4.2384 34.2269 3.93634 34.2269 3.55571C34.2269 2.71453 35.0057 2.06299 36.023 2.06299C36.8493 2.06299 37.2624 2.44362 37.2624 3.0789C37.2624 3.22249 37.2475 3.38097 37.1825 3.65053H40.409C40.489 3.2699 40.5364 2.92042 40.5364 2.61835C40.5364 0.888588 39.2333 0 36.4998 0Z" fill="#9BA2B0"/>
<path d="M41.3667 11.7589H44.6529L47.0938 0.239756H43.8063L41.3667 11.7589Z" fill="#9BA2B0"/>
</svg>
