<svg width="85" height="12" viewBox="0 0 85 12" fill="none" xmlns="http://www.w3.org/2000/svg">
<path d="M84.5013 11.3098H81.6211V11.7704H84.5013V11.3098Z" fill="#9BA2B0"/>
<path d="M84.5013 0.249944H81.6211V0.710545H84.5013V0.249944Z" fill="#9BA2B0"/>
<path d="M84.5013 3.0149H81.6211V3.4755H84.5013V3.0149Z" fill="#9BA2B0"/>
<path d="M84.5013 5.77986H81.6211V6.24046H84.5013V5.77986Z" fill="#9BA2B0"/>
<path d="M84.5013 8.54482H81.6211V9.00542H84.5013V8.54482Z" fill="#9BA2B0"/>
<path d="M8.02936 4.9264C7.795 4.73674 7.51999 4.57824 7.20706 4.45089C6.89412 4.32355 6.56086 4.20163 6.20593 4.08648L5.08152 3.74103C4.51254 3.56762 4.11155 3.39693 3.87718 3.22759C3.64282 3.05825 3.52496 2.86724 3.52496 2.6532C3.52496 2.47979 3.56154 2.32807 3.63605 2.19666C3.71056 2.06525 3.80945 1.95552 3.93273 1.86882C4.05601 1.78212 4.19825 1.71845 4.35946 1.67781C4.52067 1.63717 4.6873 1.61549 4.85935 1.61549C5.71552 1.61549 6.17341 2.03951 6.23031 2.88756H8.55364C8.55364 2.40122 8.46287 1.98939 8.28134 1.65207C8.09981 1.31474 7.8519 1.04109 7.53896 0.829759C7.22602 0.618425 6.85212 0.466698 6.41862 0.371868C5.98511 0.277039 5.51367 0.229624 5.00159 0.229624C4.48951 0.229624 4.01401 0.281103 3.54799 0.38406C3.08197 0.487018 2.6715 0.649583 2.31656 0.871755C1.96163 1.09393 1.67849 1.37842 1.46852 1.72387C1.25854 2.06932 1.15287 2.48521 1.15287 2.97155C1.15287 3.2601 1.19893 3.52292 1.28969 3.7627C1.38046 4.00113 1.52541 4.21924 1.72455 4.41702C1.9237 4.61481 2.18245 4.79228 2.5008 4.94807C2.81916 5.10522 3.20254 5.24882 3.64824 5.38022L5.09371 5.80018C5.27524 5.84895 5.44323 5.90585 5.60037 5.96681C5.75616 6.02913 5.89299 6.09822 6.00814 6.17679C6.12329 6.25536 6.21406 6.35019 6.28044 6.46128C6.34682 6.57236 6.37933 6.70648 6.37933 6.86227C6.37933 7.06819 6.33327 7.24565 6.24386 7.39332C6.15309 7.54234 6.03523 7.66561 5.89163 7.76451C5.74804 7.8634 5.58276 7.93791 5.39717 7.98668C5.21157 8.03545 5.02462 8.06119 4.83496 8.06119C3.82977 8.06119 3.31498 7.57078 3.2906 6.59133H0.968628C0.976756 7.12644 1.07565 7.57756 1.26531 7.94468C1.45497 8.31181 1.71778 8.61256 2.05646 8.84692C2.39378 9.08128 2.79613 9.25062 3.26079 9.35358C3.72546 9.45654 4.23076 9.50802 4.774 9.50802C5.22647 9.50802 5.68978 9.4606 6.16393 9.36577C6.63808 9.27094 7.06752 9.11244 7.45497 8.89027C7.84241 8.6681 8.15942 8.37142 8.40597 8.00023C8.65253 7.62904 8.77716 7.1725 8.77716 6.62926C8.77716 6.22556 8.71078 5.88824 8.57937 5.61594C8.44797 5.34365 8.26373 5.11335 8.02936 4.92369V4.9264Z" fill="#9BA2B0"/>
<path d="M11.8171 3.16663H9.65501V9.40641H11.8171V3.16663Z" fill="#9BA2B0"/>
<path d="M18.3482 6.3231C18.023 6.0508 17.5055 5.83269 16.797 5.66877L15.4505 5.34771C15.2202 5.28946 15.0467 5.21224 14.9316 5.11334C14.8164 5.01445 14.7582 4.87898 14.7582 4.70558C14.7582 4.46715 14.8571 4.29375 15.0549 4.18672C15.2527 4.0797 15.4626 4.02551 15.6848 4.02551C15.9652 4.02551 16.1888 4.10815 16.3581 4.27207C16.5274 4.43735 16.6155 4.67577 16.6236 4.98871H18.6503C18.634 4.58501 18.5324 4.25311 18.3482 3.99436C18.1626 3.73425 17.9282 3.52969 17.6437 3.37661C17.3592 3.22488 17.0449 3.11921 16.6981 3.06096C16.3527 3.00271 16.0099 2.97426 15.6726 2.97426C15.3678 2.97426 15.0467 3.00271 14.7094 3.06096C14.3721 3.11921 14.0605 3.21946 13.776 3.36306C13.4915 3.50666 13.2572 3.70445 13.0716 3.95642C12.886 4.2084 12.7939 4.52676 12.7939 4.9142C12.7939 5.1865 12.8453 5.41815 12.9483 5.61188C13.0513 5.8056 13.1894 5.96816 13.3615 6.09957C13.5349 6.23098 13.734 6.34071 13.9603 6.42741C14.1865 6.51411 14.4236 6.58591 14.6701 6.64416L15.6713 6.87853C16.0587 6.96929 16.3405 7.07496 16.518 7.19418C16.6954 7.31339 16.7835 7.46783 16.7835 7.65749C16.7835 7.78889 16.755 7.90404 16.6968 8.00294C16.6385 8.10183 16.5613 8.18447 16.4624 8.24949C16.3635 8.31587 16.2524 8.36464 16.1292 8.39716C16.0059 8.42967 15.8772 8.44592 15.7458 8.44592C15.4003 8.44592 15.147 8.35787 14.9858 8.1804C14.8246 8.00294 14.7365 7.73335 14.7203 7.37164H12.6205C12.6205 7.79973 12.7085 8.15195 12.886 8.42831C13.0635 8.70467 13.2951 8.92278 13.5837 9.08264C13.8722 9.24385 14.2014 9.35493 14.5726 9.4159C14.9438 9.47821 15.3218 9.50802 15.7092 9.50802C16.0966 9.50802 16.4773 9.47279 16.8526 9.4037C17.2278 9.33326 17.5611 9.21811 17.8537 9.05825C18.1463 8.89704 18.3834 8.68706 18.5636 8.42831C18.7451 8.16821 18.8359 7.84985 18.8359 7.47054C18.8359 6.97607 18.6733 6.59269 18.3482 6.32174V6.3231Z" fill="#9BA2B0"/>
<path d="M22.4191 1.2443L20.3437 1.26327V3.17205H19.1691V4.51863H20.3437V7.63987C20.3437 8.01919 20.3843 8.32942 20.4669 8.5692C20.5496 8.80899 20.6783 8.99865 20.8557 9.13954C21.0332 9.28043 21.2594 9.37661 21.5358 9.4308C21.8122 9.48499 22.1386 9.51073 22.518 9.51073C22.7401 9.51073 22.9664 9.49989 23.198 9.47957C23.4283 9.45925 23.6681 9.43215 23.9147 9.39964V8.05306C23.8076 8.06932 23.702 8.08151 23.599 8.08964C23.4961 8.09777 23.3999 8.10183 23.3091 8.10183C22.9379 8.10183 22.6981 8.02732 22.5871 7.8783C22.476 7.72929 22.4204 7.47325 22.4204 7.10883V4.51727H23.9282V3.17069H22.4204V1.2443H22.4191Z" fill="#9BA2B0"/>
<path d="M31.0201 5.56311C30.9876 5.26236 30.909 4.96839 30.7857 4.67984C30.5297 4.08648 30.1409 3.65432 29.618 3.38203C29.0951 3.10973 28.4787 2.97426 27.7715 2.97426C26.6268 2.97426 25.7638 3.27501 25.1827 3.8765C24.6015 4.47799 24.3116 5.30165 24.3116 6.34748C24.3116 6.79183 24.3739 7.2023 24.4972 7.57756C24.6205 7.95281 24.802 8.27117 25.0404 8.53534C25.329 8.86453 25.6934 9.10973 26.1337 9.27094C26.574 9.43215 27.1077 9.51208 27.7336 9.51208C28.2524 9.51208 28.7266 9.45247 29.1547 9.33326C29.5828 9.21404 29.954 9.00948 30.2669 8.72229C30.4647 8.54075 30.6272 8.33484 30.7546 8.10454C30.8819 7.87424 30.9673 7.68458 31.0079 7.3879H28.9569C28.8661 8.09641 28.4665 8.37683 27.758 8.37683C27.5114 8.37683 27.3028 8.33213 27.1334 8.24136C26.9641 8.1506 26.8259 8.02461 26.7203 7.86475C26.6132 7.70354 26.5347 7.5166 26.4859 7.30255C26.4371 7.08851 26.4114 6.85821 26.4114 6.6103H31.0689C31.0689 6.21472 31.0526 5.86656 31.0201 5.56582V5.56311ZM26.448 5.54414C26.448 5.0998 26.5672 4.74351 26.807 4.47528C27.0454 4.20704 27.3705 4.07428 27.7824 4.07428C28.1942 4.07428 28.4882 4.20163 28.69 4.45767C28.8919 4.71371 28.9935 5.07541 28.9935 5.5455H26.448V5.54414Z" fill="#9BA2B0"/>
<path d="M41.6776 3.36306C41.3443 3.1734 40.9054 3.07857 40.3622 3.07857C39.8677 3.07857 39.4369 3.16663 39.0711 3.3441C38.704 3.52156 38.3857 3.8196 38.1134 4.23956C37.9237 3.81147 37.6609 3.51073 37.3222 3.33732C36.9849 3.16392 36.5812 3.07722 36.1111 3.07722C35.641 3.07722 35.2319 3.15986 34.881 3.32378C34.5302 3.48905 34.2281 3.76406 33.9734 4.1515L33.9111 3.16257H31.8234C31.8316 3.3441 31.837 3.50395 31.8424 3.64484C31.8465 3.78438 31.8492 3.92933 31.8492 4.07699V9.40235H34.0113V5.90585C34.0113 5.69993 34.0221 5.52111 34.0425 5.36803C34.0628 5.2163 34.1061 5.07406 34.1725 4.9413C34.2633 4.76789 34.3893 4.63107 34.5491 4.52811C34.7103 4.42515 34.9095 4.37367 35.1479 4.37367C35.3863 4.37367 35.5909 4.42515 35.7345 4.52811C35.8781 4.63107 35.9838 4.76519 36.0501 4.9291C36.1084 5.06051 36.145 5.20682 36.1612 5.36803C36.1775 5.52924 36.1856 5.704 36.1856 5.89366V9.40235H38.3477V5.93023C38.3477 5.70806 38.3626 5.50215 38.3911 5.31249C38.4195 5.12283 38.4737 4.95891 38.5523 4.81802C38.6308 4.67848 38.7419 4.56875 38.8855 4.49018C39.0291 4.41161 39.2215 4.37232 39.4599 4.37232C39.6984 4.37232 39.8758 4.41161 40.0154 4.49018C40.1549 4.56875 40.2619 4.67577 40.3364 4.81124C40.4109 4.94672 40.4597 5.10793 40.4841 5.29352C40.5085 5.47912 40.5207 5.67419 40.5207 5.88011V9.40099H42.6828V5.58343C42.6828 5.02393 42.5961 4.55791 42.424 4.18672C42.2588 3.82502 42.0095 3.54866 41.6762 3.359L41.6776 3.36306Z" fill="#9BA2B0"/>
<path d="M49.6636 7.39332V5.42493C49.6636 4.98736 49.6135 4.62836 49.5146 4.34793C49.4157 4.06751 49.2707 3.83179 49.0811 3.64213C48.825 3.37796 48.4945 3.2005 48.0908 3.10973C47.6857 3.01897 47.2034 2.97426 46.6426 2.97426C46.312 2.97426 45.972 3.00136 45.6211 3.05419C45.2703 3.10838 44.9479 3.20727 44.6552 3.35087C44.3626 3.49582 44.1188 3.69497 43.925 3.95101C43.7313 4.20705 43.6297 4.60668 43.6216 5.00361H45.739C45.739 4.72319 45.8108 4.42651 45.9558 4.26123C46.1007 4.09596 46.3378 4.01332 46.667 4.01332C46.8404 4.01332 46.984 4.04448 47.1005 4.1068C47.2156 4.16911 47.3105 4.24904 47.385 4.34793C47.4595 4.44683 47.511 4.56062 47.5394 4.68797C47.5679 4.81666 47.5828 4.94942 47.5828 5.09031V5.48589H47.0002C46.5464 5.48589 46.0939 5.51027 45.6442 5.5604C45.1944 5.61052 44.7894 5.70942 44.4304 5.85708C44.0714 6.0061 43.7801 6.21879 43.5579 6.49515C43.3358 6.77151 43.2233 7.13728 43.2233 7.5911C43.2233 7.91353 43.2789 8.1953 43.3899 8.43915C43.501 8.683 43.6555 8.8835 43.8546 9.03929C44.0524 9.19643 44.2895 9.31429 44.5658 9.39151C44.8422 9.47009 45.1416 9.50937 45.4626 9.50937C45.9585 9.50937 46.373 9.43351 46.7063 9.28043C47.0409 9.12734 47.3308 8.85369 47.5787 8.45676C47.595 8.63829 47.6139 8.80086 47.6342 8.94581C47.6546 9.09077 47.6857 9.23707 47.7277 9.38474H49.7584C49.7083 9.03793 49.6799 8.71009 49.6717 8.40122C49.6636 8.09099 49.6595 7.75502 49.6595 7.39196L49.6636 7.39332ZM47.5841 6.48973C47.5841 6.72951 47.5651 6.95981 47.5286 7.18334C47.492 7.40551 47.4229 7.60465 47.324 7.77805C47.2251 7.95146 47.0869 8.09235 46.9095 8.19937C46.732 8.30639 46.5071 8.36058 46.2348 8.36058C45.9625 8.36058 45.7458 8.28065 45.5602 8.11944C45.3746 7.95823 45.2811 7.74554 45.2811 7.48137C45.2811 7.26733 45.3367 7.08986 45.4477 6.94897C45.5588 6.80808 45.6997 6.697 45.8691 6.61436C46.0384 6.53172 46.224 6.47483 46.4258 6.44096C46.6277 6.40844 46.8241 6.39083 47.0138 6.39083H47.2861C47.4094 6.39083 47.5083 6.3949 47.5828 6.40303V6.48973H47.5841Z" fill="#9BA2B0"/>
<path d="M53.7237 9.40506H56.0226V5.72432H59.6911V4.22872H55.9968V2.00429H59.9269V0.472116H53.7237V9.40506Z" fill="#9BA2B0"/>
<path d="M63.1443 3.16663H60.9822V9.40641H63.1443V3.16663Z" fill="#9BA2B0"/>
<path d="M70.8133 5.61865C70.7808 5.31791 70.7022 5.02393 70.5789 4.73538C70.3229 4.14202 69.9341 3.70987 69.4112 3.43757C68.8882 3.16528 68.2719 3.0298 67.5647 3.0298C66.42 3.0298 65.557 3.33055 64.9759 3.93204C64.3947 4.53353 64.1048 5.35719 64.1048 6.40303C64.1048 6.84737 64.1671 7.25785 64.2904 7.6331C64.4137 8.00835 64.5952 8.32671 64.8336 8.59088C65.1222 8.92007 65.4866 9.16527 65.9269 9.32648C66.3671 9.48769 66.9009 9.56762 67.5268 9.56762C68.0456 9.56762 68.5198 9.50802 68.9479 9.3888C69.3759 9.26959 69.7471 9.06503 70.0601 8.77647C70.2579 8.59494 70.4204 8.38903 70.5478 8.15873C70.6751 7.92843 70.7604 7.66426 70.8011 7.36758H68.7501C68.6593 8.07609 68.2597 8.42967 67.5511 8.42967C67.3046 8.42967 67.096 8.38496 66.9266 8.2942C66.7573 8.20343 66.6191 8.07744 66.5134 7.91759C66.4064 7.75638 66.3278 7.56943 66.2791 7.35539C66.2303 7.14134 66.2046 6.91104 66.2046 6.66313H70.8621C70.8621 6.26756 70.8458 5.9194 70.8133 5.61865ZM66.2411 5.59968C66.2411 5.15534 66.3604 4.79905 66.6001 4.53082C66.8386 4.26259 67.1637 4.12983 67.5755 4.12983C67.9874 4.12983 68.2813 4.25717 68.4832 4.51321C68.685 4.76925 68.7866 5.13096 68.7866 5.60104H66.2411V5.59968Z" fill="#9BA2B0"/>
<path d="M78.0556 3.93881C77.8293 3.65432 77.5408 3.43215 77.1913 3.27094C76.8404 3.10973 76.4313 3.0298 75.9612 3.0298C75.4911 3.0298 75.1131 3.11244 74.7745 3.27636C74.4371 3.44164 74.1364 3.70851 73.8722 4.0797L73.8478 3.16528H71.7223C71.7304 3.26417 71.7358 3.38203 71.7413 3.5175C71.7453 3.65297 71.7494 3.79386 71.7535 3.93746C71.7575 4.08106 71.7602 4.22195 71.7602 4.35742V11.7528H73.9223V8.60172C74.2028 8.93904 74.4927 9.18018 74.7934 9.32513C75.0942 9.46873 75.4626 9.54188 75.8989 9.54188C76.3771 9.54188 76.7943 9.45383 77.1533 9.27636C77.511 9.0989 77.8076 8.86047 78.0434 8.55972C78.2777 8.25898 78.4525 7.9054 78.569 7.49763C78.6841 7.08986 78.7424 6.655 78.7424 6.1944C78.7424 5.7338 78.6841 5.33416 78.569 4.94672C78.4538 4.55927 78.2831 4.2233 78.0556 3.94017V3.93881ZM76.4611 7.02755C76.415 7.27952 76.3391 7.50305 76.2321 7.70084C76.1251 7.89862 75.9828 8.05712 75.8054 8.17634C75.6279 8.29555 75.4084 8.35516 75.1443 8.35516C74.8801 8.35516 74.6783 8.29555 74.5144 8.17634C74.3491 8.05712 74.2204 7.89862 74.1255 7.70084C74.0307 7.50305 73.9643 7.28088 73.9278 7.03297C73.8912 6.78641 73.8722 6.5385 73.8722 6.29194C73.8722 6.04538 73.8925 5.78528 73.9345 5.53872C73.9752 5.29217 74.0497 5.07406 74.1567 4.8844C74.2637 4.69474 74.4019 4.5403 74.5712 4.42109C74.7392 4.30188 74.956 4.24227 75.2201 4.24227C75.4667 4.24227 75.6753 4.30052 75.8447 4.41567C76.014 4.53082 76.1495 4.6839 76.2524 4.87221C76.3554 5.06187 76.4272 5.27862 76.4692 5.52111C76.5098 5.7636 76.5315 6.00881 76.5315 6.25672C76.5315 6.52089 76.5085 6.77828 76.4638 7.0289L76.4611 7.02755Z" fill="#9BA2B0"/>
<path d="M10.6643 2.27252H10.7835C11.347 2.27252 11.8036 1.81599 11.8036 1.25243C11.8036 0.68887 11.347 0.232333 10.7835 0.232333H10.6643C10.1007 0.232333 9.64418 0.68887 9.64418 1.25243C9.64418 1.81599 10.1007 2.27252 10.6643 2.27252Z" fill="#9BA2B0"/>
<path d="M62.0036 2.27252H62.1228C62.6864 2.27252 63.1429 1.81599 63.1429 1.25243C63.1429 0.68887 62.6864 0.232333 62.1228 0.232333H62.0036C61.4401 0.232333 60.9835 0.68887 60.9835 1.25243C60.9835 1.81599 61.4401 2.27252 62.0036 2.27252Z" fill="#9BA2B0"/>
</svg>
