<svg width="247" height="37" viewBox="0 0 247 37" fill="none" xmlns="http://www.w3.org/2000/svg">
<g clip-path="url(#clip0_408_2503)">
<path d="M110.36 5.29736V0H0V5.29736H7.94133V6.27533H0V11.6542H7.94133V12.6322H0V18.011H7.94133V18.989H0V24.3678H7.94133V25.3458H0V30.7247H7.94133V31.7026H0V37H110.36V31.7026H102.419V30.7247H110.36V25.3458H102.419V24.3678H110.36V18.989H102.419V18.011H110.36V12.6322H102.419V11.6542H110.36V6.27533H102.419V5.29736H110.36ZM34.9582 13.1211H27.5081C27.6719 12.4692 27.6719 12.1432 27.6719 11.8172C27.6719 10.3502 26.6894 9.45374 24.8064 9.45374C22.4322 9.45374 20.6311 10.9207 20.6311 12.8767C20.6311 13.7731 20.9586 14.4251 22.9234 14.9956L27.59 16.2996C29.3911 16.7885 30.701 17.2775 31.6016 17.848C33.4846 19.0705 33.7302 20.7819 33.7302 22.0044C33.7302 24.3678 32.6659 27.3018 30.2098 29.3392C27.9175 31.2137 24.3971 32.4361 19.9761 32.4361C13.4266 32.4361 9.98807 30.1542 9.98807 25.6718C9.98807 24.9383 10.0699 24.2048 10.2337 23.4714H17.6019C17.5201 23.8789 17.4382 24.2863 17.4382 24.6123C17.4382 26.5683 18.6662 27.5463 21.2042 27.5463C24.1515 27.5463 25.8707 25.9978 25.8707 23.8789C25.8707 22.9824 25.2976 22.3304 24.0696 22.0044L18.0113 20.3744C14.0815 19.315 12.6898 17.359 12.6898 14.7511C12.6898 13.2026 13.0991 11.7357 13.9178 10.4317C15.8008 7.17181 19.8943 4.88987 25.7889 4.88987C32.0928 4.88987 35.122 6.92731 35.122 10.9207C35.2038 11.4097 35.122 12.2247 34.9582 13.1211ZM58.7822 15.8106L57.6361 20.8634H45.6831L44.537 26.5683H57.5542L56.408 31.7026H36.1044L41.7534 5.21586H61.8114L60.7471 10.2687H47.9755L46.8293 15.8106H58.7822ZM86.0447 13.1211H78.5946C78.7584 12.4692 78.7584 12.1432 78.7584 11.8172C78.7584 10.3502 77.7759 9.45374 75.8929 9.45374C73.5187 9.45374 71.7176 10.9207 71.7176 12.8767C71.7176 13.7731 72.0451 14.4251 74.0099 14.9956L78.6765 16.2996C80.4776 16.7885 81.7875 17.2775 82.6881 17.848C84.5711 19.0705 84.8167 20.7819 84.8167 22.0044C84.8167 24.3678 83.7524 27.3018 81.2963 29.3392C79.004 31.2137 75.4836 32.4361 71.0626 32.4361C64.5131 32.4361 61.0746 30.1542 61.0746 25.6718C61.0746 24.9383 61.1564 24.2048 61.3202 23.4714H68.6884C68.6066 23.8789 68.5247 24.2863 68.5247 24.6123C68.5247 26.5683 69.7527 27.5463 72.2907 27.5463C75.238 27.5463 76.9572 25.9978 76.9572 23.8789C76.9572 22.9824 76.3842 22.3304 75.1561 22.0044L69.0978 20.3744C65.168 19.315 63.7763 17.359 63.7763 14.7511C63.7763 13.2026 64.1856 11.7357 65.0043 10.4317C66.8873 7.17181 70.9808 4.88987 76.8754 4.88987C83.1793 4.88987 86.2085 6.92731 86.2085 10.9207C86.3722 11.4097 86.2904 12.2247 86.0447 13.1211ZM94.641 31.7026H87.0272L92.6762 5.21586H100.29L94.641 31.7026Z" fill="#111D4A"/>
<path d="M126.078 0.32605V2.36349H120.921V4.56393H125.751V6.60138H120.921V8.88332H126.242V11.0838H117.974V0.32605H126.078Z" fill="#111D4A"/>
<path d="M136.803 3.34141L133.774 3.42291V3.34141C133.774 2.36344 133.283 1.87445 132.301 1.87445C131.482 1.87445 130.909 2.36344 130.909 3.01542C130.909 3.5859 131.155 3.91189 132.055 4.15639L134.02 4.64537C134.757 4.80837 135.33 5.05286 135.821 5.29736C136.721 5.78634 137.131 6.60132 137.131 7.74229C137.131 10.0242 135.33 11.2467 132.382 11.2467C129.272 11.2467 127.634 10.0242 127.634 7.5793H130.663C130.663 8.72026 131.318 9.29075 132.464 9.29075C133.447 9.29075 134.102 8.88326 134.102 8.06828C134.102 7.4978 133.856 7.17181 133.201 7.00881L130.418 6.27533C129.108 5.94934 128.535 5.46035 128.126 4.88987C127.88 4.40088 127.716 3.91189 127.716 3.34141C127.716 1.30396 129.435 0 132.301 0C135.411 0 136.803 1.05947 136.803 3.34141Z" fill="#111D4A"/>
<path d="M145.891 3.66745C145.727 2.60797 144.99 2.20049 144.172 2.20049C142.616 2.20049 141.798 3.42295 141.798 5.78639C141.798 7.98683 142.616 9.2093 144.172 9.2093C145.236 9.2093 145.891 8.72031 145.973 7.66084H149.083C149.083 10.0243 147.282 11.3282 144.172 11.3282C140.57 11.3282 138.687 9.29079 138.687 5.78639C138.687 3.25996 139.751 1.22251 141.879 0.407534C142.534 0.163041 143.271 0.081543 144.172 0.081543C147.282 0.081543 149.002 1.5485 149.002 3.66745H145.891Z" fill="#111D4A"/>
<path d="M161.364 5.70485C161.364 9.29075 159.072 11.3282 155.715 11.3282C152.359 11.3282 150.148 9.29075 150.148 5.70485C150.148 3.8304 150.722 2.28194 151.786 1.30396C152.768 0.407489 154.405 0 155.879 0C159.399 0 161.364 2.20044 161.364 5.70485ZM155.797 9.12775C157.516 9.12775 158.335 7.90529 158.335 5.62335C158.335 3.50441 157.68 2.11894 155.797 2.11894C154.16 2.11894 153.259 3.25991 153.259 5.70485C153.259 7.90529 154.078 9.12775 155.797 9.12775Z" fill="#111D4A"/>
<path d="M165.949 0.244507V8.88327H170.779V11.0837H162.838V0.244507H165.949Z" fill="#111D4A"/>
<path d="M179.293 0.244507L183.55 11.0022H180.194L179.457 8.80177H175.118L174.382 11.0022H171.353L175.61 0.244507H179.293ZM177.329 2.36345L175.855 6.92733H178.802L177.329 2.36345Z" fill="#111D4A"/>
<path d="M122.558 15.3217C123.95 15.3217 125.26 15.4847 126.16 15.9736C127.879 16.8701 128.616 18.6631 128.616 20.7005C128.616 22.086 128.37 23.3899 127.552 24.3679C126.733 25.4274 125.505 26.1609 122.64 26.1609H117.81V15.3217H122.558ZM122.313 24.0419C124.359 24.0419 125.505 22.9824 125.505 20.7005C125.505 19.478 125.178 18.2556 123.95 17.6851C123.295 17.4406 122.804 17.4406 121.003 17.3591V24.0419H122.313Z" fill="#111D4A"/>
<path d="M138.604 15.4031V17.4405H133.447V19.7225H138.277V21.7599H133.447V24.0418H138.768V26.1608H130.5V15.4031H138.604Z" fill="#111D4A"/>
<path d="M149.739 15.3217C150.967 15.3217 151.703 15.4032 152.195 15.5661C153.095 15.9736 153.668 16.7886 153.668 18.1741C153.668 18.7446 153.586 19.1521 153.341 19.478C152.85 20.293 151.867 20.619 150.967 20.7005V20.782C153.013 20.8635 153.177 21.76 153.423 23.3084C153.504 24.0419 153.586 25.0199 153.914 26.0794H150.639C150.557 25.6719 150.476 25.1829 150.394 24.6124L150.23 23.3084C150.148 22.1675 149.821 21.8415 148.756 21.8415H147.528V26.0794H144.581V15.3217H149.739ZM147.61 19.967H149.248C149.821 19.967 150.23 19.8855 150.476 19.478C150.639 19.315 150.721 18.9891 150.721 18.5816C150.721 17.6851 150.23 17.2776 148.838 17.2776H147.528V19.967H147.61Z" fill="#111D4A"/>
<path d="M163.574 15.4031V17.4405H158.417V19.7225H163.247V21.7599H158.417V24.0418H163.738V26.1608H155.47V15.4031H163.574Z" fill="#111D4A"/>
<path d="M173.153 15.4031V17.4405H168.487V19.967H172.826V22.0044H168.487V26.0793H165.54V15.4031H173.153Z" fill="#111D4A"/>
<path d="M182.814 15.4031V17.4405H177.656V19.7225H182.486V21.7599H177.656V24.0418H182.978V26.1608H174.709V15.4031H182.814Z" fill="#111D4A"/>
<path d="M189.773 15.3217C191.001 15.3217 191.738 15.4032 192.229 15.5661C193.129 15.9736 193.702 16.7886 193.702 18.1741C193.702 18.7446 193.621 19.1521 193.375 19.478C192.884 20.293 191.901 20.619 191.001 20.7005V20.782C193.047 20.8635 193.211 21.76 193.457 23.3084C193.539 24.0419 193.621 25.0199 193.948 26.0794H190.673C190.592 25.6719 190.51 25.1829 190.428 24.6124V23.3084C190.346 22.1675 190.019 21.8415 188.954 21.8415H187.726V26.0794H184.697V15.3217H189.773ZM187.644 19.967H189.282C189.855 19.967 190.264 19.8855 190.51 19.478C190.673 19.315 190.755 18.9891 190.755 18.5816C190.755 17.6851 190.264 17.2776 188.872 17.2776H187.563V19.967H187.644Z" fill="#111D4A"/>
<path d="M203.609 15.4031V17.4406H198.451V19.7225H203.281V21.76H198.451V24.0419H203.772V26.1608H195.504V15.4031H203.609ZM200.662 11.9802L202.463 14.1807H200.498L199.352 13.0397L198.206 14.1807H196.241L198.042 11.9802H200.662Z" fill="#111D4A"/>
<path d="M209.667 15.3217L213.351 23.3899V15.3217H215.971V26.0794H211.878L208.112 17.6851V26.0794H205.492V15.3217H209.667Z" fill="#111D4A"/>
<path d="M224.895 18.7446C224.731 17.6851 223.994 17.2776 223.176 17.2776C221.62 17.2776 220.802 18.5001 220.802 20.8635C220.802 23.064 221.62 24.2864 223.176 24.2864C224.24 24.2864 224.895 23.7975 224.977 22.738H228.087C228.087 25.1014 226.286 26.4054 223.176 26.4054C219.574 26.4054 217.691 24.3679 217.691 20.8635C217.691 18.3371 218.755 16.2997 220.883 15.4847C221.538 15.2402 222.275 15.1587 223.176 15.1587C226.286 15.1587 228.006 16.6257 228.006 18.7446H224.895Z" fill="#111D4A"/>
<path d="M232.673 15.3217V26.0794H229.562V15.3217H232.673Z" fill="#111D4A"/>
<path d="M241.76 15.3217L246.017 26.0794H242.66L241.924 23.8789H237.585L236.848 26.0794H233.819L238.076 15.3217H241.76ZM239.713 17.4406L238.24 22.0045H241.187L239.713 17.4406Z" fill="#111D4A"/>
<path d="M120.757 30.3173C121.576 30.3173 122.394 30.3988 122.967 30.7247C124.032 31.2952 124.441 32.3547 124.441 33.5772C124.441 34.4736 124.277 35.2071 123.786 35.7776C123.295 36.4296 122.558 36.8371 120.839 36.8371H117.892V30.3173H120.757ZM120.593 35.6146C121.821 35.6146 122.558 34.9626 122.558 33.5772C122.558 32.8437 122.394 32.1102 121.576 31.7842C121.166 31.6212 120.839 31.6212 119.775 31.6212V35.6146H120.593Z" fill="#111D4A"/>
<path d="M129.271 30.3173L131.891 36.8371H129.844L129.353 35.5331H126.734L126.324 36.8371H124.523L127.143 30.3173H129.271ZM128.043 31.6212L127.143 34.3921H128.944L128.043 31.6212Z" fill="#111D4A"/>
<path d="M136.476 30.3173V36.8371H134.593V30.3173H136.476Z" fill="#111D4A"/>
<path d="M139.669 30.3173L141.879 35.2071V30.3173H143.435V36.8371H140.979L138.687 31.7842V36.8371H137.049V30.3173H139.669Z" fill="#111D4A"/>
<path d="M147.037 30.3173C147.856 30.3173 148.674 30.3988 149.248 30.7247C150.312 31.2952 150.721 32.3547 150.721 33.5772C150.721 34.4736 150.557 35.2071 150.066 35.7776C149.575 36.4296 148.838 36.8371 147.119 36.8371H144.172V30.3173H147.037ZM146.873 35.6146C148.101 35.6146 148.838 34.9626 148.838 33.5772C148.838 32.8437 148.674 32.1102 147.856 31.7842C147.447 31.6212 147.119 31.6212 146.055 31.6212V35.6146H146.873Z" fill="#111D4A"/>
<path d="M153.096 30.3172V34.2291C153.096 34.5551 153.096 34.7996 153.259 35.0441C153.505 35.5331 153.996 35.6961 154.487 35.6961C155.388 35.6961 155.797 35.2071 155.797 34.1476V30.3172H157.598V34.0661C157.598 35.2071 157.353 35.9406 156.616 36.5111C156.125 36.8371 155.47 37 154.487 37C153.177 37 152.113 36.6741 151.622 35.6961C151.458 35.2886 151.376 34.7996 151.376 34.2291V30.3172H153.096ZM156.37 28.2798L154.733 29.5837H153.505L154.487 28.2798H156.37Z" fill="#111D4A"/>
<path d="M163.493 32.1917H161.692C161.692 31.6212 161.364 31.2952 160.791 31.2952C160.3 31.2952 159.973 31.6212 159.973 31.9472C159.973 32.2732 160.136 32.5177 160.628 32.5992L161.856 32.9252C162.265 33.0067 162.674 33.1697 162.92 33.3327C163.493 33.6587 163.738 34.1476 163.738 34.7996C163.738 36.1851 162.592 36.9186 160.873 36.9186C158.99 36.9186 158.008 36.1851 158.008 34.7181H159.809C159.809 35.3701 160.218 35.6961 160.873 35.6961C161.446 35.6961 161.856 35.4516 161.856 34.9626C161.856 34.6366 161.692 34.4736 161.282 34.3106L159.645 33.9031C158.827 33.6587 158.499 33.4142 158.254 33.0067C158.09 32.7622 158.008 32.4362 158.008 32.1102C158.008 30.8877 158.99 30.0728 160.791 30.0728C162.592 30.1543 163.493 30.8062 163.493 32.1917Z" fill="#111D4A"/>
<path d="M169.387 30.3173V31.6212H167.341V36.8371H165.54V31.6212H163.575V30.3173H169.387Z" fill="#111D4A"/>
<path d="M172.662 30.3172C173.399 30.3172 173.89 30.3987 174.136 30.4802C174.709 30.7247 175.036 31.2137 175.036 32.0287C175.036 32.3547 174.955 32.5992 174.873 32.8436C174.545 33.3326 173.972 33.4956 173.481 33.5771C174.709 33.6586 174.873 34.1476 174.955 35.1256C175.036 35.6146 175.036 36.1851 175.282 36.837H173.235C173.154 36.5925 173.154 36.3481 173.072 35.9406L172.99 35.1256C172.908 34.3921 172.744 34.2291 172.089 34.2291H171.353V36.7555H169.552V30.2357H172.662V30.3172ZM171.353 33.1696H172.335C172.662 33.1696 172.908 33.0881 173.072 32.9251C173.154 32.8436 173.235 32.5992 173.235 32.4362C173.235 31.8657 172.99 31.6212 172.089 31.6212H171.271V33.1696H171.353Z" fill="#111D4A"/>
<path d="M177.329 30.3173V36.8371H175.446V30.3173H177.329Z" fill="#111D4A"/>
<path d="M182.241 30.3173L184.861 36.8371H182.814L182.323 35.5331H179.703L179.294 36.8371H177.493L180.112 30.3173H182.241ZM181.095 31.6212L180.194 34.3921H181.995L181.095 31.6212Z" fill="#111D4A"/>
</g>
<defs>
<clipPath id="clip0_408_2503">
<rect width="246.018" height="37" fill="white"/>
</clipPath>
</defs>
</svg>
