<svg width="124" height="99" viewBox="0 0 124 99" fill="none" xmlns="http://www.w3.org/2000/svg">
<g clip-path="url(#clip0_408_2468)">
<path d="M39.1489 11.6986L32.2271 17.8135C29.7984 14.4316 27.3292 12.7367 24.8114 12.7367C23.5809 12.7367 22.5851 13.0692 21.8079 13.7261C21.0227 14.383 20.6341 15.121 20.6341 15.9482C20.6341 16.7754 20.9174 17.554 21.4679 18.292C22.2289 19.2733 24.5119 21.3738 28.325 24.6096C31.8871 27.5941 34.0486 29.4675 34.8015 30.2542C36.6959 32.1681 38.0398 34.001 38.8413 35.7527C39.6185 37.4963 40.0232 39.4022 40.0232 41.4783C40.0232 45.509 38.6308 48.8422 35.8459 51.4698C33.0609 54.0974 29.4341 55.4112 24.9653 55.4112C21.4679 55.4112 18.432 54.5516 15.8333 52.8404C13.2427 51.1211 11.0245 48.4286 9.17056 44.7629L17.0153 40.0104C19.3792 44.3574 22.0994 46.5308 25.1676 46.5308C26.7706 46.5308 28.1145 46.0605 29.2074 45.1278C30.3003 44.1871 30.8427 43.1165 30.8427 41.8838C30.8427 40.7647 30.4298 39.6617 29.6041 38.5425C28.7864 37.4234 26.9568 35.7284 24.1638 33.4333C18.8125 29.0701 15.3638 25.6964 13.8013 23.3283C12.2388 20.952 11.4616 18.5839 11.4616 16.2239C11.4616 12.8096 12.765 9.89007 15.3557 7.44897C17.9463 5.00787 21.1522 3.79138 24.9572 3.79138C27.4102 3.79138 29.7336 4.35908 31.9599 5.48636C34.1701 6.62987 36.5745 8.6979 39.157 11.7067L39.1489 11.6986Z" fill="#111D4A"/>
<path d="M79.4171 38.6324H50.1593C50.5803 41.2195 51.7056 43.2713 53.5514 44.8041C55.3891 46.3207 57.7207 47.0911 60.5704 47.0911C63.9705 47.0911 66.8931 45.8989 69.3461 43.5227L77.0208 47.1235C75.1021 49.8485 72.811 51.8597 70.1476 53.1573C67.4679 54.4549 64.3025 55.1037 60.627 55.1037C54.9439 55.1037 50.305 53.3114 46.7186 49.7025C43.1403 46.1017 41.3512 41.6007 41.3512 36.1832C41.3512 30.7658 43.1241 26.0377 46.7024 22.3639C50.2726 18.6982 54.7415 16.8734 60.1332 16.8734C65.8487 16.8734 70.4876 18.7063 74.074 22.3639C77.6523 26.0296 79.4414 30.8712 79.4414 36.8888L79.409 38.6243L79.4171 38.6324ZM70.3095 31.447C69.7185 29.4195 68.5203 27.7732 66.7474 26.4999C64.9825 25.2348 62.9262 24.6022 60.5866 24.6022C58.0445 24.6022 55.8101 25.3159 53.8995 26.7351C52.7014 27.6272 51.5922 29.2005 50.5641 31.447H70.3095Z" fill="#111D4A"/>
<path d="M103.842 22.891L98.2074 28.5355C95.9163 26.2647 93.8276 25.1293 91.9656 25.1293C90.9455 25.1293 90.1441 25.3483 89.5693 25.7781C88.9864 26.2161 88.6949 26.7594 88.6949 27.4001C88.6949 27.8867 88.8811 28.3409 89.2535 28.7545C89.6179 29.1681 90.5246 29.7277 91.9737 30.4414L95.3091 32.112C98.8227 33.8475 101.235 35.6155 102.547 37.424C103.858 39.2244 104.514 41.3411 104.514 43.7741C104.514 47.0019 103.332 49.6944 100.952 51.8597C98.5879 54.0251 95.4144 55.1037 91.4313 55.1037C86.1448 55.1037 81.9189 53.0357 78.7615 48.8834L84.3638 42.7766C85.4324 44.0255 86.6872 45.0312 88.1202 45.8016C89.545 46.5639 90.8241 46.9451 91.9413 46.9451C93.1395 46.9451 94.111 46.6613 94.8477 46.0855C95.5763 45.5015 95.9487 44.8365 95.9487 44.0742C95.9487 42.6712 94.621 41.3006 91.9737 39.9624L88.9054 38.4297C83.028 35.4695 80.0973 31.7552 80.0973 27.3028C80.0973 24.4238 81.1983 21.9746 83.4085 19.9309C85.6267 17.8953 88.4602 16.8734 91.8927 16.8734C94.2567 16.8734 96.4749 17.3924 98.5555 18.4224C100.636 19.4605 102.401 20.9527 103.842 22.8829V22.891Z" fill="#111D4A"/>
<path d="M111.023 1.99084C112.399 1.99084 113.581 2.49366 114.561 3.49119C115.548 4.48871 116.042 5.69709 116.042 7.11633C116.042 8.53558 115.564 9.60609 114.585 10.5874C113.613 11.5768 112.448 12.0715 111.088 12.0715C109.727 12.0715 108.505 11.5687 107.534 10.555C106.546 9.54932 106.044 8.43826 106.044 6.99469C106.044 5.55111 106.538 4.44005 107.501 3.45875C108.481 2.47744 109.655 1.99084 111.023 1.99084Z" fill="#111D4A"/>
<path d="M115.596 17.8042H106.497V54.1611H115.596V17.8042Z" fill="#111D4A"/>
<path d="M53.6882 4.44812L51.8748 5.44564C51.5348 5.08881 51.1947 4.8374 50.8628 4.69953C50.5309 4.56166 50.1423 4.48867 49.697 4.48867C48.8794 4.48867 48.2236 4.73197 47.7217 5.21857C47.2198 5.70516 46.9688 6.32963 46.9688 7.09196C46.9688 7.8543 47.2117 8.43822 47.6974 8.90048C48.1831 9.37086 48.8146 9.60605 49.608 9.60605C50.5795 9.60605 51.3405 9.27354 51.8829 8.60853L53.5992 9.78447C52.6682 10.9929 51.3567 11.6011 49.6647 11.6011C48.1427 11.6011 46.9445 11.1469 46.0783 10.2467C45.212 9.33842 44.783 8.28413 44.783 7.06764C44.783 6.2242 44.9934 5.45375 45.4144 4.74008C45.8354 4.0264 46.4183 3.47493 47.1712 3.06943C47.9241 2.66393 48.766 2.46118 49.697 2.46118C50.5552 2.46118 51.3324 2.63149 52.0205 2.98022C52.7086 3.32895 53.2672 3.81554 53.7044 4.44812H53.6882Z" fill="#111D4A"/>
<path d="M59.316 2.46118C60.1336 2.46118 60.9027 2.66393 61.6233 3.07754C62.3438 3.49115 62.9024 4.04262 63.3072 4.74819C63.7119 5.45375 63.9143 6.20798 63.9143 7.02709C63.9143 7.84619 63.7119 8.61664 63.3072 9.33031C62.9024 10.044 62.3438 10.6036 61.6475 11.001C60.9513 11.3983 60.1741 11.6011 59.3241 11.6011C58.0773 11.6011 57.0168 11.1551 56.1425 10.2711C55.2681 9.38708 54.8229 8.30846 54.8229 7.04331C54.8229 5.68894 55.3167 4.55355 56.3125 3.65334C57.1868 2.86668 58.1826 2.46929 59.316 2.46929V2.46118ZM59.3484 4.513C58.6683 4.513 58.1097 4.74819 57.6564 5.21857C57.203 5.68894 56.9844 6.28908 56.9844 7.02709C56.9844 7.76509 57.203 8.39767 57.6483 8.85993C58.0935 9.33031 58.6521 9.5655 59.3403 9.5655C60.0284 9.5655 60.587 9.33031 61.0404 8.85182C61.4937 8.37334 61.7204 7.76509 61.7204 7.02709C61.7204 6.28908 61.5018 5.67272 61.0566 5.21046C60.6113 4.74819 60.0446 4.513 59.3484 4.513Z" fill="#111D4A"/>
<path d="M65.0452 -0.663086H67.2229V11.3802H65.0452V-0.663086Z" fill="#111D4A"/>
<path d="M77.4802 7.65895H70.4856C70.5827 8.27531 70.858 8.77002 71.2951 9.13497C71.7323 9.49991 72.2909 9.67833 72.971 9.67833C73.7805 9.67833 74.4848 9.39448 75.0677 8.82679L76.8974 9.68644C76.444 10.3352 75.8935 10.8137 75.2539 11.13C74.6144 11.4463 73.8615 11.6004 72.979 11.6004C71.619 11.6004 70.5099 11.1706 69.6517 10.3109C68.7936 9.45125 68.3645 8.37263 68.3645 7.08315C68.3645 5.79366 68.7936 4.65827 69.6436 3.7824C70.4937 2.90652 71.5623 2.46858 72.8495 2.46858C74.2177 2.46858 75.3268 2.90652 76.1849 3.7824C77.0431 4.65827 77.4722 5.81799 77.4722 7.25346V7.66706L77.4802 7.65895ZM75.2944 5.93964C75.1487 5.45305 74.8653 5.06377 74.4444 4.75559C74.0234 4.44741 73.5296 4.30143 72.971 4.30143C72.3638 4.30143 71.8295 4.47174 71.3761 4.81236C71.0927 5.02322 70.8256 5.40439 70.5746 5.93964H75.2944ZM73.2624 -2H75.8368L72.9224 1.13044H71.3599L73.2624 -2Z" fill="#111D4A"/>
<path d="M85.2372 2.68734H87.4069V10.1323C87.4069 11.6002 87.1154 12.6788 86.5245 13.3763C85.7311 14.317 84.541 14.7793 82.9462 14.7793C82.0961 14.7793 81.3837 14.6738 80.8008 14.463C80.2179 14.2521 79.7322 13.9358 79.3355 13.5222C78.9388 13.1086 78.6393 12.6058 78.4531 12.0138H80.8494C81.0599 12.2571 81.3351 12.4436 81.667 12.5653C81.999 12.6869 82.3957 12.7518 82.8571 12.7518C83.44 12.7518 83.9096 12.6626 84.2658 12.4842C84.622 12.3057 84.8729 12.0706 85.0187 11.7786C85.1644 11.4866 85.2372 11 85.2372 10.2945C84.8568 10.6756 84.452 10.9514 84.031 11.1217C83.61 11.292 83.1324 11.3731 82.6062 11.3731C81.4404 11.3731 80.4608 10.9514 79.6593 10.1079C78.8578 9.26451 78.4531 8.20211 78.4531 6.91262C78.4531 5.53393 78.8821 4.42287 79.7322 3.58754C80.5013 2.83332 81.4242 2.45215 82.4928 2.45215C82.9947 2.45215 83.4643 2.54136 83.9096 2.72789C84.3548 2.91442 84.8001 3.21448 85.2453 3.6362V2.67923L85.2372 2.68734ZM82.9786 4.50397C82.2904 4.50397 81.7237 4.73105 81.2785 5.19331C80.8332 5.65558 80.6065 6.23139 80.6065 6.92884C80.6065 7.6263 80.8332 8.24265 81.2946 8.71303C81.7561 9.18341 82.3228 9.41049 83.019 9.41049C83.7153 9.41049 84.2496 9.18341 84.6867 8.72925C85.1239 8.27509 85.3425 7.68307 85.3425 6.94506C85.3425 6.20706 85.1239 5.63125 84.6786 5.17709C84.2334 4.72294 83.6667 4.49586 82.9705 4.49586L82.9786 4.50397Z" fill="#111D4A"/>
<path d="M90.0459 -0.888916C90.4264 -0.888916 90.7583 -0.751047 91.0255 -0.475308C91.2927 -0.19957 91.4384 0.132938 91.4384 0.530326C91.4384 0.927713 91.3008 1.25211 91.0336 1.52785C90.7664 1.80359 90.4426 1.94146 90.0621 1.94146C89.6816 1.94146 89.3416 1.80359 89.0744 1.51974C88.7992 1.244 88.6616 0.903383 88.6616 0.497886C88.6616 0.0923882 88.7992 -0.21579 89.0663 -0.483418C89.3335 -0.751047 89.6654 -0.888916 90.0459 -0.888916ZM88.9611 2.68757H91.1388V11.3733H88.9611V2.68757Z" fill="#111D4A"/>
<path d="M96.7825 2.46118C97.6002 2.46118 98.3693 2.66393 99.0898 3.07754C99.8103 3.49115 100.369 4.04262 100.774 4.74819C101.178 5.45375 101.381 6.20798 101.381 7.02709C101.381 7.84619 101.178 8.61664 100.774 9.33031C100.369 10.044 99.8103 10.6036 99.1141 11.001C98.4179 11.3983 97.6407 11.6011 96.7906 11.6011C95.5439 11.6011 94.4834 11.1551 93.609 10.2711C92.7266 9.38708 92.2894 8.30846 92.2894 7.04331C92.2894 5.68894 92.7833 4.55355 93.779 3.65334C94.6534 2.86668 95.6491 2.46929 96.7825 2.46929V2.46118ZM96.8149 4.513C96.1349 4.513 95.5763 4.74819 95.1229 5.21857C94.6696 5.68894 94.451 6.28908 94.451 7.02709C94.451 7.76509 94.6696 8.39767 95.1148 8.85993C95.5601 9.33031 96.1187 9.5655 96.8068 9.5655C97.495 9.5655 98.0536 9.33031 98.5069 8.85182C98.9603 8.37334 99.187 7.76509 99.187 7.02709C99.187 6.28908 98.9684 5.67272 98.5231 5.21046C98.0778 4.74819 97.5111 4.513 96.8149 4.513Z" fill="#111D4A"/>
<path d="M124.85 61.7587L118.786 98.9999L3.23706 85.205L0.346436 61.7509L124.85 61.7587ZM71.1101 71.5585C70.1794 71.5586 69.3452 71.7615 68.5925 72.1669C67.8398 72.5723 67.2566 73.1323 66.8357 73.8378C66.4149 74.5432 66.2049 75.3139 66.2048 76.1571C66.2049 77.3653 66.6338 78.4279 67.4998 79.328C68.3659 80.2281 69.5562 80.6824 71.0779 80.6825C72.7698 80.6825 74.0815 80.0743 75.0125 78.8661L73.2966 77.6893C72.7542 78.3543 71.9927 78.6874 71.0212 78.6874C70.2363 78.6873 69.6045 78.4603 69.1189 77.9901C68.6334 77.5198 68.3904 76.9355 68.3904 76.1815C68.3904 75.4275 68.6415 74.8028 69.1433 74.3163C69.6452 73.8298 70.3095 73.5859 71.1189 73.5858C71.5636 73.5859 71.9523 73.6591 72.2839 73.7968C72.6157 73.9346 72.9567 74.1784 73.2966 74.535L75.1013 73.538V73.5292C74.6723 72.8969 74.1053 72.4097 73.4255 72.0692C72.7457 71.7289 71.9679 71.5585 71.1101 71.5585ZM85.0427 71.5507C83.9097 71.5508 82.9058 71.9488 82.0398 72.7352C81.0442 73.6434 80.5497 74.7708 80.5496 76.1249C80.5496 77.3898 80.9877 78.4685 81.8699 79.3524C82.7522 80.2363 83.813 80.6824 85.0515 80.6825C85.8933 80.6824 86.6708 80.4883 87.3669 80.0829C88.0712 79.6855 88.6214 79.1256 89.0261 78.412C89.4308 77.6984 89.6335 76.928 89.6335 76.1171C89.6335 75.3063 89.4308 74.5439 89.0261 73.8466C88.6214 73.1413 88.0628 72.5811 87.3425 72.1757C86.6221 71.7622 85.8524 71.5594 85.0349 71.5594L85.0427 71.5507ZM104.853 71.5585C103.72 71.5586 102.765 71.9884 101.971 72.8397C101.186 73.6912 100.79 74.8352 100.79 76.1327C100.79 77.43 101.194 78.5091 102.011 79.3768C102.829 80.2445 103.802 80.6824 104.919 80.6825C105.412 80.6824 105.874 80.5932 106.302 80.4149C106.732 80.2365 107.161 79.9444 107.582 79.5389V80.455H109.752V71.7772H107.582V72.7343C107.193 72.3453 106.772 72.045 106.319 71.8505C105.858 71.6559 105.371 71.5585 104.853 71.5585ZM59.5271 71.5585C58.3939 71.5586 57.4376 71.9883 56.6443 72.8397C55.8592 73.6912 55.4627 74.8353 55.4626 76.1327C55.4627 77.4299 55.868 78.5083 56.6853 79.3759C57.5029 80.2435 58.4745 80.6814 59.5916 80.6815C60.0852 80.6815 60.5464 80.5922 60.9753 80.4139C61.4043 80.2356 61.8338 79.9442 62.2546 79.5389V80.455H64.4246V71.7772H62.2546V72.7343C61.8662 72.3452 61.4451 72.045 60.9919 71.8505C60.5307 71.656 60.0449 71.5585 59.5271 71.5585ZM34.5105 71.5419C33.2235 71.542 32.1544 71.9797 31.3044 72.8553C30.4545 73.7311 30.0252 74.8587 30.0251 76.1561C30.0251 77.4535 30.4465 78.5241 31.3044 79.3837C32.1625 80.2432 33.2639 80.6736 34.6238 80.6737C35.4979 80.6737 36.2509 80.5111 36.8904 80.203C37.5299 79.8948 38.0806 79.4162 38.5339 78.7675L36.7039 77.9081C36.1129 78.4756 35.4166 78.7596 34.6072 78.7596C33.9273 78.7596 33.3685 78.5806 32.9314 78.2157C32.4946 77.8508 32.2189 77.364 32.1218 76.7479H39.1003L39.1169 76.7323V76.3182C39.1169 74.883 38.6956 73.7311 37.8376 72.8553C36.9796 71.9798 35.8702 71.542 34.5105 71.5419ZM11.6072 71.785V80.4628H13.7771V71.785H11.6072ZM44.1199 71.5585C43.7152 71.5585 43.3501 71.6635 43.0183 71.8905C42.6866 72.1175 42.4199 72.4424 42.2175 72.8719V71.7772H40.3552L40.3386 71.785V80.4628H42.4919V76.5302C42.492 75.322 42.6059 74.5023 42.8406 74.0887C43.0752 73.6755 43.3586 73.464 43.6902 73.4637C43.8601 73.4637 44.0632 73.5294 44.322 73.6591L45.0017 71.785C44.6945 71.6313 44.4029 71.5585 44.1199 71.5585ZM76.8181 71.785V80.4628H78.988V71.785H76.8181ZM25.8005 68.5829V71.7782H24.6833V73.6512H25.8005V80.4559H27.9695V73.6512H29.2566V71.7782H27.9695V68.5829H25.8005ZM20.4978 71.5585C20.0771 71.5586 19.6638 71.6395 19.2673 71.8016C18.8626 71.9639 18.4173 72.2563 17.9236 72.6698V71.7772H15.7625V80.455H17.9314V76.9764C17.9314 76.0768 17.9644 75.4844 18.0291 75.2167C18.1504 74.698 18.3689 74.284 18.6843 73.9921C19 73.6921 19.3811 73.5459 19.8181 73.5458C20.1497 73.5458 20.4411 73.6352 20.6677 73.8134C20.9024 73.9917 21.065 74.2513 21.1541 74.5917C21.2431 74.9322 21.2917 75.6136 21.2917 76.6512V80.455H23.4373V74.7216C23.4372 73.7243 23.1861 72.9697 22.6843 72.4589C22.0853 71.859 21.3558 71.5585 20.4978 71.5585ZM50.825 71.5585C50.4043 71.5585 49.9909 71.6396 49.5945 71.8016C49.1898 71.9639 48.7435 72.2563 48.2498 72.6698V71.7772H46.0886V80.455H48.2585V76.9764C48.2586 76.0769 48.2905 75.4845 48.3552 75.2167C48.4767 74.6978 48.6958 74.284 49.0115 73.9921C49.3271 73.6921 49.7074 73.5459 50.1443 73.5458C50.476 73.5458 50.7682 73.6351 50.9949 73.8134C51.2294 73.9917 51.3912 74.2514 51.4802 74.5917C51.5693 74.9322 51.6179 75.6136 51.6179 76.6512V80.455H53.7634V74.7216C53.7634 73.7242 53.5123 72.9697 53.0105 72.4589C52.4116 71.859 51.6828 71.5586 50.825 71.5585ZM96.1521 71.5585C95.7313 71.5585 95.3172 71.6395 94.9207 71.8016C94.516 71.9639 94.0705 72.2564 93.5769 72.6698V71.7772H91.4158V80.455H93.5857V76.9764C93.5857 76.0769 93.6177 75.4845 93.6824 75.2167C93.8038 74.6978 94.023 74.284 94.3386 73.9921C94.6542 73.6921 95.0345 73.5459 95.4714 73.5458C95.8032 73.5458 96.0954 73.6351 96.322 73.8134C96.5565 73.9917 96.7183 74.2514 96.8074 74.5917C96.8964 74.9322 96.945 75.6136 96.9451 76.6512V80.455H99.0906V74.7216C99.0905 73.7242 98.8395 72.9697 98.3376 72.4589C97.7387 71.8591 97.0099 71.5586 96.1521 71.5585ZM111.713 68.4266V80.454H113.882V68.4266H111.713ZM105.299 73.5614C105.987 73.5614 106.553 73.7895 107.007 74.2596C107.452 74.7299 107.678 75.3135 107.678 76.0917C107.678 76.8702 107.46 77.4872 107.007 77.9657C106.553 78.444 105.962 78.6796 105.306 78.6796C104.651 78.6794 104.093 78.444 103.639 77.9579C103.186 77.4713 102.959 76.8542 102.959 76.1083C102.959 75.3623 103.178 74.7537 103.623 74.2753C104.068 73.7969 104.627 73.5615 105.299 73.5614ZM59.9724 73.5614C60.6602 73.5615 61.2272 73.7886 61.6804 74.2587C62.1256 74.729 62.3522 75.3133 62.3523 76.0917C62.3523 76.87 62.1336 77.4863 61.6804 77.9647C61.2271 78.4432 60.6359 78.6785 59.9802 78.6786C59.3246 78.6785 58.7655 78.4434 58.3123 77.9569C57.8592 77.4705 57.6326 76.854 57.6326 76.1083C57.6326 75.3623 57.8514 74.7537 58.2966 74.2753C58.7418 73.797 59.3007 73.5615 59.9724 73.5614ZM85.0759 73.6034C85.7636 73.6035 86.33 73.8307 86.7751 74.3007C87.2203 74.771 87.4391 75.3711 87.4392 76.1171C87.4392 76.863 87.2127 77.471 86.7595 77.9413C86.3062 78.4197 85.7393 78.6551 85.0593 78.6552C84.3795 78.6551 83.8209 78.4281 83.3757 77.9579C82.9307 77.4875 82.7117 76.8627 82.7117 76.1249C82.7118 75.3871 82.9303 74.7865 83.3835 74.3163C83.8286 73.8462 84.3956 73.6114 85.0671 73.6112L85.0759 73.6034ZM34.5994 73.4071C35.1577 73.4071 35.6522 73.5614 36.073 73.8612C36.4936 74.1612 36.7769 74.5507 36.9226 75.037L36.9148 75.0448H32.2029C32.4538 74.5017 32.7133 74.1287 33.0046 73.9178C33.4579 73.5774 33.9924 73.4072 34.5994 73.4071ZM12.696 68.2089C12.3176 68.21 11.9865 68.3396 11.7205 68.6141C11.4535 68.8897 11.3163 69.1985 11.3162 69.5956C11.3162 69.9926 11.4457 70.3336 11.7205 70.6093C11.9956 70.893 12.3284 71.031 12.7087 71.0311C13.0892 71.0311 13.4133 70.8928 13.6804 70.6171C13.9473 70.3495 14.0847 70.025 14.0847 69.6278C14.0846 69.2307 13.9467 68.8985 13.6716 68.6229C13.3973 68.3483 13.0748 68.2097 12.696 68.2089ZM77.906 68.2089C77.5279 68.2102 77.1972 68.3398 76.9314 68.6141C76.6644 68.8898 76.5272 69.1984 76.5271 69.5956C76.5271 69.9927 76.6566 70.3336 76.9314 70.6093C77.2066 70.893 77.5393 71.031 77.9197 71.0311C78.3001 71.0311 78.6243 70.8927 78.8914 70.6171C79.1582 70.3495 79.2957 70.025 79.2957 69.6278C79.2955 69.2307 79.1576 68.8985 78.8826 68.6229C78.608 68.3481 78.2852 68.2095 77.906 68.2089Z" fill="#111D4A"/>
</g>
<defs>
<clipPath id="clip0_408_2468">
<rect width="124" height="101" fill="white" transform="translate(0 -2)"/>
</clipPath>
</defs>
</svg>
