<svg width="231" height="37" viewBox="0 0 231 37" fill="none" xmlns="http://www.w3.org/2000/svg">
<g clip-path="url(#clip0_408_2538)">
<path d="M94.5214 31.6673H87.2136L92.8097 5.39858H100.117L94.5214 31.6673ZM86.2919 13.1014H78.984C79.2474 12.1139 79.0499 11.3238 78.5232 10.7972C77.9965 10.2705 77.1406 9.94128 75.8897 9.94128C74.2438 9.94128 72.5321 11.0605 72.2687 12.3114C71.8737 14.2206 74.0463 14.879 75.8897 15.3399C80.0374 16.4591 86.3577 16.9199 84.8435 24.0302C83.6584 29.5605 77.6673 32.194 71.5445 32.194C67.0677 32.194 63.1175 31.2064 61.9324 27.8488C61.5374 26.6637 61.4057 25.1495 61.8008 23.2402H69.1086C68.5819 25.742 70.0961 27.0587 72.7296 27.0587C74.4413 27.0587 76.7456 26.2028 77.0748 24.4253C77.8648 20.8701 72.2687 21.5943 67.1335 19.0925C64.6975 17.9075 63.9075 15.5374 64.5 12.7064C66.146 6.45196 71.9395 4.80605 77.404 4.80605C82.8684 4.80605 88.0694 6.78114 86.2919 13.1014ZM59.1015 15.8665L58.0481 20.9359H46.3292L45.1442 26.532H57.8506L56.7972 31.6014H36.783L42.379 5.33274H62.3933L61.9983 7.04448L61.2741 10.4021H48.5677L47.3826 15.8665H59.1015ZM35.7296 13.1014H28.4876C28.7509 12.1139 28.5534 11.3238 28.0267 10.7972C27.5 10.2705 26.6442 9.94128 25.3933 9.94128C23.7474 9.94128 22.0356 11.0605 21.7723 12.3114C21.3773 14.2206 23.5499 14.879 25.3933 15.3399C29.541 16.5249 35.7954 16.9199 34.347 24.0302C33.162 29.5605 27.1709 32.194 21.0481 32.194C14.9253 32.194 9.92175 30.4164 11.3043 23.2402H18.6121C18.0855 25.742 19.5997 27.0587 22.2331 27.0587C23.9449 27.0587 26.2492 26.2028 26.5783 24.4253C27.3684 20.8701 21.7723 21.5943 16.6371 19.0925C14.2011 17.9075 13.4111 15.5374 14.0036 12.7064C15.5837 6.45196 21.4431 4.80605 26.9075 4.80605C32.3719 4.80605 37.5072 6.78114 35.7296 13.1014ZM102.817 6.38612V5.39858H110.256V0H0.572998V5.39858H8.0125V6.38612H0.572998V11.653H8.0125V12.5747H0.572998V17.9733H8.0125V18.9609H0.572998V24.4253H8.0125V25.4128H0.572998V30.6797H8.0125V31.6673H0.572998V37H110.322V31.6673H102.883V30.6797H110.322V25.4128H102.883V24.4253H110.322V18.9609H102.883V17.9733H110.322V12.5747H102.883V11.5872H110.322V6.32028H102.817V6.38612Z" fill="#111D4A"/>
<path d="M123.95 1.77759V3.75268H119.342V5.66193H123.621V7.63702H119.342V9.54627H123.95V11.3897H116.642V1.77759H123.95Z" fill="#111D4A"/>
<path d="M127.9 8.29534V8.82203C127.9 8.9537 127.966 9.01954 128.032 9.15121C128.098 9.21705 128.164 9.34872 128.295 9.41456C128.427 9.48039 128.559 9.54623 128.69 9.61207C128.888 9.6779 129.085 9.6779 129.283 9.6779C129.546 9.6779 129.744 9.6779 129.941 9.61207C130.139 9.54623 130.271 9.48039 130.402 9.41456C130.534 9.34872 130.6 9.21705 130.666 9.08538C130.731 8.9537 130.797 8.88787 130.797 8.7562C130.731 8.69036 130.731 8.55869 130.6 8.49285C130.534 8.42701 130.402 8.29534 130.271 8.2295C130.139 8.16367 130.007 8.032 129.81 7.96616C129.612 7.90032 129.415 7.83449 129.217 7.76865C128.493 7.63698 127.9 7.43947 127.44 7.24196C126.979 7.04445 126.584 6.84694 126.32 6.64943C126.057 6.45192 125.86 6.18858 125.728 5.8594C125.596 5.53022 125.53 5.20104 125.464 4.80602V4.74018C125.464 4.27933 125.53 3.88431 125.728 3.48929C125.925 3.16011 126.255 2.83093 126.65 2.56758C127.045 2.30424 127.505 2.17257 127.966 2.04089C128.427 1.90922 128.954 1.84338 129.546 1.84338C130.336 1.84338 130.995 1.97506 131.521 2.10673C132.048 2.2384 132.443 2.50175 132.641 2.76509C132.904 3.02844 133.101 3.35762 133.233 3.6868C133.365 4.01598 133.431 4.411 133.431 4.87185H130.731C130.731 4.74018 130.731 4.60851 130.666 4.47684C130.6 4.34516 130.534 4.21349 130.402 4.14765C130.271 4.01598 130.139 3.95015 130.007 3.95015C129.876 3.88431 129.678 3.88431 129.48 3.88431C129.283 3.88431 129.151 3.88431 129.02 3.95015C128.888 4.01598 128.756 4.08182 128.69 4.14765C128.625 4.21349 128.559 4.34516 128.493 4.411C128.427 4.47684 128.427 4.60851 128.427 4.74018C128.427 4.80602 128.493 4.93769 128.559 5.00353C128.625 5.06936 128.69 5.20103 128.756 5.26687C128.822 5.33271 128.954 5.39854 129.085 5.46438C129.217 5.53022 129.349 5.53022 129.546 5.59605C129.612 5.59605 129.744 5.66189 129.876 5.66189C130.007 5.66189 130.073 5.72773 130.205 5.72773C130.336 5.72773 130.402 5.79356 130.534 5.79356C130.666 5.79356 130.731 5.8594 130.863 5.8594C131.258 5.92523 131.587 6.05691 131.916 6.18858C132.246 6.32025 132.575 6.51776 132.904 6.71527C133.233 6.91278 133.431 7.17612 133.628 7.50531C133.76 7.83449 133.892 8.22951 133.892 8.62452C133.892 9.21705 133.76 9.6779 133.562 10.1388C133.365 10.5338 133.036 10.863 132.641 11.1263C132.246 11.3896 131.785 11.5872 131.324 11.653C130.863 11.7847 130.271 11.8505 129.744 11.8505C129.02 11.8505 128.427 11.7847 127.9 11.653C127.374 11.5213 126.913 11.3238 126.584 11.0605C126.255 10.7971 125.991 10.4021 125.794 10.0071C125.596 9.61207 125.53 9.08538 125.464 8.55869H127.9V8.29534Z" fill="#111D4A"/>
<path d="M141.265 4.3452C141.199 4.21353 141.068 4.01602 140.936 3.88435C140.804 3.75268 140.607 3.621 140.409 3.55517C140.212 3.48933 139.948 3.42349 139.685 3.42349C139.29 3.42349 138.961 3.48933 138.698 3.621C138.434 3.75268 138.237 4.01602 138.171 4.27937C138.039 4.60855 137.973 4.87189 137.908 5.20107C137.842 5.53026 137.842 5.85944 137.776 6.25446V6.64947V6.84698C137.776 7.30784 137.842 7.70285 137.908 8.03203C137.973 8.36122 138.105 8.6904 138.237 8.95374C138.368 9.21709 138.566 9.4146 138.763 9.54627C139.027 9.67794 139.29 9.74378 139.619 9.74378C139.883 9.74378 140.146 9.67794 140.343 9.61211C140.541 9.54627 140.739 9.4146 140.87 9.28293C141.002 9.15125 141.134 8.95374 141.199 8.82207C141.265 8.62456 141.331 8.49289 141.331 8.29538H144.162V8.6904C144.162 8.75623 144.162 8.82207 144.096 8.88791C144.096 8.95374 144.03 9.01958 144.03 9.08542C143.964 9.4146 143.767 9.67794 143.569 10.0071C143.372 10.2705 143.109 10.5997 142.779 10.7972C142.45 11.0605 142.055 11.258 141.529 11.3897C141.068 11.5214 140.475 11.5872 139.817 11.5872C138.961 11.5872 138.171 11.4555 137.513 11.258C136.854 11.0605 136.393 10.7313 135.998 10.2705C135.603 9.87545 135.34 9.34876 135.142 8.75623C134.945 8.16371 134.813 7.57118 134.813 6.84698V6.64947C134.813 5.72777 134.879 4.93773 135.142 4.27937C135.34 3.621 135.669 3.09431 136.13 2.6993C136.591 2.30428 137.052 2.04093 137.644 1.84342C138.237 1.64591 138.895 1.58008 139.619 1.58008C140.409 1.58008 141.134 1.64591 141.726 1.77759C142.319 1.90926 142.779 2.1726 143.109 2.43595C143.438 2.76513 143.701 3.09431 143.899 3.48933C144.096 3.88435 144.162 4.27937 144.162 4.80606H141.331C141.397 4.67438 141.397 4.47688 141.265 4.3452Z" fill="#111D4A"/>
<path d="M148.178 7.76872C148.244 8.0979 148.441 8.49292 148.573 8.8221C148.77 9.15128 148.968 9.41463 149.297 9.5463C149.561 9.74381 149.956 9.80965 150.351 9.80965C150.68 9.80965 151.009 9.74381 151.272 9.61214C151.536 9.48047 151.733 9.28296 151.931 9.01961C152.128 8.75627 152.26 8.42709 152.326 8.03207C152.391 7.63705 152.457 7.1762 152.457 6.64951C152.457 6.25449 152.391 5.85947 152.326 5.46445C152.26 5.06943 152.128 4.74025 151.931 4.47691C151.733 4.14773 151.536 3.95022 151.272 3.75271C151.009 3.62104 150.68 3.48936 150.285 3.48936C149.89 3.48936 149.561 3.5552 149.297 3.75271C149.034 3.95022 148.836 4.14773 148.639 4.47691C148.507 4.80609 148.375 5.13527 148.244 5.53029C148.178 5.85947 148.112 6.25449 148.046 6.64951C148.046 7.04452 148.046 7.37371 148.178 7.76872ZM145.479 4.87193C146.005 3.62104 146.598 2.43598 147.98 1.97513C149.231 1.51427 150.746 1.51427 151.996 1.84346C152.852 2.04096 153.708 2.50182 154.235 3.16018C155.025 4.08189 155.222 5.33278 155.222 6.51783C155.222 8.16374 154.696 9.87548 153.379 10.863C152.391 11.5872 151.075 11.7189 149.89 11.6531C148.902 11.5872 147.915 11.4556 147.125 10.9289C146.269 10.4022 145.676 9.48047 145.413 8.55876C145.084 7.30787 145.149 5.99114 145.479 4.87193Z" fill="#111D4A"/>
<path d="M159.304 1.77759V9.4146H163.649V11.3897H156.605V1.77759H159.304Z" fill="#111D4A"/>
<path d="M169.246 3.75268L167.995 7.63702H170.431L169.246 3.75268ZM171.023 1.77759L174.776 11.3897H171.747L171.089 9.61211H167.336L166.744 11.3897H163.913L167.797 1.77759H171.023Z" fill="#111D4A"/>
<path d="M120.79 23.2402C121.251 23.2402 121.646 23.1744 121.909 23.0427C122.238 22.911 122.502 22.7135 122.699 22.4502C122.897 22.1868 123.094 21.9235 123.226 21.5943C123.358 21.3309 123.424 21.0018 123.424 20.6726V20.5409V20.4092V20.4751V19.9484C123.358 19.6192 123.292 19.3559 123.16 19.0267C123.028 18.7633 122.831 18.5 122.633 18.2366C122.37 17.9733 122.173 17.7758 121.843 17.6441C121.58 17.5124 121.251 17.4466 120.856 17.4466H119.407V23.1744H120.79V23.2402ZM120.79 15.5374C121.909 15.5374 122.831 15.669 123.555 15.9324C124.279 16.1957 124.872 16.5249 125.201 17.0516C125.596 17.5124 125.859 18.0391 126.057 18.6317C126.254 19.2242 126.32 19.8167 126.386 20.4092V20.4751V20.5409V20.8043C126.386 21.5943 126.254 22.2527 125.991 22.7793C125.728 23.306 125.399 23.7669 124.938 24.1619C124.477 24.4911 124.016 24.7544 123.489 24.9519C122.963 25.1495 122.436 25.2153 121.909 25.2153H116.774V15.5374H120.79Z" fill="#111D4A"/>
<path d="M135.011 15.5374V17.5124H130.468V19.4217H134.747V21.3968H130.468V23.2402H135.011V25.1495H127.703V15.5374H135.011Z" fill="#111D4A"/>
<path d="M143.635 19.6192H144.952C145.084 19.6192 145.281 19.5534 145.413 19.5534C145.544 19.4875 145.676 19.4875 145.874 19.4217C146.005 19.3559 146.137 19.2242 146.203 19.0925C146.269 18.9608 146.335 18.7633 146.335 18.5658C146.335 18.3683 146.269 18.2366 146.203 18.105C146.137 17.9733 146.005 17.8416 145.874 17.7758C145.742 17.71 145.544 17.6441 145.413 17.5783C145.215 17.5124 145.018 17.5124 144.82 17.5124H143.701V19.6192H143.635ZM145.215 15.5374H145.479C145.94 15.5374 146.335 15.6032 146.795 15.669C147.19 15.7349 147.585 15.8665 147.98 16.064C148.375 16.2616 148.639 16.4591 148.836 16.7882C149.034 17.1174 149.1 17.5124 149.1 18.0391C149.1 18.4342 149.034 18.7633 148.902 19.0267C148.77 19.29 148.639 19.5534 148.375 19.7509C148.178 19.9484 147.915 20.0801 147.651 20.2117C147.388 20.3434 147.059 20.4092 146.795 20.4751C147.256 20.4751 147.651 20.6067 147.915 20.7384C148.178 20.8701 148.441 21.1334 148.507 21.4626C148.639 21.7918 148.705 22.0551 148.77 22.3843C148.836 22.7135 148.902 23.0427 148.968 23.4377C148.968 23.5694 149.034 23.7011 149.034 23.8986C149.034 24.0302 149.034 24.1619 149.1 24.3594C149.1 24.4911 149.165 24.6228 149.165 24.7544C149.231 24.8861 149.231 25.0178 149.297 25.1495H146.4C146.335 25.0836 146.335 25.0178 146.335 24.8861C146.335 24.8203 146.269 24.6886 146.269 24.5569V23.7669V23.6352C146.269 23.3719 146.203 23.1085 146.203 22.911C146.137 22.6477 146.071 22.4502 146.005 22.2527C145.94 22.0551 145.808 21.8576 145.676 21.7918C145.479 21.6601 145.281 21.6601 145.018 21.6601H143.767V25.347H141.068V15.5374H145.215Z" fill="#111D4A"/>
<path d="M157.922 15.5374V17.5124H153.379V19.4217H157.658V21.3968H153.379V23.2402H157.922V25.1495H150.614V15.5374H157.922Z" fill="#111D4A"/>
<path d="M166.349 15.5374V17.5124H162.267V19.7509H166.02V21.5943H162.267V25.1495H159.502V15.5374H166.349Z" fill="#111D4A"/>
<path d="M174.973 15.5374V17.5124H170.431V19.4217H174.71V21.3968H170.431V23.2402H174.973V25.1495H167.666V15.5374H174.973Z" fill="#111D4A"/>
<path d="M179.187 19.6192H180.504C180.635 19.6192 180.833 19.5534 180.964 19.5534C181.096 19.4875 181.228 19.4875 181.425 19.4217C181.557 19.3559 181.689 19.2242 181.755 19.0925C181.82 18.9608 181.886 18.7633 181.886 18.5658C181.886 18.3683 181.82 18.2366 181.755 18.105C181.689 17.9733 181.557 17.8416 181.425 17.7758C181.294 17.71 181.096 17.6441 180.964 17.5783C180.767 17.5124 180.569 17.5124 180.372 17.5124H179.253V19.6192H179.187ZM180.767 15.5374H181.03C181.491 15.5374 181.886 15.6032 182.347 15.669C182.742 15.7349 183.137 15.8665 183.532 16.064C183.927 16.2616 184.19 16.4591 184.388 16.7882C184.585 17.1174 184.651 17.5124 184.651 18.0391C184.651 18.4342 184.585 18.7633 184.454 19.0267C184.322 19.29 184.19 19.5534 183.927 19.7509C183.73 19.9484 183.466 20.0801 183.203 20.2117C182.94 20.3434 182.61 20.4092 182.347 20.4751C182.808 20.4751 183.203 20.6067 183.466 20.7384C183.73 20.8701 183.993 21.1334 184.059 21.4626C184.19 21.7918 184.256 22.0551 184.322 22.3843C184.388 22.7135 184.454 23.0427 184.52 23.4377C184.52 23.5694 184.585 23.7011 184.585 23.8986C184.585 24.0302 184.585 24.1619 184.651 24.3594C184.651 24.4911 184.717 24.6228 184.717 24.7544C184.783 24.8861 184.783 25.0178 184.849 25.1495H181.952C181.886 25.0836 181.886 25.0178 181.886 24.8861C181.886 24.8203 181.82 24.6886 181.82 24.5569V23.7669V23.6352C181.82 23.3719 181.755 23.1085 181.755 22.911C181.689 22.6477 181.623 22.4502 181.557 22.2527C181.491 22.0551 181.359 21.8576 181.228 21.7918C181.03 21.6601 180.833 21.6601 180.569 21.6601H179.319V25.347H176.619V15.5374H180.767Z" fill="#111D4A"/>
<path d="M190.774 12.7064L192.354 14.6815H190.577L189.655 13.6281L188.733 14.6815H186.956L188.536 12.7064H190.774ZM193.539 15.5374V17.5125H188.931V19.4217H193.21V21.3968H188.931V23.2402H193.539V25.1495H186.231V15.5374H193.539Z" fill="#111D4A"/>
<path d="M198.872 15.5374L202.098 22.6477V15.5374H204.534V25.1495H200.715L197.489 17.9075V25.1495H195.119V15.5374H198.872Z" fill="#111D4A"/>
<path d="M212.368 18.105C212.303 17.9733 212.171 17.7758 212.039 17.6441C211.907 17.5124 211.71 17.3808 211.512 17.3149C211.315 17.2491 211.052 17.1833 210.788 17.1833C210.393 17.1833 210.064 17.2491 209.801 17.3808C209.537 17.5124 209.34 17.7758 209.274 18.0391C209.142 18.3683 209.077 18.6317 209.011 18.9608C208.945 19.29 208.945 19.6192 208.879 20.0142V20.6067C208.879 21.0676 208.945 21.4626 209.011 21.7918C209.077 22.121 209.208 22.4502 209.34 22.7135C209.472 22.9769 209.669 23.1744 209.867 23.306C210.13 23.4377 210.393 23.5035 210.722 23.5035C210.986 23.5035 211.249 23.4377 211.447 23.3719C211.644 23.306 211.842 23.1744 211.973 23.0427C212.105 22.911 212.237 22.7135 212.303 22.5818C212.368 22.3843 212.434 22.2527 212.434 22.0551H215.265V22.4502C215.265 22.516 215.265 22.5818 215.199 22.6477C215.199 22.7135 215.133 22.7793 215.133 22.8452C215.068 23.1744 214.87 23.4377 214.673 23.7669C214.475 24.0302 214.212 24.3594 213.883 24.5569C213.553 24.8203 213.158 25.0178 212.632 25.1495C212.171 25.2811 211.578 25.347 210.92 25.347C210.064 25.347 209.274 25.2153 208.616 25.0178C207.957 24.8203 207.496 24.4911 207.101 24.0302C206.706 23.6352 206.443 23.1085 206.246 22.516C206.048 21.9235 205.916 21.3309 205.916 20.6067V20.4751V20.4092C205.916 19.4875 205.982 18.6975 206.246 18.0391C206.443 17.3808 206.772 16.8541 207.233 16.4591C207.694 16.064 208.155 15.8007 208.747 15.6032C209.34 15.4057 209.998 15.3398 210.722 15.3398C211.512 15.3398 212.237 15.4057 212.829 15.5374C213.422 15.669 213.883 15.9324 214.212 16.1957C214.541 16.5249 214.804 16.8541 215.002 17.2491C215.199 17.6441 215.265 18.0391 215.265 18.5658H212.434C212.434 18.3683 212.434 18.2366 212.368 18.105Z" fill="#111D4A"/>
<path d="M219.281 15.5374H216.582V25.1495H219.281V15.5374Z" fill="#111D4A"/>
<path d="M225.47 17.5124L224.219 21.3968H226.655L225.47 17.5124ZM227.247 15.5374L231 25.1495H227.972L227.313 23.3719H223.561L222.902 25.1495H220.071L223.956 15.5374H227.247Z" fill="#111D4A"/>
<path d="M118.42 29.363H116.972V34.5641H118.42V29.363Z" fill="#111D4A"/>
<path d="M119.407 29.363H121.383L123.16 33.2474L123.094 29.363H124.411V34.5641H122.436L120.658 30.5481V34.5641H119.407V29.363Z" fill="#111D4A"/>
<path d="M126.584 30.4164H125.004V29.363H129.612V30.4164H128.032V34.5641H126.584V30.4164Z" fill="#111D4A"/>
<path d="M130.205 29.4288H134.089V30.4164H131.587V31.4698H133.957V32.4573H131.587V33.5765H134.155V34.5641H130.205V29.4288Z" fill="#111D4A"/>
<path d="M134.945 29.363H137.315C138.237 29.363 138.632 29.4289 138.895 29.7581C139.027 29.8897 139.224 30.2189 139.224 30.7456C139.224 31.3381 139.027 31.5356 138.763 31.7331C138.434 31.9307 138.105 31.9965 137.973 31.9965C138.961 31.9965 139.027 32.4573 139.158 33.2474C139.224 33.5766 139.29 34.1691 139.422 34.4983H137.842C137.776 34.1691 137.71 33.7741 137.644 33.3132C137.578 32.7207 137.578 32.4573 136.92 32.4573H136.327V34.4983H134.879V29.363H134.945ZM136.393 31.6015H136.92C137.249 31.6015 137.381 31.6015 137.512 31.5356C137.842 31.404 137.908 31.1406 137.908 30.9431C137.908 30.2847 137.315 30.2847 136.92 30.2847H136.393V31.6015Z" fill="#111D4A"/>
<path d="M140.146 29.363H142.121L143.899 33.2474L143.833 29.363H145.084V34.5641H143.174L141.397 30.5481V34.5641H140.146V29.363Z" fill="#111D4A"/>
<path d="M147.717 29.363H149.495L151.536 34.5641H149.89L149.561 33.5107H147.52L147.19 34.5641H145.742L147.717 29.363ZM149.231 32.589L148.573 30.4164L147.849 32.589H149.231Z" fill="#111D4A"/>
<path d="M155.091 31.0089C155.025 30.4822 154.63 30.2847 154.235 30.2847C153.379 30.2847 153.116 31.0747 153.116 31.9964C153.116 32.3256 153.116 33.6423 154.235 33.6423C155.025 33.6423 155.091 33.1156 155.091 32.9181H156.605C156.605 34.564 154.959 34.6957 154.301 34.6957C153.774 34.6957 152.918 34.6299 152.326 34.0373C151.733 33.4448 151.667 32.5889 151.667 32.0622C151.667 31.338 151.865 30.6138 152.326 30.0872C152.852 29.4946 153.511 29.2971 154.301 29.2971C155.157 29.2971 155.749 29.4946 156.21 29.9555C156.605 30.4163 156.605 30.8772 156.671 31.0747H155.091V31.0089Z" fill="#111D4A"/>
<path d="M158.778 29.363H157.329V34.5641H158.778V29.363Z" fill="#111D4A"/>
<path d="M160.292 29.9555C160.95 29.2972 161.938 29.2313 162.333 29.2313C164.374 29.2313 164.966 30.7456 164.966 31.9964C164.966 34.0374 163.518 34.6957 162.267 34.6957C160.884 34.6957 159.634 33.9057 159.634 31.9964C159.568 31.6673 159.634 30.6139 160.292 29.9555ZM162.267 33.6424C163.32 33.6424 163.452 32.7206 163.452 31.9964C163.452 31.2722 163.254 30.9431 163.123 30.6797C162.925 30.4164 162.596 30.2847 162.267 30.2847C161.345 30.2847 161.082 31.0747 161.082 31.9964C161.082 32.7865 161.345 33.6424 162.267 33.6424Z" fill="#111D4A"/>
<path d="M165.756 29.363H167.731L169.509 33.2474V29.363H170.76V34.5641H168.785L167.007 30.5481V34.5641H165.756V29.363Z" fill="#111D4A"/>
<path d="M173.393 29.363H175.171L177.212 34.5641H175.566L175.237 33.5107H173.196L172.867 34.5641H171.418L173.393 29.363ZM174.842 32.589L174.183 30.4164L173.459 32.589H174.842Z" fill="#111D4A"/>
<path d="M177.739 29.363H179.187V33.5766H181.491V34.5641H177.739V29.363Z" fill="#111D4A"/>
</g>
<defs>
<clipPath id="clip0_408_2538">
<rect width="230.427" height="37" fill="white" transform="translate(0.572998)"/>
</clipPath>
</defs>
</svg>
