<svg width="107" height="78" viewBox="0 0 107 78" fill="none" xmlns="http://www.w3.org/2000/svg">
<g clip-path="url(#clip0_408_2437)">
<path d="M29.9448 13.6531L23.0341 19.752C20.6092 16.379 18.144 14.6884 15.6303 14.6884C14.4017 14.6884 13.4075 15.0201 12.6316 15.6753C11.8476 16.3305 11.4596 17.0665 11.4596 17.8916C11.4596 18.7166 11.7425 19.4931 12.2921 20.2292C13.0519 21.2079 15.3312 23.3029 19.1382 26.5303C22.6946 29.507 24.8527 31.3754 25.6044 32.1601C27.4957 34.069 28.8374 35.897 29.6376 37.6442C30.4136 39.3833 30.8177 41.2841 30.8177 43.3548C30.8177 47.3749 29.4275 50.6994 26.647 53.3201C23.8666 55.9408 20.2455 57.2512 15.7839 57.2512C12.2921 57.2512 9.2611 56.3938 6.66654 54.6871C4.08007 52.9723 1.86541 50.2868 0.0144653 46.6308L7.84662 41.8908C10.2068 46.2263 12.9226 48.3941 15.9859 48.3941C17.5863 48.3941 18.928 47.9249 20.0192 46.9947C21.1104 46.0564 21.6519 44.9887 21.6519 43.7593C21.6519 42.643 21.2397 41.543 20.4153 40.4267C19.5989 39.3105 17.7722 37.6199 14.9837 35.3308C9.64099 30.9791 6.19775 27.6142 4.63778 25.2523C3.07782 22.8823 2.30188 20.5204 2.30188 18.1666C2.30188 14.7612 3.60319 11.8493 6.18966 9.41461C8.77613 6.97991 11.9769 5.7666 15.7758 5.7666C18.2248 5.7666 20.5446 6.33281 22.7673 7.45714C24.9739 8.59765 27.3745 10.6603 29.9529 13.6612L29.9448 13.6531Z" fill="#111D4A"/>
<path d="M70.1388 40.5157H40.9279C41.3482 43.096 42.4717 45.1425 44.3145 46.6712C46.1493 48.1838 48.4771 48.9522 51.3223 48.9522C54.717 48.9522 57.6349 47.7632 60.0839 45.3932L67.7464 48.9846C65.8307 51.7024 63.5433 53.7084 60.8841 55.0026C58.2087 56.2968 55.0484 56.9439 51.3788 56.9439C45.7048 56.9439 41.0734 55.1563 37.4927 51.5568C33.9202 47.9654 32.1339 43.4762 32.1339 38.0729C32.1339 32.6697 33.904 27.954 37.4766 24.2898C41.041 20.6337 45.5027 18.8137 50.8858 18.8137C56.5922 18.8137 61.2236 20.6418 64.8042 24.2898C68.3768 27.9459 70.1631 32.7748 70.1631 38.7766L70.1308 40.5076L70.1388 40.5157ZM61.0458 33.3491C60.4557 31.327 59.2595 29.6849 57.4894 28.415C55.7273 27.1532 53.6743 26.5223 51.3384 26.5223C48.8005 26.5223 46.5696 27.2341 44.6621 28.6496C43.4659 29.5393 42.3585 31.1086 41.332 33.3491H61.0458Z" fill="#111D4A"/>
<path d="M94.5325 24.8155L88.9069 30.4453C86.6195 28.1804 84.5341 27.048 82.6751 27.048C81.6567 27.048 80.8565 27.2664 80.2826 27.6951C79.7007 28.1319 79.4097 28.6739 79.4097 29.3129C79.4097 29.7982 79.5956 30.2512 79.9674 30.6637C80.3311 31.0762 81.2364 31.6343 82.6832 32.3461L86.0133 34.0124C89.5212 35.7434 91.9298 37.5067 93.2392 39.3105C94.5486 41.1062 95.2033 43.2174 95.2033 45.644C95.2033 48.8633 94.0232 51.5487 91.6469 53.7084C89.2868 55.8681 86.1183 56.9439 82.1416 56.9439C76.8636 56.9439 72.6444 54.8813 69.4922 50.7398L75.0854 44.6491C76.1523 45.8947 77.4052 46.8977 78.8358 47.6661C80.2584 48.4265 81.5354 48.8066 82.6509 48.8066C83.8471 48.8066 84.817 48.5235 85.5525 47.9492C86.28 47.3669 86.6518 46.7036 86.6518 45.9432C86.6518 44.5439 85.3262 43.1769 82.6832 41.8423L79.6198 40.3135C73.7518 37.3611 70.8258 33.6565 70.8258 29.2158C70.8258 26.3443 71.9251 23.9015 74.1317 21.8632C76.3463 19.8329 79.1753 18.8137 82.6024 18.8137C84.9625 18.8137 87.1772 19.3314 89.2544 20.3587C91.3317 21.394 93.0937 22.8823 94.5325 24.8075V24.8155Z" fill="#111D4A"/>
<path d="M101.697 3.97095C103.071 3.97095 104.251 4.47245 105.229 5.46736C106.215 6.46227 106.708 7.66749 106.708 9.08301C106.708 10.4985 106.231 11.5662 105.253 12.545C104.283 13.5318 103.119 14.0252 101.761 14.0252C100.403 14.0252 99.183 13.5237 98.213 12.5126C97.2269 11.5096 96.7258 10.4015 96.7258 8.96168C96.7258 7.52189 97.2188 6.41374 98.1807 5.435C99.1587 4.45627 100.331 3.97095 101.697 3.97095Z" fill="#111D4A"/>
<path d="M106.262 19.7441H97.1773V56.0058H106.262V19.7441Z" fill="#111D4A"/>
<path d="M44.4548 6.4218L42.6442 7.41671C42.3048 7.0608 41.9653 6.81006 41.6339 6.67255C41.3025 6.53504 40.9145 6.46224 40.47 6.46224C39.6536 6.46224 38.9989 6.7049 38.4978 7.19022C37.9967 7.67555 37.7461 8.29838 37.7461 9.05872C37.7461 9.81905 37.9886 10.4014 38.4735 10.8625C38.9585 11.3316 39.589 11.5662 40.3811 11.5662C41.351 11.5662 42.1108 11.2346 42.6523 10.5713L44.3658 11.7442C43.4363 12.9494 42.1269 13.556 40.4376 13.556C38.9181 13.556 37.7219 13.1031 36.857 12.2052C35.9921 11.3074 35.5638 10.2478 35.5638 9.03445C35.5638 8.19322 35.7739 7.4248 36.1942 6.71299C36.6145 6.00118 37.1965 5.45115 37.9482 5.04672C38.6999 4.64228 39.5405 4.44006 40.47 4.44006C41.3267 4.44006 42.1027 4.60993 42.7897 4.95774C43.4767 5.30556 44.0345 5.79088 44.4709 6.4218H44.4548Z" fill="#111D4A"/>
<path d="M50.0731 4.44006C50.8894 4.44006 51.6573 4.64228 52.3766 5.05481C53.096 5.46733 53.6537 6.01736 54.0578 6.72108C54.462 7.4248 54.6641 8.17705 54.6641 8.99401C54.6641 9.81097 54.462 10.5794 54.0578 11.2912C53.6537 12.003 53.096 12.5611 52.4009 12.9575C51.7058 13.3538 50.9298 13.556 50.0811 13.556C48.8364 13.556 47.7776 13.1112 46.9046 12.2295C46.0317 11.3478 45.5872 10.272 45.5872 9.01018C45.5872 7.65937 46.0802 6.52695 47.0744 5.6291C47.9473 4.8445 48.9415 4.44815 50.0731 4.44815V4.44006ZM50.1054 6.48651C49.4265 6.48651 48.8687 6.72108 48.4161 7.19022C47.9635 7.65937 47.7452 8.25793 47.7452 8.99401C47.7452 9.73008 47.9635 10.361 48.408 10.8221C48.8526 11.2912 49.4103 11.5258 50.0973 11.5258C50.7843 11.5258 51.3421 11.2912 51.7947 10.814C52.2473 10.3367 52.4736 9.73008 52.4736 8.99401C52.4736 8.25793 52.2554 7.64319 51.8109 7.18214C51.3663 6.72108 50.8005 6.48651 50.1054 6.48651Z" fill="#111D4A"/>
<path d="M55.7929 1.32568H57.9671V13.3374H55.7929V1.32568Z" fill="#111D4A"/>
<path d="M68.211 9.62498H61.2276C61.3246 10.2397 61.5994 10.7331 62.0358 11.0971C62.4723 11.4611 63.03 11.6391 63.709 11.6391C64.5172 11.6391 65.2204 11.356 65.8024 10.7898L67.6291 11.6472C67.1765 12.2943 66.6268 12.7715 65.9883 13.087C65.3498 13.4024 64.5981 13.5561 63.717 13.5561C62.3592 13.5561 61.2518 13.1274 60.395 12.27C59.5383 11.4126 59.1099 10.3368 59.1099 9.05069C59.1099 7.76458 59.5383 6.63216 60.387 5.75858C61.2357 4.885 62.3026 4.44821 63.5877 4.44821C64.9537 4.44821 66.061 4.885 66.9178 5.75858C67.7746 6.63216 68.203 7.78885 68.203 9.22055V9.63307L68.211 9.62498ZM66.0287 7.91018C65.8832 7.42486 65.6003 7.0366 65.18 6.72923C64.7597 6.42186 64.2667 6.27626 63.709 6.27626C63.1028 6.27626 62.5693 6.44612 62.1167 6.78585C61.8338 6.99615 61.567 7.37632 61.3165 7.91018H66.0287ZM63.9999 -0.00866699H66.5702L63.6605 3.11357H62.1005L63.9999 -0.00866699Z" fill="#111D4A"/>
<path d="M75.9616 4.66597H78.1278V12.0914C78.1278 13.5555 77.8368 14.6313 77.2468 15.3269C76.4547 16.2652 75.2665 16.7262 73.6742 16.7262C72.8255 16.7262 72.1142 16.6211 71.5323 16.4108C70.9503 16.2005 70.4654 15.885 70.0693 15.4725C69.6733 15.06 69.3742 14.5585 69.1883 13.968H71.5808C71.7909 14.2106 72.0657 14.3967 72.3971 14.518C72.7285 14.6393 73.1246 14.7041 73.5853 14.7041C74.1673 14.7041 74.636 14.6151 74.9917 14.4371C75.3473 14.2592 75.5979 14.0246 75.7434 13.7334C75.8889 13.4422 75.9616 12.9569 75.9616 12.2532C75.5817 12.6333 75.1776 12.9084 74.7573 13.0782C74.337 13.2481 73.8601 13.329 73.3347 13.329C72.1708 13.329 71.1928 12.9084 70.3926 12.0671C69.5924 11.2259 69.1883 10.1663 69.1883 8.88018C69.1883 7.5051 69.6167 6.39695 70.4654 5.56382C71.2332 4.81157 72.1547 4.4314 73.2216 4.4314C73.7227 4.4314 74.1915 4.52037 74.636 4.70641C75.0806 4.89245 75.5251 5.19173 75.9697 5.61235V4.65788L75.9616 4.66597ZM73.7065 6.47784C73.0195 6.47784 72.4537 6.70432 72.0092 7.16538C71.5646 7.62644 71.3383 8.20073 71.3383 8.89636C71.3383 9.59199 71.5646 10.2067 72.0253 10.6759C72.486 11.145 73.0518 11.3715 73.7469 11.3715C74.4421 11.3715 74.9755 11.145 75.412 10.6921C75.8485 10.2391 76.0667 9.64861 76.0667 8.91254C76.0667 8.17647 75.8485 7.60217 75.4039 7.1492C74.9594 6.69623 74.3936 6.46975 73.6985 6.46975L73.7065 6.47784Z" fill="#111D4A"/>
<path d="M80.7617 1.09985C81.1416 1.09985 81.473 1.23736 81.7397 1.51238C82.0064 1.78739 82.1519 2.11903 82.1519 2.51538C82.1519 2.91172 82.0145 3.23527 81.7478 3.51029C81.4811 3.7853 81.1577 3.92281 80.7779 3.92281C80.398 3.92281 80.0585 3.7853 79.7918 3.5022C79.517 3.22718 79.3795 2.88746 79.3795 2.48302C79.3795 2.07859 79.517 1.77122 79.7837 1.50429C80.0504 1.23736 80.3818 1.09985 80.7617 1.09985ZM79.6786 4.66697H81.8529V13.33H79.6786V4.66697Z" fill="#111D4A"/>
<path d="M87.4777 4.44019C88.2941 4.44019 89.0619 4.6424 89.7813 5.05493C90.5006 5.46745 91.0583 6.01748 91.4625 6.7212C91.8666 7.42492 92.0687 8.17717 92.0687 8.99413C92.0687 9.81109 91.8666 10.5795 91.4625 11.2913C91.0583 12.0031 90.5006 12.5612 89.8055 12.9576C89.1104 13.3539 88.3345 13.5562 87.4858 13.5562C86.241 13.5562 85.1822 13.1113 84.3093 12.2296C83.4363 11.3479 82.9918 10.2721 82.9918 9.01031C82.9918 7.65949 83.4848 6.52707 84.479 5.62923C85.3519 4.84462 86.3461 4.44827 87.4777 4.44827V4.44019ZM87.51 6.48663C86.8311 6.48663 86.2734 6.7212 85.8207 7.19035C85.3681 7.65949 85.1499 8.25806 85.1499 8.99413C85.1499 9.7302 85.3681 10.3611 85.8127 10.8222C86.2572 11.2913 86.8149 11.5259 87.502 11.5259C88.189 11.5259 88.7467 11.2913 89.1993 10.8141C89.652 10.3369 89.8783 9.7302 89.8783 8.99413C89.8783 8.25806 89.66 7.64331 89.2155 7.18226C88.7709 6.7212 88.2051 6.48663 87.51 6.48663Z" fill="#111D4A"/>
<path d="M11.9215 62.9869V76.8024H10.6606V75.0876C10.1272 75.7428 9.52097 76.2362 8.8501 76.5598C8.17924 76.8833 7.45179 77.0532 6.65969 77.0532C5.25329 77.0532 4.04897 76.5436 3.04671 75.5163C2.04445 74.4891 1.55141 73.2515 1.55141 71.7874C1.55141 70.3234 2.05254 69.1263 3.06288 68.1071C4.07322 67.0879 5.27754 66.5783 6.7001 66.5783C7.51646 66.5783 8.26007 66.7563 8.92285 67.1041C9.58563 67.4519 10.1676 67.9777 10.6687 68.6733V62.995H11.9296L11.9215 62.9869ZM6.79709 67.8159C6.08581 67.8159 5.42303 67.9938 4.82491 68.3417C4.2187 68.6895 3.74182 69.1829 3.38618 69.8219C3.03054 70.4609 2.85273 71.1242 2.85273 71.836C2.85273 72.5478 3.03054 73.2111 3.39427 73.8501C3.75799 74.4891 4.23487 74.9906 4.84107 75.3465C5.44728 75.7024 6.10198 75.8803 6.78901 75.8803C7.47604 75.8803 8.15499 75.7024 8.78544 75.3465C9.41589 74.9906 9.89278 74.5133 10.2323 73.9067C10.5717 73.3 10.7415 72.6206 10.7415 71.8683C10.7415 70.7197 10.3616 69.7491 9.6018 68.9807C8.84202 68.2042 7.91251 67.8159 6.79709 67.8159Z" fill="#111D4A"/>
<path d="M24.7409 66.8364V76.8016H23.48V75.0868C22.9466 75.742 22.3404 76.2354 21.6695 76.559C20.9986 76.8825 20.2712 77.0524 19.4791 77.0524C18.0727 77.0524 16.8684 76.5428 15.8661 75.5155C14.8638 74.4883 14.3708 73.2507 14.3708 71.7866C14.3708 70.3226 14.8719 69.1255 15.8823 68.1063C16.8926 67.0871 18.0969 66.5775 19.5195 66.5775C20.3359 66.5775 21.0795 66.7555 21.7422 67.1033C22.405 67.4511 22.987 67.9769 23.4881 68.6725V66.8444H24.749L24.7409 66.8364ZM19.6165 67.8151C18.9052 67.8151 18.2424 67.993 17.6443 68.3409C17.0381 68.6887 16.5612 69.1821 16.2056 69.8211C15.8499 70.452 15.6721 71.1234 15.6721 71.8352C15.6721 72.547 15.8499 73.2103 16.2137 73.8493C16.5774 74.4883 17.0543 74.9898 17.6605 75.3457C18.2667 75.7016 18.9214 75.8795 19.6084 75.8795C20.2954 75.8795 20.9744 75.7016 21.6048 75.3457C22.2353 74.9898 22.7122 74.5125 23.0516 73.9059C23.3911 73.2992 23.5609 72.6198 23.5609 71.8675C23.5609 70.7189 23.181 69.7483 22.4212 68.9799C21.6614 68.2033 20.7319 67.8151 19.6165 67.8151Z" fill="#111D4A"/>
<path d="M34.8114 63.2129C35.1267 63.5284 35.2802 63.9166 35.2802 64.3696C35.2802 64.8226 35.1267 65.1947 34.8114 65.5101C34.4962 65.8256 34.1244 65.9793 33.696 65.9793C33.2676 65.9793 32.8716 65.8175 32.5564 65.502C32.2411 65.1866 32.0876 64.7902 32.0876 64.3373C32.0876 63.8843 32.2411 63.5203 32.5564 63.2129C32.8716 62.9056 33.2434 62.7438 33.6799 62.7438C34.1163 62.7438 34.4962 62.9056 34.8114 63.221V63.2129ZM34.9327 66.8367V76.8019H32.427V66.8367H34.9327Z" fill="#111D4A"/>
<path d="M39.6857 66.8364V67.8555C40.2515 67.3783 40.7688 67.0467 41.2295 66.8606C41.6902 66.6746 42.159 66.5775 42.644 66.5775C43.6301 66.5775 44.4707 66.9253 45.1577 67.6129C45.7397 68.1953 46.0306 69.0688 46.0306 70.2174V76.8016H43.5573V72.4337C43.5573 71.2447 43.5007 70.452 43.3957 70.0638C43.2906 69.6755 43.1047 69.3762 42.838 69.174C42.5712 68.9718 42.2479 68.8666 41.8519 68.8666C41.3427 68.8666 40.9143 69.0365 40.5506 69.3762C40.1868 69.7159 39.9363 70.1851 39.7989 70.7836C39.7261 71.091 39.6857 71.7705 39.6857 72.8058V76.8097H37.1962V66.8444H39.6857V66.8364Z" fill="#111D4A"/>
<path d="M58.2921 62.9869V76.8024H55.8026V75.7509C55.3177 76.212 54.8246 76.5517 54.3316 76.7539C53.8385 76.9561 53.3051 77.0613 52.7312 77.0613C51.446 77.0613 50.3306 76.5598 49.393 75.5649C48.4554 74.57 47.9866 73.3243 47.9866 71.8441C47.9866 70.3638 48.4393 69.0454 49.3526 68.0586C50.266 67.0717 51.3652 66.5864 52.6665 66.5864C53.2647 66.5864 53.8224 66.6997 54.3477 66.9261C54.8731 67.1526 55.3581 67.4923 55.8026 67.9453V63.0031H58.2921V62.9869ZM51.244 69.7087C50.7348 70.2587 50.4761 70.9543 50.4761 71.8117C50.4761 72.6691 50.7348 73.3809 51.2601 73.939C51.7855 74.4972 52.4241 74.7722 53.1838 74.7722C53.9436 74.7722 54.6225 74.4972 55.1398 73.9552C55.6571 73.4133 55.9158 72.6934 55.9158 71.8036C55.9158 70.9139 55.6571 70.2344 55.1398 69.7006C54.6225 69.1667 53.9678 68.8917 53.1757 68.8917C52.3836 68.8917 51.7532 69.1667 51.244 69.7087Z" fill="#111D4A"/>
<path d="M63.3365 66.8368V71.6334C63.3365 72.5636 63.4012 73.2187 63.5305 73.5827C63.6598 73.9467 63.8619 74.2298 64.1448 74.4321C64.4277 74.6343 64.7752 74.7313 65.1955 74.7313C65.6158 74.7313 65.9634 74.6343 66.2544 74.4321C66.5453 74.2298 66.7555 73.9386 66.901 73.5585C67.0061 73.2754 67.0546 72.6606 67.0546 71.7143V66.8287H69.5602V71.051C69.5602 72.79 69.4228 73.9791 69.148 74.6262C68.8085 75.4108 68.3155 76.0094 67.6688 76.43C67.0222 76.8506 66.1897 77.0609 65.1794 77.0609C64.0882 77.0609 63.2072 76.8182 62.5282 76.3248C61.8493 75.8314 61.3805 75.152 61.1057 74.2784C60.9117 73.6717 60.8147 72.5717 60.8147 70.9782V66.8287H63.3446L63.3365 66.8368ZM68.5822 61.4254L65.2359 65.0168H63.4416L65.632 61.4254H68.5903H68.5822Z" fill="#111D4A"/>
<path d="M76.6153 69.7811C75.9848 69.1583 75.419 68.8509 74.9017 68.8509C74.6188 68.8509 74.4006 68.9075 74.2389 69.0288C74.0773 69.1502 74.0045 69.2958 74.0045 69.4737C74.0045 69.6112 74.053 69.7326 74.1581 69.8458C74.2632 69.959 74.5057 70.1127 74.9017 70.3069L75.8151 70.7679C76.7769 71.2452 77.4397 71.7305 77.8034 72.2239C78.1671 72.7173 78.345 73.2997 78.345 73.963C78.345 74.8446 78.0217 75.5888 77.367 76.1793C76.7123 76.7697 75.8474 77.069 74.7562 77.069C73.3013 77.069 72.1455 76.5028 71.2807 75.3623L72.8164 73.6879C73.1074 74.0277 73.4549 74.3027 73.8429 74.513C74.2309 74.7233 74.5865 74.8285 74.8936 74.8285C75.225 74.8285 75.4918 74.7476 75.6938 74.5939C75.8959 74.4402 75.9929 74.2542 75.9929 74.0438C75.9929 73.6556 75.6292 73.2835 74.9017 72.9195L74.0611 72.4989C72.4527 71.69 71.6444 70.6709 71.6444 69.4495C71.6444 68.6649 71.9515 67.9854 72.5577 67.4273C73.1639 66.8692 73.9399 66.5861 74.8856 66.5861C75.5322 66.5861 76.1384 66.7317 76.7123 67.0148C77.2861 67.2979 77.763 67.7023 78.1591 68.2362L76.6153 69.7811Z" fill="#111D4A"/>
<path d="M83.1079 63.1649V66.8372H84.587V68.9888H83.1079V76.8025H80.6184V68.9888H79.3332V66.8372H80.6184V63.1649H83.1079Z" fill="#111D4A"/>
<path d="M87.4869 66.8364V68.0901C87.7213 67.5967 88.0284 67.2165 88.4083 66.9658C88.7882 66.715 89.2166 66.5775 89.6692 66.5775C89.9925 66.5775 90.332 66.6665 90.6876 66.8364L89.9117 68.988C89.6207 68.8424 89.3782 68.7696 89.1923 68.7696C88.8043 68.7696 88.481 69.0041 88.2143 69.4814C87.9476 69.9586 87.8183 70.8888 87.8183 72.2801V72.7654L87.8263 76.7936H85.3449V66.8283H87.4869V66.8364Z" fill="#111D4A"/>
<path d="M94.0339 63.213C94.3491 63.5285 94.5027 63.9168 94.5027 64.3697C94.5027 64.8227 94.3491 65.1948 94.0339 65.5102C93.7187 65.8257 93.3469 65.9794 92.9185 65.9794C92.4901 65.9794 92.0941 65.8176 91.7788 65.5021C91.4636 65.1867 91.31 64.7903 91.31 64.3374C91.31 63.8844 91.4636 63.5204 91.7788 63.213C92.0941 62.9057 92.4659 62.7439 92.9023 62.7439C93.3388 62.7439 93.7187 62.9057 94.0339 63.2211V63.213ZM94.1551 66.8368V76.8021H91.6495V66.8368H94.1551Z" fill="#111D4A"/>
<path d="M106.273 66.8369V76.8022H103.783V75.7507C103.298 76.2117 102.805 76.5515 102.312 76.7537C101.819 76.9559 101.286 77.0611 100.712 77.0611C99.4269 77.0611 98.3115 76.5596 97.3739 75.5646C96.4363 74.5697 95.9675 73.3241 95.9675 71.8438C95.9675 70.3636 96.4201 69.0451 97.3334 68.0583C98.2387 67.0715 99.346 66.5862 100.647 66.5862C101.245 66.5862 101.803 66.6994 102.329 66.9259C102.854 67.1524 103.339 67.4921 103.783 67.9451V66.845H106.273V66.8369ZM99.2248 69.7084C98.7156 70.2585 98.4569 70.9541 98.4569 71.8115C98.4569 72.6689 98.7156 73.3807 99.241 73.9388C99.7663 74.4969 100.405 74.772 101.165 74.772C101.924 74.772 102.603 74.4969 103.121 73.955C103.638 73.4131 103.897 72.6932 103.897 71.8034C103.897 70.9136 103.638 70.2342 103.121 69.7003C102.603 69.1665 101.949 68.8915 101.157 68.8915C100.364 68.8915 99.734 69.1665 99.2248 69.7084Z" fill="#111D4A"/>
</g>
<defs>
<clipPath id="clip0_408_2437">
<rect width="106.7" height="77.0611" fill="white"/>
</clipPath>
</defs>
</svg>
